<svg width="243" height="246" viewBox="0 0 243 246" fill="none" xmlns="http://www.w3.org/2000/svg">
<path opacity="0.3" d="M28.5511 211.409C33.5207 216.624 38.2222 219.987 41.9371 222.644C85.6046 253.877 137.275 244.773 148.256 242.549C164.473 239.266 195.818 232.92 218.48 206.354C252.766 166.162 247.427 102.84 220.833 61.041C215.968 53.3951 190.272 10.9591 138.045 4.15403C106.438 0.0351212 69.5943 8.3418 42.9131 30.6247C-13.0931 77.3985 -9.10611 171.89 28.5511 211.409Z" fill="url(#paint0_linear)"/>
<path d="M77.0629 237.311C77.2705 237.283 77.4704 237.214 77.6507 237.108C77.8311 237.002 77.9883 236.861 78.113 236.693C81.7986 231.742 108.598 192.992 72.9318 157.572C39.0724 123.948 23.7244 117.044 21.6828 97.2877C21.4449 94.9806 18.3155 94.4268 17.2858 96.5067C9.59227 112.051 -2.3946 148.323 37.2734 172.131C81.0312 198.393 77.4449 227.182 75.329 235.363C75.2638 235.612 75.2612 235.874 75.3214 236.124C75.3816 236.374 75.5027 236.606 75.6741 236.799C75.8455 236.991 76.0618 237.139 76.3039 237.228C76.5461 237.317 76.8066 237.346 77.0625 237.311H77.0629Z" fill="url(#paint1_linear)"/>
<path d="M71.6361 238.048C72.1205 237.983 72.571 237.764 72.9203 237.423C73.2696 237.083 73.4989 236.638 73.5741 236.157C74.6188 229.419 77.184 204.24 58.5758 197.563C38.091 190.213 21.553 209.231 6.49514 194.346C5.70282 193.563 4.37061 194.245 4.55961 195.341C5.90072 203.117 11.8696 221.127 38.4292 224.751C66.857 228.629 70.056 231.88 69.482 235.913C69.4431 236.204 69.472 236.499 69.5667 236.777C69.6614 237.054 69.8192 237.306 70.0277 237.513C70.2363 237.72 70.4901 237.876 70.7691 237.968C71.0481 238.061 71.3448 238.088 71.6361 238.047V238.048Z" fill="url(#paint2_linear)"/>
<path opacity="0.47" d="M22.6735 117.43C23.019 118.864 23.4736 120.271 24.0333 121.636C24.5785 122.999 25.1939 124.332 25.877 125.631C27.2219 128.242 28.8359 130.712 30.6028 133.065C34.1607 137.76 38.4652 141.884 43.2097 145.381C45.586 147.107 48.0552 148.703 50.6063 150.161C53.043 151.575 55.3881 153.141 57.6276 154.849C62.116 158.276 66.1956 162.204 69.7865 166.557C76.9502 175.243 82.0344 185.724 83.7086 196.885C84.552 202.478 84.584 208.163 83.8038 213.766C83.0435 219.386 81.4363 224.891 79.3169 230.197C79.2634 230.331 79.264 230.479 79.3186 230.612C79.3732 230.745 79.4776 230.851 79.6095 230.909C79.7414 230.966 79.8906 230.97 80.0254 230.92C80.1603 230.87 80.2702 230.769 80.332 230.639C82.8102 225.396 84.6619 219.82 85.687 214.063C86.7502 208.283 86.9183 202.375 86.1854 196.544C85.4733 190.705 83.8209 184.985 81.441 179.6C79.0542 174.213 75.9014 169.181 72.2183 164.591C68.5365 159.994 64.265 155.882 59.5943 152.289C57.2537 150.491 54.8019 148.841 52.2535 147.349C49.7532 145.919 47.3797 144.466 45.081 142.812C40.4922 139.544 36.2519 135.772 32.6039 131.468C30.7613 129.325 29.0746 127.053 27.5567 124.67C26.0587 122.285 24.6592 119.769 23.6518 117.166L23.6387 117.133C23.5925 117.013 23.5026 116.916 23.3873 116.86C23.2719 116.805 23.1397 116.795 23.0173 116.833C22.8949 116.87 22.7914 116.953 22.7277 117.064C22.6641 117.175 22.645 117.306 22.6744 117.43H22.6735Z" fill="white"/>
<path opacity="0.47" d="M72.8162 233.477C72.7293 233.233 72.7565 233.007 72.7645 232.774L72.7861 232.079L72.8023 230.691C72.8006 229.766 72.7799 228.841 72.7401 227.917C72.6575 226.068 72.4995 224.221 72.2514 222.384C71.7454 218.716 70.9115 215.057 69.426 211.612C67.957 208.191 65.7322 204.921 62.5034 202.784C60.8893 201.732 59.0898 200.994 57.2002 200.61C55.3213 200.215 53.3907 200.156 51.5026 200.322C44.1025 201.177 36.8491 202.591 29.5767 203.74C25.9542 204.278 22.2808 204.759 18.7242 204.274C17.8425 204.148 16.9728 203.95 16.1239 203.682C15.2813 203.401 14.4682 203.039 13.696 202.601C12.1495 201.72 10.7896 200.517 9.57448 199.182L9.57069 199.177C9.49123 199.088 9.37949 199.034 9.26004 199.027C9.14059 199.02 9.02322 199.061 8.93375 199.14C8.84428 199.219 8.79004 199.33 8.78296 199.45C8.77588 199.569 8.81654 199.686 8.89599 199.775C10.1273 201.188 11.5346 202.495 13.1791 203.478C14.0024 203.969 14.8718 204.379 15.7748 204.701C16.6802 205.01 17.6098 205.243 18.5539 205.398C22.3415 205.951 26.0965 205.48 29.7603 204.98C33.4347 204.458 37.0632 203.779 40.7042 203.192C44.3339 202.603 48.006 202.034 51.6207 201.611C53.4052 201.439 55.2095 201.481 56.9491 201.83C58.6917 202.168 60.3541 202.832 61.8483 203.788C64.853 205.695 67.0326 208.73 68.5128 212.015C70.0107 215.317 70.9002 218.891 71.4646 222.498C71.7425 224.304 71.9325 226.126 72.0478 227.954C72.1047 228.867 72.142 229.782 72.1598 230.698L72.169 232.071L72.1602 232.757C72.1541 232.983 72.1646 233.217 72.0524 233.432C72.0204 233.494 72.0041 233.562 72.0052 233.631C72.0062 233.701 72.0246 233.769 72.0585 233.829C72.0925 233.89 72.141 233.941 72.1996 233.978C72.2583 234.015 72.3253 234.037 72.3946 234.042C72.464 234.047 72.5334 234.034 72.5967 234.006C72.66 233.977 72.7152 233.933 72.7573 233.878C72.7994 233.823 72.8271 233.758 72.8379 233.69C72.8486 233.621 72.8422 233.551 72.819 233.486L72.8162 233.477Z" fill="white"/>
<path d="M111.481 3.28217C122.63 3.19434 133.876 4.95704 143.826 9.07226C166.987 18.6519 186.643 43.9996 178.951 69.8908C176.452 78.3014 177.765 87.581 169.359 91.2357C164.812 93.2133 152.426 94.3905 147.717 92.8319C135.202 88.6897 126.975 77.3525 133.782 64.7803C135.961 60.7542 138.783 57.0762 140.665 52.9036C142.548 48.7311 143.406 43.7784 141.486 39.6222C137.719 31.464 125.205 28.871 117.09 29.1153C107.512 29.4042 98.8322 34.1269 93.6775 42.2285C87.2533 52.3258 85.6259 64.6072 86.5661 76.3279C87.5721 88.8694 92.8769 98.4468 100.827 108.068C107.671 116.351 115.209 124.302 119.758 134.028C123.935 142.958 125.299 152.852 125.488 162.62C125.524 164.513 134.97 182.357 134.93 187.807C134.924 188.578 124.216 191.129 123.444 191.137C119.413 191.182 107.994 191.31 103.791 191.356C103.376 191.361 102.976 191.202 102.678 190.913C102.381 190.624 102.211 190.23 102.205 189.816C101.906 163.295 93.7228 138.01 73.0073 120.199C65.4696 113.718 57.3519 108.44 51.4908 100.26C43.1369 88.6008 39.0157 77.1264 40.205 62.7365C41.2912 49.5943 45.6325 36.445 54.226 26.2483C63.4619 15.2891 76.9805 8.44511 91.0306 5.4917C97.7569 4.08115 104.607 3.341 111.481 3.28217Z" fill="url(#paint3_linear)"/>
<path d="M90.9205 221.087C90.9205 233.282 97.7018 244.071 109.936 244.071C112.578 244.071 121.567 244.096 123.917 243.25C132.446 240.178 132.476 233.647 132.476 224.086C132.476 211.89 128.345 199.896 116.111 199.896C103.877 199.896 90.9205 208.891 90.9205 221.087Z" fill="url(#paint4_linear)"/>
<path d="M122.074 0.50312C133.224 0.415284 144.47 2.17798 154.419 6.2932C177.581 15.8728 197.237 41.221 189.545 67.1118C187.046 75.5226 181.268 86.1098 172.863 89.7648C168.315 91.7424 163.02 91.6114 158.311 90.0529C145.795 85.9105 137.569 74.5734 144.375 62.0012C146.555 57.9751 149.377 54.2971 151.259 50.1245C153.141 45.9519 153.999 40.9993 152.08 36.843C148.313 28.6849 135.799 26.0919 127.683 26.3361C118.105 26.625 109.426 31.3477 104.271 39.4494C97.8472 49.5466 96.2198 61.8281 97.16 73.5488C98.166 86.0902 103.471 95.6677 111.421 105.289C118.265 113.572 125.803 121.523 130.352 131.249C134.529 140.178 135.893 150.073 136.082 159.841C136.118 161.734 135.479 181.506 135.438 186.957C135.436 187.327 135.288 187.681 135.026 187.943C134.764 188.205 134.409 188.354 134.038 188.358C130.007 188.403 118.588 188.53 114.385 188.577C113.97 188.582 113.57 188.423 113.273 188.134C112.975 187.845 112.805 187.45 112.799 187.037C112.5 160.516 104.317 135.231 83.6013 117.42C76.0636 110.939 67.9459 105.661 62.0847 97.481C53.7309 85.8215 49.6096 74.3472 50.799 59.9573C51.8853 46.8152 56.2269 33.6659 64.8201 23.4692C74.0557 12.51 87.5743 5.66614 101.624 2.71264C108.351 1.30214 115.201 0.561989 122.074 0.50312Z" fill="url(#paint5_linear)"/>
<path d="M120.919 243.389C133.153 243.389 143.071 233.502 143.071 221.307C143.071 209.111 133.153 199.225 120.919 199.225C108.685 199.225 98.7671 209.111 98.7671 221.307C98.7671 233.502 108.685 243.389 120.919 243.389Z" fill="url(#paint6_linear)"/>
<path d="M182.212 64.5756C182.277 64.5755 182.34 64.5534 182.39 64.513C182.441 64.4726 182.476 64.4163 182.49 64.3533C184.042 57.3662 184.27 46.4244 176.54 33.9774C168.996 21.8285 158.412 13.6992 145.085 9.81582C130.838 5.66485 113.923 6.55323 94.8093 12.4572C94.7731 12.4678 94.7395 12.4855 94.7103 12.5092C94.6811 12.5329 94.6569 12.5621 94.6391 12.5952C94.6214 12.6283 94.6104 12.6646 94.6068 12.702C94.6032 12.7393 94.6071 12.7771 94.6183 12.8129C94.6294 12.8488 94.6476 12.8821 94.6718 12.9108C94.6959 12.9396 94.7256 12.9634 94.759 12.9806C94.7924 12.9979 94.829 13.0084 94.8665 13.0115C94.9041 13.0145 94.9418 13.0102 94.9776 12.9986C113.983 7.12803 130.787 6.24036 144.925 10.3597C158.114 14.2025 168.588 22.2493 176.057 34.2757C183.686 46.5608 183.464 57.3463 181.935 64.2309C181.927 64.2672 181.926 64.3048 181.932 64.3414C181.939 64.3781 181.952 64.4131 181.972 64.4445C181.992 64.4758 182.019 64.503 182.049 64.5243C182.08 64.5456 182.114 64.5607 182.151 64.5687C182.171 64.5733 182.192 64.5756 182.212 64.5756Z" fill="white"/>
<path d="M177.553 75.8174C177.598 75.8175 177.642 75.807 177.682 75.7868C177.722 75.7666 177.756 75.7373 177.783 75.7012C177.85 75.6095 179.446 73.4111 180.93 69.5386C180.945 69.5037 180.952 69.4662 180.952 69.4284C180.951 69.3906 180.943 69.3532 180.928 69.3185C180.913 69.2838 180.891 69.2525 180.864 69.2264C180.837 69.2002 180.804 69.1798 180.769 69.1663C180.733 69.1529 180.696 69.1466 180.658 69.1479C180.62 69.1492 180.582 69.158 180.548 69.1739C180.514 69.1897 180.483 69.2123 180.457 69.2403C180.432 69.2682 180.412 69.301 180.399 69.3366C178.942 73.1387 177.34 75.3454 177.323 75.3672C177.293 75.4094 177.274 75.4594 177.27 75.5115C177.265 75.5636 177.276 75.6159 177.299 75.6625C177.323 75.7092 177.359 75.7484 177.404 75.7758C177.449 75.8032 177.5 75.8177 177.553 75.8178L177.553 75.8174Z" fill="white"/>
<path d="M113.507 206.995C113.551 206.995 113.595 206.984 113.635 206.964C115.891 205.819 118.388 205.227 120.919 205.234C120.957 205.235 120.994 205.228 121.029 205.214C121.064 205.2 121.096 205.18 121.123 205.153C121.15 205.127 121.172 205.095 121.186 205.061C121.201 205.026 121.208 204.989 121.208 204.951C121.208 204.913 121.201 204.876 121.186 204.841C121.172 204.807 121.15 204.775 121.123 204.749C121.096 204.722 121.064 204.702 121.029 204.688C120.994 204.674 120.957 204.667 120.919 204.668C118.298 204.66 115.713 205.274 113.378 206.459C113.321 206.487 113.276 206.535 113.249 206.592C113.222 206.65 113.216 206.715 113.231 206.777C113.246 206.839 113.281 206.894 113.331 206.933C113.381 206.973 113.443 206.994 113.507 206.994V206.995Z" fill="white"/>
<path d="M130.093 235.153C130.149 235.153 130.205 235.136 130.251 235.104C132.635 233.501 134.564 231.311 135.849 228.746C137.135 226.182 137.734 223.33 137.589 220.467C137.444 217.604 136.56 214.827 135.022 212.404C133.484 209.982 131.344 207.997 128.81 206.641C128.777 206.624 128.741 206.613 128.704 206.609C128.667 206.605 128.629 206.609 128.594 206.619C128.558 206.63 128.525 206.648 128.496 206.671C128.467 206.695 128.443 206.724 128.425 206.757C128.407 206.789 128.396 206.825 128.393 206.862C128.389 206.899 128.393 206.937 128.403 206.972C128.414 207.008 128.432 207.041 128.455 207.07C128.479 207.099 128.508 207.123 128.541 207.14C130.989 208.45 133.055 210.368 134.541 212.708C136.027 215.047 136.881 217.73 137.021 220.496C137.161 223.261 136.582 226.016 135.341 228.493C134.099 230.97 132.236 233.086 129.933 234.634C129.883 234.668 129.845 234.718 129.824 234.775C129.804 234.832 129.803 234.894 129.82 234.952C129.838 235.01 129.874 235.061 129.923 235.097C129.972 235.133 130.032 235.153 130.093 235.153V235.153Z" fill="white"/>
<g opacity="0.3">
<path opacity="0.3" d="M194.606 41.8119C194.718 41.9496 194.881 42.0374 195.057 42.056C195.234 42.0745 195.411 42.0223 195.549 41.9107C196.108 41.4595 196.695 41.0258 197.294 40.6216C197.439 40.5235 197.54 40.3724 197.575 40.2009C197.61 40.0295 197.576 39.8512 197.48 39.7045L197.473 39.6935C197.424 39.6208 197.36 39.5586 197.287 39.5103C197.213 39.462 197.131 39.4286 197.045 39.4121C196.958 39.3955 196.869 39.3961 196.783 39.4137C196.697 39.4314 196.615 39.4659 196.542 39.5151C195.912 39.9406 195.294 40.3971 194.706 40.8722C194.577 40.976 194.491 41.1236 194.465 41.2866C194.439 41.4496 194.474 41.6164 194.565 41.7549C194.577 41.7747 194.591 41.7937 194.606 41.8119ZM200.344 38.8535C200.992 38.5346 201.66 38.2402 202.329 37.9786C202.412 37.9471 202.488 37.8996 202.552 37.8389C202.616 37.7781 202.668 37.7052 202.704 37.6244C202.74 37.5437 202.759 37.4567 202.761 37.3684C202.763 37.2801 202.747 37.1923 202.715 37.1101C202.682 37.0279 202.634 36.9529 202.572 36.8895C202.511 36.826 202.437 36.7753 202.356 36.7404C202.275 36.7055 202.187 36.6869 202.098 36.6859C202.01 36.6849 201.922 36.7013 201.84 36.7344C201.135 37.0096 200.432 37.3194 199.75 37.6549C199.591 37.7334 199.469 37.8717 199.412 38.0396C199.355 38.2074 199.367 38.391 199.446 38.5499C199.458 38.5737 199.471 38.5968 199.485 38.619C199.575 38.7559 199.712 38.8555 199.87 38.8987C200.028 38.9419 200.197 38.9258 200.344 38.8535ZM205.694 36.9267C206.395 36.7598 207.112 36.6218 207.825 36.5157C207.912 36.5034 207.997 36.4739 208.073 36.429C208.149 36.384 208.215 36.3245 208.268 36.2538C208.321 36.1831 208.36 36.1027 208.381 36.0171C208.403 35.9316 208.407 35.8427 208.394 35.7554C208.381 35.6682 208.351 35.5844 208.305 35.5089C208.259 35.4334 208.199 35.3676 208.128 35.3154C208.057 35.2632 207.976 35.2256 207.89 35.2047C207.804 35.1839 207.714 35.1802 207.627 35.1939C206.876 35.3055 206.121 35.4512 205.383 35.6267C205.21 35.6678 205.06 35.7758 204.967 35.9267C204.874 36.0777 204.845 36.2593 204.886 36.4317C204.927 36.6041 205.036 36.7531 205.187 36.8459C205.339 36.9388 205.521 36.9678 205.694 36.9267ZM211.342 36.2411C212.063 36.2348 212.794 36.2599 213.512 36.3151C213.6 36.3219 213.688 36.3113 213.772 36.2841C213.856 36.2568 213.933 36.2134 214 36.1563C214.067 36.0992 214.122 36.0295 214.162 35.9513C214.202 35.873 214.226 35.7877 214.232 35.7002C214.239 35.6127 214.228 35.5248 214.201 35.4413C214.174 35.3579 214.13 35.2807 214.073 35.214C214.016 35.1474 213.946 35.0927 213.867 35.0529C213.789 35.0132 213.703 34.9893 213.615 34.9825C212.859 34.9244 212.09 34.8982 211.33 34.9045C211.154 34.9073 210.985 34.9798 210.861 35.106C210.738 35.2322 210.669 35.402 210.671 35.5784C210.672 35.7547 210.744 35.9234 210.869 36.0475C210.995 36.1716 211.165 36.2412 211.342 36.2411ZM217.002 36.8269C217.706 36.9802 218.412 37.1656 219.103 37.3785C219.187 37.4052 219.276 37.415 219.364 37.4074C219.452 37.3997 219.538 37.3747 219.616 37.3339C219.695 37.293 219.764 37.2371 219.821 37.1693C219.877 37.1015 219.92 37.0232 219.946 36.939C219.972 36.8547 219.981 36.7661 219.973 36.6783C219.965 36.5904 219.939 36.5052 219.897 36.4273C219.856 36.3495 219.799 36.2806 219.731 36.2247C219.662 36.1688 219.583 36.127 219.498 36.1016C218.772 35.8778 218.029 35.6826 217.289 35.5213C217.202 35.5024 217.113 35.5006 217.027 35.5159C216.94 35.5313 216.857 35.5636 216.783 35.6109C216.709 35.6583 216.644 35.7198 216.594 35.7919C216.544 35.864 216.508 35.9453 216.489 36.0311C216.47 36.1169 216.469 36.2056 216.484 36.2921C216.5 36.3786 216.532 36.4611 216.58 36.5351C216.628 36.609 216.69 36.6728 216.762 36.7229C216.834 36.7729 216.916 36.8083 217.002 36.8269ZM222.392 38.6466C223.044 38.9514 223.692 39.2882 224.317 39.6474C224.471 39.7327 224.652 39.7543 224.822 39.7075C224.991 39.6607 225.136 39.5492 225.224 39.3972C225.312 39.2452 225.336 39.0649 225.292 38.895C225.247 38.7252 225.138 38.5796 224.987 38.4897C224.329 38.1115 223.647 37.7572 222.96 37.4363C222.799 37.3611 222.615 37.3527 222.447 37.413C222.28 37.4733 222.144 37.5974 222.068 37.7579C221.993 37.9184 221.985 38.1022 222.045 38.2688C222.106 38.4355 222.23 38.5714 222.391 38.6466H222.392ZM237.5 58.3683C237.587 58.3552 237.671 58.3251 237.746 58.2798C237.822 58.2345 237.887 58.1749 237.94 58.1042C237.992 58.0336 238.03 57.9534 238.051 57.8683C238.072 57.7831 238.076 57.6946 238.063 57.6078C237.95 56.8602 237.802 56.1074 237.624 55.3705C237.583 55.1982 237.474 55.0494 237.323 54.9569C237.171 54.8643 236.989 54.8356 236.816 54.877C236.643 54.9184 236.494 55.0266 236.401 55.1777C236.308 55.3289 236.279 55.5106 236.321 55.6829C236.49 56.3826 236.629 57.097 236.737 57.8073C236.75 57.8941 236.78 57.9775 236.826 58.0527C236.871 58.1279 236.931 58.1934 237.002 58.2455C237.073 58.2976 237.153 58.3353 237.239 58.3564C237.324 58.3774 237.413 58.3815 237.5 58.3683ZM227.239 41.61C227.807 42.0518 228.363 42.5235 228.891 43.0125C228.956 43.0722 229.031 43.1186 229.114 43.1492C229.196 43.1798 229.284 43.1938 229.372 43.1906C229.46 43.1873 229.547 43.1668 229.627 43.1303C229.707 43.0937 229.779 43.0418 229.839 42.9775C229.899 42.9132 229.945 42.8378 229.976 42.7555C230.006 42.6732 230.021 42.5858 230.017 42.4981C230.014 42.4104 229.993 42.3242 229.957 42.2444C229.92 42.1646 229.868 42.0928 229.804 42.0331C229.248 41.5184 228.662 41.0215 228.064 40.5563C227.924 40.4473 227.746 40.3983 227.569 40.4201C227.393 40.4418 227.232 40.5326 227.123 40.6724C227.014 40.8121 226.964 40.9895 226.986 41.1654C227.008 41.3413 227.099 41.5013 227.239 41.6103V41.61ZM236.129 52.707C236.294 52.6419 236.427 52.5141 236.497 52.3515C236.568 52.189 236.571 52.005 236.506 51.8401C236.228 51.1369 235.916 50.4363 235.578 49.7578C235.539 49.6791 235.485 49.609 235.418 49.5513C235.352 49.4935 235.275 49.4494 235.192 49.4214C235.108 49.3934 235.02 49.382 234.932 49.3879C234.844 49.3939 234.759 49.417 234.68 49.456C234.601 49.495 234.53 49.5491 234.473 49.6152C234.415 49.6813 234.37 49.7582 234.342 49.8413C234.314 49.9245 234.303 50.0124 234.309 50.0999C234.315 50.1875 234.338 50.273 234.377 50.3516C234.698 50.9964 234.995 51.6622 235.259 52.3306C235.324 52.4954 235.453 52.6276 235.616 52.6982C235.779 52.7687 235.963 52.7719 236.129 52.707ZM231.3 45.5783C231.754 46.1354 232.19 46.7193 232.596 47.3142C232.695 47.4602 232.848 47.5613 233.022 47.5954C233.195 47.6295 233.375 47.5939 233.522 47.4964C233.67 47.3988 233.772 47.2472 233.808 47.0745C233.844 46.9019 233.809 46.7222 233.713 46.5746C233.71 46.5706 233.708 46.5666 233.705 46.5628C233.278 45.9364 232.818 45.3216 232.34 44.7352C232.232 44.6027 232.077 44.5166 231.907 44.4946C231.737 44.4726 231.565 44.5163 231.426 44.6168C231.288 44.7174 231.193 44.867 231.161 45.035C231.13 45.203 231.164 45.3767 231.258 45.5202C231.271 45.54 231.285 45.5595 231.3 45.5783H231.3Z" fill="url(#paint7_linear)"/>
<path opacity="0.3" d="M237.116 62.7556C237.041 62.6415 237.004 62.5073 237.008 62.3712C237.019 62.0268 237.023 61.6765 237.02 61.3298C237.018 61.2417 237.034 61.1541 237.067 61.0722C237.1 60.9903 237.148 60.9157 237.21 60.8526C237.272 60.7895 237.345 60.7392 237.427 60.7046C237.508 60.6699 237.595 60.6517 237.684 60.6509C237.772 60.6501 237.86 60.6667 237.942 60.6999C238.024 60.733 238.098 60.7819 238.161 60.8439C238.224 60.9059 238.274 60.9796 238.308 61.0609C238.342 61.1422 238.36 61.2294 238.36 61.3176C238.364 61.6822 238.36 62.0506 238.348 62.413C238.344 62.5553 238.294 62.6924 238.206 62.8044C238.117 62.9163 237.996 62.9974 237.858 63.0356C237.721 63.0738 237.574 63.0673 237.441 63.0169C237.307 62.9665 237.193 62.875 237.116 62.7555V62.7556Z" fill="url(#paint8_linear)"/>
</g>
<g opacity="0.3">
<path opacity="0.3" d="M228.548 81.2521C228.462 81.1189 228.425 80.9592 228.446 80.8018C228.467 80.6444 228.543 80.4994 228.661 80.3929C228.917 80.162 229.173 79.9217 229.421 79.6788C229.548 79.5546 229.719 79.4857 229.897 79.4873C230.075 79.4889 230.245 79.5609 230.369 79.6873C230.494 79.8138 230.563 79.9844 230.561 80.1616C230.56 80.3388 230.488 80.5082 230.361 80.6323C230.1 80.8879 229.83 81.1411 229.56 81.3843C229.488 81.4493 229.403 81.498 229.311 81.5269C229.218 81.5558 229.12 81.5643 229.024 81.5518C228.927 81.5392 228.835 81.506 228.753 81.4543C228.671 81.4027 228.601 81.3338 228.548 81.2526V81.2521Z" fill="url(#paint9_linear)"/>
<path opacity="0.3" d="M189.891 77.2497C189.942 77.3209 190.008 77.3812 190.082 77.4273C190.157 77.4733 190.241 77.5043 190.328 77.5183C190.415 77.5322 190.503 77.529 190.589 77.5088C190.675 77.4886 190.756 77.4517 190.827 77.4003C190.898 77.349 190.959 77.2841 191.005 77.2094C191.051 77.1347 191.082 77.0517 191.096 76.965C191.11 76.8784 191.107 76.7899 191.087 76.7045C191.066 76.6191 191.03 76.5385 190.978 76.4673C190.565 75.8977 190.171 75.3016 189.8 74.6891C189.708 74.5389 189.559 74.4313 189.387 74.3897C189.216 74.348 189.034 74.3757 188.883 74.4668C188.731 74.5578 188.622 74.7048 188.579 74.8757C188.536 75.0467 188.562 75.2277 188.652 75.3794C188.812 75.6448 188.977 75.9064 189.145 76.1643C189.385 76.5321 189.636 76.8974 189.891 77.2497ZM187.863 72.4895C187.944 72.4548 188.017 72.4045 188.078 72.3416C188.14 72.2786 188.188 72.2042 188.221 72.1226C188.253 72.0411 188.269 71.9539 188.268 71.8661C188.267 71.7784 188.248 71.6917 188.213 71.6111C187.932 70.9604 187.675 70.291 187.45 69.621C187.423 69.5373 187.379 69.4599 187.321 69.3932C187.263 69.3264 187.193 69.2717 187.114 69.2322C187.035 69.1927 186.949 69.1691 186.861 69.1629C186.773 69.1566 186.684 69.1678 186.6 69.1957C186.517 69.2237 186.439 69.2679 186.373 69.3258C186.306 69.3837 186.252 69.4541 186.212 69.533C186.173 69.612 186.15 69.6979 186.144 69.7858C186.139 69.8737 186.15 69.9618 186.179 70.0452C186.416 70.7504 186.686 71.4553 186.982 72.14C186.997 72.1749 187.015 72.2084 187.036 72.2403C187.122 72.3724 187.252 72.4698 187.404 72.5154C187.555 72.561 187.718 72.5518 187.863 72.4895ZM192.227 80.0493C192.742 80.587 193.287 81.1101 193.848 81.604C193.914 81.6631 193.99 81.7086 194.074 81.7379C194.158 81.7672 194.246 81.7797 194.334 81.7747C194.423 81.7697 194.509 81.7473 194.589 81.7087C194.669 81.6702 194.74 81.6163 194.799 81.5501C194.857 81.484 194.902 81.4069 194.931 81.3233C194.96 81.2398 194.971 81.1514 194.965 81.0633C194.959 80.9752 194.936 80.8891 194.897 80.8101C194.857 80.731 194.803 80.6605 194.736 80.6027C194.203 80.1338 193.686 79.6372 193.197 79.1265C193.073 79 192.905 78.9272 192.728 78.9239C192.551 78.9205 192.381 78.987 192.253 79.1087C192.125 79.2305 192.05 79.3976 192.045 79.5739C192.041 79.7501 192.106 79.9211 192.227 80.0496V80.0493ZM186.042 67.0537C186.128 67.0375 186.211 67.0045 186.285 66.9565C186.358 66.9086 186.422 66.8466 186.471 66.7742C186.521 66.7017 186.556 66.6203 186.574 66.5344C186.592 66.4485 186.593 66.3599 186.577 66.2737C186.446 65.5784 186.344 64.8692 186.272 64.1656C186.263 64.0783 186.237 63.9936 186.195 63.9163C186.154 63.839 186.097 63.7707 186.029 63.7152C185.961 63.6597 185.882 63.6182 185.798 63.5929C185.714 63.5677 185.625 63.5593 185.538 63.5681C185.45 63.5769 185.365 63.6029 185.288 63.6444C185.21 63.686 185.141 63.7424 185.086 63.8104C185.03 63.8784 184.988 63.9566 184.963 64.0406C184.938 64.1247 184.929 64.2129 184.938 64.3002C185.013 65.0409 185.122 65.7877 185.259 66.5198C185.275 66.6061 185.309 66.6883 185.357 66.7619C185.405 66.8354 185.467 66.8988 185.54 66.9483C185.612 66.9979 185.694 67.0327 185.78 67.0507C185.866 67.0687 185.955 67.0696 186.042 67.0533V67.0537ZM196.742 83.8207C197.363 84.2321 198.01 84.6226 198.666 84.9816C198.822 85.0669 199.005 85.0871 199.176 85.0376C199.347 84.9881 199.491 84.873 199.576 84.7177C199.662 84.5624 199.682 84.3796 199.632 84.2094C199.583 84.0392 199.467 83.8957 199.311 83.8104C198.689 83.4693 198.074 83.0984 197.485 82.7078C197.411 82.6581 197.329 82.6234 197.242 82.6057C197.155 82.588 197.066 82.5876 196.979 82.6046C196.892 82.6216 196.809 82.6556 196.735 82.7046C196.662 82.7537 196.598 82.8169 196.549 82.8904C196.5 82.964 196.466 83.0465 196.449 83.1333C196.433 83.22 196.433 83.3092 196.451 83.3957C196.469 83.4822 196.504 83.5644 196.554 83.6373C196.604 83.7103 196.668 83.7726 196.742 83.8207ZM201.978 86.5134C202.676 86.7802 203.393 87.0207 204.109 87.2283C204.194 87.2537 204.283 87.2621 204.371 87.2529C204.459 87.2438 204.545 87.2174 204.622 87.1752C204.7 87.1331 204.769 87.076 204.824 87.0072C204.88 86.9385 204.921 86.8595 204.946 86.7747C204.97 86.69 204.978 86.6012 204.968 86.5135C204.958 86.4259 204.931 86.341 204.888 86.2639C204.845 86.1867 204.787 86.1188 204.718 86.0641C204.648 86.0094 204.569 85.9689 204.484 85.945C203.803 85.7476 203.121 85.5191 202.458 85.2657C202.292 85.2023 202.108 85.2071 201.946 85.2792C201.783 85.3514 201.656 85.4848 201.592 85.6503C201.529 85.8157 201.534 85.9996 201.606 86.1615C201.678 86.3234 201.812 86.45 201.978 86.5134ZM207.679 88.0048C208.418 88.1139 209.171 88.193 209.915 88.24C210.003 88.2463 210.092 88.2352 210.176 88.2071C210.26 88.1791 210.337 88.1348 210.404 88.0768C210.471 88.0187 210.525 87.9481 210.564 87.869C210.603 87.7899 210.626 87.7038 210.632 87.6158C210.638 87.5278 210.626 87.4395 210.597 87.3561C210.568 87.2727 210.523 87.1958 210.464 87.1298C210.405 87.0638 210.334 87.0101 210.254 86.9718C210.175 86.9334 210.088 86.9111 210 86.9063C209.293 86.8616 208.578 86.7864 207.875 86.6827C207.787 86.6693 207.698 86.6732 207.612 86.6943C207.527 86.7153 207.446 86.7531 207.375 86.8054C207.304 86.8576 207.243 86.9235 207.198 86.999C207.152 87.0745 207.122 87.1582 207.109 87.2454C207.096 87.3326 207.101 87.4214 207.123 87.5068C207.144 87.5922 207.183 87.6726 207.235 87.7431C207.288 87.8137 207.355 87.8732 207.431 87.9181C207.507 87.963 207.591 87.9925 207.679 88.0048ZM213.569 88.2212C214.315 88.1664 215.067 88.0791 215.804 87.9618C215.891 87.9479 215.975 87.9172 216.05 87.8712C216.125 87.8253 216.19 87.7651 216.241 87.694C216.293 87.6229 216.33 87.5424 216.351 87.4571C216.371 87.3717 216.374 87.2832 216.361 87.1966C216.347 87.1099 216.316 87.0268 216.27 86.9521C216.224 86.8773 216.163 86.8123 216.092 86.7609C216.021 86.7094 215.94 86.6724 215.854 86.652C215.769 86.6316 215.68 86.6283 215.593 86.6421C214.893 86.7535 214.179 86.8362 213.471 86.8881C213.382 86.8938 213.296 86.9168 213.216 86.956C213.137 86.9952 213.066 87.0496 213.008 87.1162C212.95 87.1828 212.906 87.2602 212.878 87.3439C212.85 87.4277 212.839 87.5161 212.845 87.6042C212.852 87.6922 212.876 87.7781 212.916 87.8568C212.956 87.9356 213.011 88.0057 213.078 88.063C213.146 88.1204 213.224 88.1638 213.308 88.1909C213.392 88.218 213.481 88.2282 213.569 88.2209L213.569 88.2212ZM219.367 87.1408C220.081 86.9241 220.795 86.674 221.489 86.3974C221.654 86.3317 221.786 86.2032 221.856 86.0403C221.926 85.8774 221.928 85.6935 221.862 85.5289C221.796 85.3643 221.667 85.2326 221.504 85.1627C221.341 85.0928 221.156 85.0905 220.991 85.1563C220.332 85.4191 219.654 85.657 218.976 85.8625C218.806 85.9142 218.664 86.0311 218.58 86.1875C218.497 86.3439 218.479 86.527 218.531 86.6965C218.583 86.8661 218.7 87.0081 218.857 87.0914C219.014 87.1747 219.197 87.1925 219.367 87.1408ZM224.78 84.8207C225.258 84.5507 225.734 84.2627 226.194 83.9647C226.361 83.8568 226.526 83.7473 226.689 83.6364C226.762 83.5876 226.825 83.5247 226.874 83.4513C226.923 83.378 226.957 83.2956 226.973 83.2092C226.989 83.1227 226.988 83.0338 226.97 82.9477C226.951 82.8617 226.916 82.7802 226.865 82.708C226.816 82.6355 226.752 82.5735 226.678 82.5254C226.605 82.4773 226.522 82.4442 226.436 82.4279C226.349 82.4116 226.261 82.4124 226.174 82.4303C226.088 82.4482 226.006 82.4829 225.934 82.5324C225.779 82.6378 225.622 82.7418 225.463 82.8445C225.026 83.1279 224.574 83.4016 224.119 83.6583C224.043 83.7016 223.975 83.7594 223.921 83.8286C223.867 83.8978 223.827 83.9769 223.803 84.0614C223.78 84.146 223.773 84.2344 223.784 84.3214C223.795 84.4085 223.823 84.4927 223.866 84.569C223.873 84.5811 223.88 84.5929 223.888 84.6041C223.981 84.7466 224.125 84.8483 224.291 84.8886C224.456 84.9289 224.631 84.9047 224.779 84.8209L224.78 84.8207Z" fill="url(#paint10_linear)"/>
<path opacity="0.3" d="M184.928 61.0306C184.853 60.9154 184.816 60.78 184.821 60.6427C184.834 60.2811 184.855 59.913 184.883 59.5486C184.897 59.3719 184.981 59.2079 185.116 59.0927C185.251 58.9774 185.426 58.9204 185.604 58.9341C185.781 58.9479 185.945 59.0312 186.061 59.1658C186.177 59.3005 186.234 59.4754 186.22 59.6521C186.193 59.9983 186.173 60.3479 186.16 60.6912C186.155 60.8331 186.105 60.9698 186.017 61.0812C185.928 61.1927 185.807 61.2732 185.669 61.311C185.532 61.3488 185.386 61.342 185.253 61.2916C185.119 61.2412 185.006 61.1498 184.928 61.0306Z" fill="url(#paint11_linear)"/>
</g>
<path d="M193.337 53.2212C193.357 53.1593 193.395 53.1052 193.448 53.0663C193.5 53.0274 193.563 53.0057 193.628 53.0043L197.44 52.9207C198.369 51.3765 199.543 49.9935 200.918 48.8261L200.374 45.0662C200.364 45.0018 200.375 44.9362 200.405 44.8784C200.435 44.8207 200.482 44.7736 200.54 44.7439L204.607 42.6574C204.665 42.6276 204.731 42.6166 204.796 42.626C204.86 42.6353 204.92 42.6645 204.967 42.7094L207.72 45.3357C209.472 44.8991 211.284 44.7502 213.084 44.8949L215.368 41.8508C215.407 41.7988 215.461 41.7602 215.524 41.7404C215.586 41.7206 215.652 41.7207 215.714 41.7405L220.07 43.1317C220.132 43.1516 220.187 43.1902 220.226 43.2423C220.265 43.2944 220.287 43.3574 220.288 43.4224L220.372 47.2227C221.921 48.1477 223.308 49.3185 224.479 50.6888L228.251 50.1464C228.316 50.1371 228.382 50.1482 228.44 50.178C228.498 50.2077 228.545 50.2548 228.575 50.3126L230.668 54.3668C230.698 54.4246 230.709 54.4902 230.699 54.5546C230.69 54.6189 230.661 54.6787 230.616 54.7257L227.981 57.4702C228.419 59.2166 228.568 61.0225 228.423 62.8168L231.477 65.0935C231.529 65.1324 231.568 65.1866 231.588 65.2485C231.608 65.3104 231.608 65.377 231.588 65.4389L230.192 69.781C230.172 69.8429 230.133 69.897 230.081 69.9359C230.029 69.9748 229.966 69.9964 229.9 69.9979L226.088 70.0814C225.16 71.6257 223.986 73.0087 222.611 74.1761L223.155 77.936C223.164 78.0004 223.153 78.066 223.123 78.1238C223.093 78.1816 223.046 78.2286 222.988 78.2584L218.921 80.3448C218.863 80.3746 218.797 80.3856 218.733 80.3763C218.668 80.367 218.608 80.3378 218.561 80.2928L215.808 77.6665C214.056 78.1031 212.244 78.252 210.444 78.1074L208.16 81.1514C208.121 81.2035 208.067 81.2421 208.005 81.2619C207.942 81.2816 207.876 81.2816 207.814 81.2617L203.458 79.8704C203.396 79.8506 203.341 79.8119 203.302 79.7598C203.263 79.7078 203.242 79.6448 203.24 79.5799L203.156 75.7795C201.607 74.8544 200.22 73.6837 199.049 72.3134L195.277 72.8558C195.212 72.865 195.146 72.854 195.088 72.8242C195.031 72.7944 194.983 72.7473 194.953 72.6895L192.86 68.6354C192.831 68.5776 192.82 68.5119 192.829 68.4476C192.838 68.3833 192.868 68.3235 192.913 68.2766L195.547 65.532C195.109 63.7856 194.96 61.9797 195.105 60.1853L192.051 57.9088C191.999 57.8698 191.96 57.8156 191.94 57.7537C191.921 57.6918 191.921 57.6252 191.941 57.5633L193.337 53.2212Z" fill="url(#paint12_linear)"/>
<path opacity="0.56" d="M208.315 64.5322C209.103 65.421 210.205 65.9709 211.39 66.0663C212.576 66.1616 213.753 65.7949 214.673 65.0434C215.593 64.2918 216.184 63.2139 216.324 62.0364C216.463 60.8588 216.138 59.6733 215.419 58.7293C214.699 57.7852 213.64 57.156 212.465 56.9742C211.289 56.7923 210.089 57.0718 209.116 57.754C208.143 58.4361 207.474 59.4678 207.248 60.632C207.023 61.7962 207.259 63.0022 207.907 63.9964C208.03 64.1847 208.166 64.3638 208.315 64.5322ZM215.282 61.7214C215.231 62.5328 214.899 63.3014 214.343 63.8963C213.787 64.4911 213.042 64.8754 212.233 64.9836C211.425 65.0919 210.604 64.9174 209.91 64.4899C209.217 64.0624 208.693 63.4083 208.429 62.6392C208.165 61.87 208.176 61.0333 208.462 60.2717C208.747 59.5101 209.288 58.8706 209.993 58.4622C210.699 58.0539 211.524 57.9019 212.329 58.0322C213.134 58.1625 213.869 58.5671 214.408 59.1769C214.524 59.3074 214.629 59.4461 214.725 59.592C215.136 60.2234 215.332 60.9706 215.282 61.722V61.7214Z" fill="white"/>
<path opacity="0.56" d="M202.39 67.6818C202.179 67.358 201.984 67.0238 201.807 66.6804C201.751 66.5716 201.696 66.4618 201.644 66.3512C201.384 65.807 201.169 65.2431 201 64.6648L200.993 64.6412C200.986 64.6189 200.98 64.5967 200.974 64.5742C200.961 64.5303 200.949 64.4871 200.937 64.4435C200.923 64.389 200.926 64.3312 200.946 64.2785C200.966 64.2258 201.002 64.1808 201.05 64.1499C201.085 64.127 201.126 64.1126 201.168 64.1082C201.21 64.1038 201.253 64.1093 201.292 64.1244C201.332 64.1394 201.367 64.1636 201.395 64.1949C201.424 64.2263 201.444 64.2638 201.455 64.3045C202.028 66.425 203.239 68.3195 204.925 69.7332C206.611 71.1469 208.691 72.0118 210.885 72.2116C212.921 72.4003 214.969 72.0033 216.787 71.0678C217.115 70.8993 217.435 70.7143 217.745 70.5134C219.095 69.6348 220.229 68.4653 221.065 67.0913C221.901 65.7174 222.417 64.1739 222.574 62.5747C222.732 60.9756 222.527 59.3616 221.976 57.8517C221.424 56.3418 220.54 54.9747 219.387 53.851C218.235 52.7273 216.844 51.8758 215.318 51.3593C213.792 50.8428 212.168 50.6744 210.568 50.8666C208.968 51.0588 207.431 51.6067 206.071 52.4698C204.712 53.3329 203.564 54.4892 202.712 55.8535C202.675 55.9138 202.615 55.9567 202.545 55.9728C202.476 55.9889 202.403 55.977 202.343 55.9396C202.283 55.9022 202.24 55.8424 202.223 55.7734C202.207 55.7043 202.219 55.6317 202.257 55.5715C203.337 53.8414 204.867 52.4354 206.685 51.5031C212.228 48.6592 219.059 50.8427 221.911 56.3662C223.19 58.8456 223.503 61.7098 222.788 64.4054C222.072 67.1011 220.38 69.4368 218.038 70.9615C217.713 71.1722 217.377 71.3664 217.032 71.5435C214.545 72.8194 211.671 73.1309 208.966 72.4177C206.262 71.7045 203.919 70.0172 202.39 67.682L202.39 67.6818Z" fill="white"/>
<g opacity="0.3">
<path opacity="0.3" d="M167.287 32.229C167.238 32.1543 167.215 32.0658 167.221 31.9768C167.227 31.8879 167.262 31.8032 167.32 31.7356C167.549 31.4696 167.789 31.2069 168.034 30.9549C168.111 30.8793 168.215 30.8367 168.323 30.8362C168.431 30.8357 168.535 30.8774 168.612 30.9523C168.69 31.0273 168.735 31.1296 168.738 31.2373C168.742 31.345 168.702 31.4497 168.629 31.5289C168.396 31.7691 168.167 32.0194 167.949 32.2731C167.907 32.322 167.854 32.3604 167.795 32.3853C167.735 32.4102 167.671 32.421 167.607 32.4167C167.543 32.4124 167.48 32.3933 167.425 32.3607C167.369 32.3282 167.322 32.2831 167.287 32.2292L167.287 32.229Z" fill="url(#paint13_linear)"/>
<path opacity="0.3" d="M169.599 30.0537C169.668 30.1389 169.768 30.1934 169.877 30.2051C169.986 30.2168 170.095 30.1848 170.181 30.1161C170.632 29.754 171.102 29.4149 171.588 29.1001C171.69 29.0339 171.793 28.9687 171.897 28.9045C171.99 28.8467 172.057 28.7544 172.082 28.6478C172.107 28.5413 172.088 28.4292 172.03 28.3362C171.97 28.246 171.877 28.1821 171.772 28.1573C171.666 28.1326 171.554 28.149 171.46 28.2031C171.351 28.2706 171.243 28.3388 171.136 28.4079C170.627 28.738 170.135 29.0936 169.662 29.4734C169.582 29.5374 169.528 29.6286 169.512 29.7295C169.496 29.8303 169.518 29.9335 169.573 30.0193C169.581 30.031 169.59 30.0424 169.599 30.0537ZM173.748 27.91C174.384 27.6164 175.038 27.362 175.706 27.1483C175.808 27.1128 175.892 27.039 175.941 26.9426C175.989 26.8463 175.997 26.7349 175.964 26.6324C175.931 26.5299 175.859 26.4442 175.764 26.3938C175.668 26.3433 175.557 26.332 175.453 26.3623C174.753 26.5863 174.068 26.853 173.4 27.1608C173.351 27.1836 173.307 27.2158 173.27 27.2557C173.233 27.2955 173.204 27.3423 173.185 27.3932C173.167 27.4441 173.158 27.4981 173.16 27.5523C173.163 27.6065 173.175 27.6597 173.198 27.7089C173.207 27.7269 173.216 27.7442 173.227 27.7608C173.282 27.8438 173.364 27.9046 173.46 27.932C173.555 27.9594 173.658 27.9516 173.748 27.91ZM177.745 26.6338C178.434 26.5048 179.131 26.4184 179.832 26.3752C179.94 26.3669 180.041 26.3164 180.112 26.2346C180.184 26.1528 180.22 26.0463 180.213 25.9381C180.206 25.8299 180.157 25.7287 180.076 25.6563C179.995 25.5839 179.889 25.5462 179.78 25.5512C179.046 25.5966 178.315 25.6872 177.592 25.8225C177.486 25.8444 177.392 25.907 177.332 25.9969C177.272 26.0867 177.249 26.1966 177.269 26.3029C177.289 26.4092 177.35 26.5034 177.439 26.5653C177.528 26.6272 177.638 26.6518 177.745 26.6338ZM181.934 26.3756C182.634 26.4189 183.331 26.5052 184.02 26.6338C184.127 26.6519 184.237 26.6274 184.326 26.5655C184.415 26.5036 184.476 26.4094 184.497 26.303C184.517 26.1966 184.494 26.0867 184.433 25.9968C184.373 25.9069 184.279 25.8443 184.173 25.8225C183.45 25.6876 182.719 25.5971 181.985 25.5517C181.877 25.5473 181.771 25.5853 181.691 25.6577C181.611 25.73 181.562 25.8309 181.555 25.9387C181.548 26.0465 181.584 26.1526 181.655 26.2342C181.726 26.3159 181.826 26.3666 181.934 26.3756ZM186.06 27.1448C186.728 27.3566 187.383 27.6089 188.021 27.9001C188.07 27.9245 188.124 27.9387 188.18 27.9419C188.235 27.9451 188.29 27.9372 188.342 27.9187C188.394 27.9002 188.442 27.8715 188.483 27.8342C188.524 27.7969 188.557 27.7519 188.58 27.7017C188.603 27.6516 188.616 27.5973 188.617 27.5422C188.619 27.487 188.61 27.4321 188.59 27.3807C188.57 27.3292 188.54 27.2823 188.501 27.2426C188.463 27.203 188.417 27.1714 188.366 27.1498C187.697 26.8445 187.011 26.58 186.311 26.3578C186.206 26.3247 186.092 26.3343 185.995 26.3847C185.897 26.435 185.824 26.5219 185.791 26.6263C185.757 26.7306 185.767 26.8439 185.817 26.9411C185.868 27.0383 185.955 27.1116 186.06 27.1448ZM189.873 28.8889C190.469 29.256 191.042 29.6596 191.588 30.0973C191.674 30.1636 191.782 30.1937 191.89 30.1811C191.998 30.1685 192.097 30.1142 192.165 30.0298C192.233 29.9455 192.265 29.8379 192.254 29.7302C192.243 29.6224 192.191 29.5233 192.107 29.454C191.534 28.9949 190.933 28.5716 190.308 28.1865C190.215 28.129 190.102 28.1108 189.995 28.1361C189.888 28.1613 189.796 28.2278 189.738 28.321C189.681 28.4142 189.662 28.5264 189.688 28.6329C189.713 28.7395 189.78 28.8317 189.873 28.8892V28.8889ZM193.141 31.5087C193.629 32.011 194.085 32.5428 194.507 33.1012C194.54 33.1445 194.581 33.1809 194.628 33.2084C194.675 33.236 194.727 33.254 194.78 33.2615C194.834 33.269 194.889 33.2659 194.942 33.2523C194.994 33.2387 195.044 33.2149 195.087 33.1823C195.131 33.1496 195.167 33.1088 195.195 33.062C195.222 33.0153 195.241 32.9636 195.248 32.9099C195.256 32.8562 195.253 32.8015 195.239 32.7491C195.225 32.6966 195.201 32.6473 195.169 32.604C194.726 32.0187 194.247 31.4612 193.736 30.9345C193.659 30.8585 193.555 30.8156 193.447 30.815C193.339 30.8144 193.234 30.8561 193.156 30.9312C193.079 31.0064 193.033 31.1089 193.031 31.2169C193.028 31.3248 193.067 31.4296 193.141 31.5087H193.141ZM197.147 36.9458C197.248 36.9031 197.328 36.8221 197.369 36.7207C197.41 36.6193 197.409 36.5057 197.366 36.4049C197.117 35.8187 196.837 35.2461 196.526 34.6895C196.48 34.6047 196.432 34.521 196.384 34.4374C196.329 34.3426 196.238 34.2735 196.132 34.2452C196.026 34.217 195.913 34.2319 195.818 34.2868C195.723 34.3416 195.653 34.4319 195.625 34.5376C195.597 34.6434 195.612 34.7561 195.667 34.8509C195.712 34.9291 195.757 35.008 195.801 35.0889C196.098 35.6202 196.366 36.1669 196.604 36.7266C196.613 36.7491 196.625 36.7707 196.638 36.791C196.691 36.8721 196.771 36.932 196.864 36.9602C196.957 36.9885 197.057 36.9832 197.147 36.9454V36.9458Z" fill="url(#paint14_linear)"/>
</g>
<g opacity="0.3">
<path opacity="0.3" d="M166.037 53.267C166.439 53.8662 166.877 54.4407 167.348 54.9875C167.384 55.029 167.427 55.0631 167.475 55.0878C167.524 55.1126 167.577 55.1275 167.631 55.1317C167.686 55.136 167.741 55.1294 167.793 55.1125C167.844 55.0956 167.892 55.0686 167.934 55.0331C167.975 54.9976 168.009 54.9543 168.034 54.9057C168.058 54.8571 168.073 54.8041 168.077 54.7498C168.081 54.6956 168.074 54.641 168.057 54.5894C168.039 54.5378 168.012 54.4901 167.976 54.4491C167.526 53.9277 167.109 53.3797 166.725 52.8081C166.664 52.7194 166.57 52.6582 166.464 52.6377C166.357 52.6172 166.247 52.6389 166.157 52.6983C166.067 52.7576 166.003 52.8499 165.98 52.9553C165.957 53.0607 165.977 53.1709 166.034 53.2623L166.037 53.267ZM165.499 51.5821C165.597 51.5325 165.671 51.4463 165.705 51.3423C165.739 51.2383 165.731 51.1251 165.681 51.0275C165.369 50.4137 165.094 49.7819 164.858 49.1355C164.82 49.0326 164.743 48.9488 164.644 48.9026C164.544 48.8563 164.43 48.8514 164.327 48.8888C164.224 48.9263 164.14 49.0031 164.093 49.1024C164.047 49.2016 164.042 49.3152 164.08 49.4181C164.327 50.0955 164.615 50.7576 164.942 51.4007C164.967 51.4491 165.001 51.4922 165.042 51.5276C165.083 51.5629 165.131 51.5898 165.183 51.6067C165.235 51.6235 165.289 51.63 165.343 51.6258C165.398 51.6216 165.451 51.6067 165.499 51.5821ZM168.861 56.5374C169.396 57.0222 169.96 57.4744 170.55 57.8914C170.64 57.9547 170.751 57.9799 170.86 57.9615C170.968 57.9431 171.064 57.8825 171.128 57.7932C171.191 57.7039 171.217 57.593 171.198 57.4851C171.18 57.3772 171.119 57.281 171.029 57.2177C170.466 56.8199 169.928 56.3888 169.417 55.9265C169.377 55.8878 169.33 55.8575 169.278 55.8374C169.226 55.8173 169.171 55.8078 169.115 55.8095C169.06 55.8112 169.005 55.8241 168.954 55.8473C168.904 55.8705 168.859 55.9036 168.821 55.9447C168.784 55.9857 168.755 56.0338 168.737 56.0862C168.719 56.1385 168.711 56.194 168.715 56.2493C168.718 56.3046 168.733 56.3586 168.758 56.4081C168.783 56.4576 168.818 56.5016 168.86 56.5374H168.861ZM163.96 47.6537C164.067 47.6291 164.16 47.5631 164.218 47.4704C164.277 47.3776 164.296 47.2656 164.271 47.1589C164.116 46.4885 164.002 45.8094 163.93 45.1253C163.926 45.0704 163.911 45.0169 163.885 44.968C163.86 44.9191 163.825 44.8757 163.782 44.8405C163.74 44.8053 163.691 44.7789 163.638 44.7629C163.585 44.7469 163.529 44.7416 163.474 44.7474C163.419 44.7531 163.366 44.7697 163.318 44.7963C163.269 44.8229 163.227 44.8588 163.193 44.902C163.158 44.9453 163.133 44.9949 163.118 45.048C163.104 45.1011 163.1 45.1566 163.107 45.2112C163.182 45.9288 163.301 46.6411 163.464 47.3441C163.489 47.4508 163.555 47.5433 163.648 47.6014C163.741 47.6594 163.853 47.6782 163.96 47.6537ZM172.392 59.0297C173.029 59.3718 173.685 59.6752 174.359 59.9385C174.409 59.9583 174.463 59.9679 174.518 59.9669C174.572 59.9658 174.626 59.9541 174.676 59.9324C174.725 59.9107 174.77 59.8794 174.808 59.8404C174.846 59.8013 174.875 59.7552 174.895 59.7047C174.915 59.6543 174.925 59.6004 174.924 59.5462C174.923 59.492 174.911 59.4385 174.889 59.3888C174.867 59.3391 174.836 59.2942 174.797 59.2566C174.758 59.219 174.711 59.1895 174.661 59.1697C174.019 58.9189 173.392 58.6295 172.785 58.303C172.688 58.251 172.575 58.2394 172.47 58.2708C172.365 58.3022 172.276 58.374 172.224 58.4704C172.172 58.5667 172.16 58.6798 172.192 58.7847C172.223 58.8896 172.295 58.9777 172.392 59.0297ZM176.421 60.6051C177.121 60.7852 177.832 60.9234 178.549 61.0188C178.656 61.0297 178.763 60.9986 178.848 60.9321C178.932 60.8656 178.987 60.7689 179.001 60.6624C179.016 60.556 178.988 60.4483 178.923 60.3621C178.859 60.2759 178.764 60.218 178.658 60.2007C177.974 60.1094 177.296 59.9774 176.628 59.8054C176.522 59.7802 176.411 59.7973 176.318 59.8531C176.225 59.9089 176.157 59.9989 176.13 60.1037C176.103 60.2084 176.118 60.3197 176.173 60.4134C176.227 60.5071 176.316 60.5758 176.421 60.6047V60.6051ZM180.712 61.1735C181.435 61.1814 182.159 61.1455 182.878 61.0661C182.986 61.0528 183.085 60.9976 183.152 60.9123C183.22 60.8271 183.251 60.7188 183.239 60.6109C183.227 60.503 183.173 60.4041 183.088 60.3357C183.004 60.2673 182.895 60.2349 182.787 60.2455C182.101 60.3216 181.411 60.3558 180.721 60.3479C180.611 60.3467 180.506 60.389 180.427 60.4656C180.349 60.5421 180.304 60.6466 180.303 60.7561C180.301 60.8373 180.325 60.9172 180.369 60.9852C180.406 61.0424 180.457 61.0895 180.517 61.1224C180.577 61.1553 180.644 61.1728 180.712 61.1735H180.712Z" fill="url(#paint15_linear)"/>
<path opacity="0.3" d="M163.079 43.2638C163.034 43.1947 163.011 43.1138 163.013 43.0315C163.019 42.6782 163.037 42.3237 163.064 41.9774C163.067 41.9229 163.081 41.8696 163.106 41.8206C163.13 41.7717 163.164 41.728 163.206 41.6922C163.247 41.6564 163.295 41.6292 163.347 41.6121C163.399 41.5949 163.454 41.5883 163.509 41.5925C163.564 41.5968 163.617 41.6118 163.666 41.6367C163.714 41.6616 163.758 41.696 163.793 41.7377C163.829 41.7795 163.855 41.8278 163.872 41.8799C163.888 41.9321 163.894 41.9869 163.889 42.0414C163.863 42.3715 163.847 42.7099 163.841 43.0469C163.839 43.1352 163.809 43.2207 163.755 43.2907C163.701 43.3607 163.626 43.4116 163.541 43.4359C163.455 43.4602 163.365 43.4566 163.282 43.4256C163.199 43.3946 163.128 43.3379 163.079 43.2638Z" fill="url(#paint16_linear)"/>
</g>
<path d="M168.686 37.7405C168.699 37.6991 168.725 37.6629 168.76 37.6368C168.795 37.6108 168.837 37.5963 168.881 37.5953L171.432 37.5394C172.053 36.5061 172.839 35.5806 173.759 34.7994L173.395 32.2835C173.388 32.2405 173.396 32.1965 173.416 32.1579C173.436 32.1192 173.468 32.0877 173.506 32.0678L176.228 30.6716C176.267 30.6518 176.311 30.6445 176.354 30.6508C176.397 30.6571 176.437 30.6766 176.469 30.7068L178.311 32.4644C179.483 32.1722 180.696 32.0725 181.9 32.1693L183.428 30.1324C183.454 30.0976 183.491 30.0717 183.532 30.0585C183.574 30.0453 183.619 30.0453 183.66 30.0585L186.575 30.9896C186.616 31.0029 186.653 31.0288 186.679 31.0636C186.705 31.0985 186.719 31.1406 186.72 31.1841L186.776 33.727C187.813 34.3461 188.742 35.1295 189.525 36.0464L192.049 35.6836C192.092 35.6773 192.136 35.6847 192.175 35.7046C192.214 35.7245 192.246 35.756 192.266 35.7947L193.667 38.5076C193.686 38.5463 193.694 38.5902 193.687 38.6333C193.681 38.6763 193.661 38.7163 193.631 38.7477L191.868 40.5843C192.161 41.7529 192.261 42.9613 192.164 44.162L194.208 45.6854C194.242 45.7115 194.268 45.7477 194.282 45.7892C194.295 45.8306 194.295 45.8751 194.282 45.9165L193.348 48.8221C193.334 48.8635 193.308 48.8997 193.273 48.9258C193.238 48.9518 193.196 48.9663 193.153 48.9672L190.601 49.0231C189.98 50.0565 189.195 50.982 188.275 51.7631L188.639 54.2791C188.645 54.3221 188.638 54.366 188.618 54.4047C188.598 54.4433 188.566 54.4748 188.527 54.4947L185.805 55.8905C185.767 55.9104 185.722 55.9177 185.679 55.9114C185.636 55.9051 185.596 55.8855 185.564 55.8554L183.723 54.0978C182.55 54.39 181.338 54.4896 180.133 54.3927L178.605 56.4297C178.579 56.4646 178.543 56.4904 178.501 56.5036C178.46 56.5169 178.415 56.5169 178.373 56.5036L175.459 55.5725C175.417 55.5593 175.381 55.5334 175.355 55.4986C175.328 55.4637 175.314 55.4216 175.313 55.3782L175.257 52.8351C174.22 52.2162 173.292 51.433 172.508 50.5162L169.984 50.8791C169.941 50.8853 169.897 50.8779 169.858 50.858C169.819 50.8381 169.788 50.8066 169.768 50.7679L168.367 48.0546C168.348 48.0159 168.34 47.972 168.347 47.929C168.353 47.8859 168.373 47.8459 168.403 47.8146L170.166 45.9781C169.873 44.8095 169.773 43.601 169.87 42.4003L167.826 40.8769C167.792 40.8509 167.766 40.8146 167.752 40.7732C167.739 40.7317 167.739 40.6872 167.752 40.6458L168.686 37.7405Z" fill="url(#paint17_linear)"/>
<path opacity="0.56" d="M178.667 45.3455C179.202 45.9491 179.951 46.3226 180.756 46.3874C181.562 46.4523 182.361 46.2034 182.986 45.6931C183.611 45.1829 184.013 44.4509 184.108 43.6512C184.203 42.8514 183.983 42.0461 183.495 41.4044C183.007 40.7628 182.288 40.3348 181.49 40.2104C180.692 40.0861 179.876 40.275 179.215 40.7375C178.553 41.2 178.097 41.9001 177.943 42.6906C177.789 43.4811 177.948 44.3005 178.387 44.9766C178.471 45.1062 178.565 45.2295 178.667 45.3455ZM182.54 45.0035C182.314 45.203 182.049 45.3559 181.763 45.4536C181.477 45.5513 181.174 45.5919 180.872 45.573C180.57 45.5541 180.275 45.476 180.004 45.3434C179.732 45.2107 179.489 45.026 179.289 44.7998C178.885 44.343 178.679 43.7448 178.718 43.1369C178.756 42.529 179.035 41.9612 179.493 41.5584C179.952 41.1555 180.552 40.9507 181.162 40.9889C181.771 41.0271 182.341 41.3052 182.745 41.7621C182.82 41.8466 182.888 41.9364 182.95 42.0307C183.25 42.493 183.373 43.0473 183.298 43.5928C183.223 44.1383 182.954 44.6389 182.54 45.0035Z" fill="white"/>
<path opacity="0.56" d="M174.543 47.5374C174.4 47.3184 174.268 47.0905 174.145 46.8536C173.902 46.3829 173.707 45.8888 173.564 45.379L173.546 45.3103C173.53 45.2574 173.525 45.2019 173.531 45.147C173.537 45.0921 173.554 45.039 173.581 44.9907C173.607 44.9425 173.644 44.9001 173.687 44.8662C173.731 44.8322 173.781 44.8073 173.835 44.7929C173.888 44.7786 173.944 44.7751 173.999 44.7826C174.054 44.7901 174.106 44.8086 174.154 44.8368C174.202 44.865 174.243 44.9025 174.276 44.9469C174.309 44.9914 174.332 45.042 174.345 45.0957C174.474 45.5733 174.654 46.0358 174.881 46.4754C174.894 46.4996 174.907 46.5237 174.919 46.5475C175.457 47.5678 176.242 48.4372 177.205 49.076C177.728 49.4229 178.296 49.6981 178.893 49.8941L178.908 49.8989C178.923 49.9038 178.938 49.9088 178.953 49.9134C179.824 50.1943 180.743 50.3001 181.656 50.2248C182.568 50.1494 183.457 49.8943 184.27 49.4743C184.483 49.3652 184.69 49.2455 184.891 49.1155C185.765 48.5467 186.499 47.7897 187.04 46.9002C187.581 46.0107 187.915 45.0115 188.017 43.9763C188.119 42.941 187.987 41.8962 187.63 40.9187C187.273 39.9413 186.7 39.0562 185.954 38.3287C185.208 37.6013 184.308 37.05 183.32 36.7156C182.332 36.3812 181.281 36.2721 180.245 36.3965C179.209 36.5209 178.214 36.8755 177.334 37.4342C176.454 37.9929 175.71 38.7414 175.159 39.6246C175.127 39.6762 175.084 39.72 175.033 39.753C174.954 39.804 174.86 39.8267 174.766 39.8173C174.673 39.8079 174.585 39.7671 174.518 39.7014C174.451 39.6358 174.408 39.5493 174.397 39.4562C174.385 39.3631 174.406 39.2689 174.456 39.1891C175.072 38.2009 175.904 37.3633 176.889 36.7381C177.873 36.1129 178.986 35.7161 180.145 35.5768C181.305 35.4376 182.48 35.5595 183.586 35.9336C184.691 36.3077 185.699 36.9245 186.533 37.7384C187.368 38.5522 188.009 39.5425 188.408 40.6361C188.807 41.7297 188.956 42.8987 188.841 44.057C188.727 45.2153 188.354 46.3332 187.748 47.3283C187.143 48.3235 186.321 49.1705 185.343 49.8068C185.119 49.9522 184.887 50.0861 184.649 50.2082C182.932 51.0869 180.948 51.3002 179.082 50.8069C177.216 50.3137 175.599 49.149 174.543 47.5374Z" fill="white"/>
<path d="M83.4323 75.5554L95.4727 87.833L81.0298 83.9871L83.4323 75.5554Z" fill="url(#paint18_linear)"/>
<path d="M11.7888 80.6374L80.204 83.9472C80.6204 83.9674 81.0366 83.903 81.4273 83.7581C81.818 83.6131 82.1751 83.3906 82.477 83.1039C82.7788 82.8173 83.0192 82.4725 83.1834 82.0905C83.3476 81.7086 83.4323 81.2973 83.4323 80.8818V52.8242C83.4323 51.3573 82.8595 49.9481 81.8352 48.8949C80.8108 47.8418 79.4155 47.2275 77.9447 47.1821L16.2849 45.2803C14.0799 45.2803 11.9652 46.1535 10.406 47.7077C8.84682 49.262 7.97089 51.37 7.97089 53.5681V76.6427C7.97097 77.6699 8.36747 78.6576 9.07825 79.4013C9.78903 80.145 10.7596 80.5876 11.7888 80.6374Z" fill="url(#paint19_linear)"/>
<path opacity="0.85" d="M78.1579 82.8203C79.2787 82.8185 80.353 82.3734 81.1449 81.5828C81.9368 80.7922 82.3816 79.7206 82.3816 78.6034V53.3161C82.3816 50.3359 79.9849 47.9293 76.9245 47.8373L17.2242 46.0398C12.6993 46.0398 9.02158 49.619 9.02158 54.0184V75.8202C9.02158 77.9181 10.7074 79.6411 12.8595 79.7426L77.9515 82.8156C78.0204 82.8187 78.0893 82.8203 78.1579 82.8203ZM17.2197 46.3355L76.9155 48.1326C79.8145 48.2198 82.0849 50.4965 82.0849 53.3157V78.6038C82.0849 79.1344 81.9769 79.6594 81.7675 80.1471C81.558 80.6348 81.2514 81.0751 80.8662 81.4412C80.4811 81.8074 80.0254 82.0919 79.5268 82.2774C79.0282 82.4629 78.4969 82.5455 77.9653 82.5204L12.8734 79.4474L12.8665 79.5951L12.8734 79.4474C10.8798 79.3533 9.31817 77.7602 9.31817 75.8205V54.0188C9.31817 49.782 12.8625 46.3355 17.2197 46.3355Z" fill="white"/>
<path opacity="0.94" d="M17.4192 51.4508L72.125 53.4917C72.6625 53.5117 73.0855 53.8667 73.0673 54.2822L73.0467 54.7616C73.0291 55.1731 72.5861 55.4893 72.0545 55.4699L17.3466 53.4789C16.8091 53.4594 16.3853 53.1043 16.4032 52.6884L16.4258 52.1594C16.4436 51.7474 16.8871 51.431 17.4192 51.4508Z" fill="white"/>
<path opacity="0.94" d="M22.3147 65.2567L77.021 67.2872C77.5585 67.3072 77.9807 67.6742 77.9622 68.1049L77.9408 68.6014C77.9226 69.0276 77.4791 69.3558 76.9475 69.3366L22.239 67.3573C21.7015 67.3379 21.2785 66.9708 21.2968 66.5396L21.3203 65.9918C21.3385 65.5653 21.7826 65.2369 22.3147 65.2567Z" fill="white"/>
<path opacity="0.94" d="M15.9234 71.0321L76.9092 73.3273C77.5084 73.3499 77.9805 73.7226 77.9618 74.1574L77.9403 74.6588C77.9218 75.0892 77.4292 75.4186 76.8365 75.3966L15.8485 73.1534C15.2494 73.1314 14.7759 72.7582 14.7946 72.3233L14.8184 71.7699C14.8368 71.3393 15.3304 71.0097 15.9234 71.0321Z" fill="white"/>
<path opacity="0.94" d="M47.4128 59.5905L77.2303 60.4572C77.5231 60.4659 77.7421 60.8663 77.7181 61.3498L77.6906 61.907C77.6669 62.3853 77.4141 62.7648 77.1243 62.757L47.3039 61.9479C47.0109 61.9399 46.7916 61.5391 46.8156 61.0553L46.846 60.4405C46.8698 59.9616 47.1229 59.582 47.4128 59.5905Z" fill="white"/>
<path opacity="0.94" d="M14.5585 58.5631L42.7415 59.3685C43.0182 59.3764 43.2239 59.7765 43.1997 60.2599L43.172 60.8172C43.1481 61.2955 42.9076 61.6754 42.6345 61.6682L14.4486 60.9205C14.1715 60.9131 13.9655 60.5128 13.9897 60.029L14.0203 59.4142C14.0439 58.9353 14.2844 58.5552 14.5585 58.5631Z" fill="white"/>
<path d="M187.314 235.39C187.314 235.39 187.877 238.572 188.154 241.723C188.179 242.015 188.144 242.309 188.051 242.587C187.959 242.866 187.811 243.122 187.616 243.342C187.422 243.562 187.185 243.74 186.919 243.866C186.653 243.992 186.365 244.063 186.071 244.074C181.863 244.249 172.861 244.589 169.63 244.445C169.518 244.44 169.408 244.407 169.31 244.351C169.212 244.295 169.13 244.216 169.069 244.121C169.008 244.027 168.97 243.919 168.959 243.807C168.949 243.695 168.965 243.582 169.007 243.478C169.157 243.1 169.448 242.795 169.818 242.626L184.688 235.813L187.314 235.39Z" fill="url(#paint20_linear)"/>
<path d="M187.776 233.519L187.322 237.326C187.322 237.326 184.718 238.535 182.939 237.174L184.017 232.931L187.776 233.519Z" fill="url(#paint21_linear)"/>
<path d="M187.436 161.955C187.631 162.949 188.486 211.561 183.273 233.345C183.231 233.517 183.251 233.698 183.331 233.856C183.411 234.014 183.545 234.138 183.708 234.206C185.065 234.729 186.5 235.019 187.954 235.066C188.237 235.075 188.515 234.99 188.744 234.825C188.974 234.659 189.141 234.422 189.221 234.152C190.711 229.097 197.851 203.773 198.783 179.582C199.823 152.551 198.783 178.662 198.783 178.662L198.172 161.953L187.436 161.955Z" fill="url(#paint22_linear)"/>
<path d="M204.419 237.049C204.419 237.049 205.316 238.656 206.186 242.925C206.223 243.107 206.222 243.294 206.183 243.476C206.143 243.657 206.065 243.828 205.955 243.977C205.845 244.127 205.704 244.252 205.543 244.343C205.381 244.435 205.202 244.492 205.017 244.511C203.627 244.647 201.488 244.822 199.774 244.811C199.587 244.81 199.403 244.77 199.233 244.694C199.063 244.617 198.911 244.506 198.787 244.367C198.664 244.228 198.571 244.064 198.515 243.887C198.459 243.709 198.441 243.522 198.462 243.338C198.652 241.779 199.244 239.223 201.071 237.23L204.419 237.049Z" fill="url(#paint23_linear)"/>
<path d="M205.207 232.153L204.149 237.91C204.149 237.91 203.102 238.686 201.031 238.123L201.536 231.93L205.207 232.153Z" fill="url(#paint24_linear)"/>
<path d="M208.067 163.447C212.331 189.095 207.142 226.838 205.393 234.225C205.341 234.446 205.225 234.648 205.059 234.803C204.893 234.959 204.684 235.062 204.46 235.1C203.679 235.229 202.393 235.334 201.125 234.967C200.912 234.905 200.724 234.778 200.587 234.603C200.45 234.429 200.372 234.216 200.363 233.995C200.129 228.023 200.551 191.358 196.579 176.868C196.378 176.134 195.927 175.492 195.305 175.052L187.595 169.588L187.004 160.756L208.067 163.447Z" fill="url(#paint25_linear)"/>
<path d="M180.901 114.848C193.678 114.637 207.775 118.192 207.775 118.192C211.583 140.344 208.441 165.894 208.441 165.894C198.55 168.48 187.392 164.313 187.392 164.313C185.748 155.054 178.078 128.997 178.078 128.997C171.835 128.225 166.693 126.429 162.458 124.056C165.688 120.323 167.211 115.574 167.872 112.766C172.39 114.166 176.96 114.913 180.901 114.848Z" fill="url(#paint26_linear)"/>
<path d="M143.162 96.0886C144.417 94.5778 146.006 95.2924 146.006 95.2924C147.886 103.209 157.744 109.628 167.872 112.766C167.211 115.574 165.688 120.323 162.458 124.056C145.649 114.634 143.162 96.0886 143.162 96.0886Z" fill="url(#paint27_linear)"/>
<path d="M143.467 96.473C143.335 96.8892 144.856 97.523 145.752 95.8209C145.783 95.0051 146.28 91.5102 145.792 90.8457C143.187 87.3059 138.138 82.8694 138.138 82.8694C137.284 83.7087 137.987 84.5333 137.987 84.5333L140.437 87.0769C139.925 87.9999 139.3 88.7789 139.007 89.8953C138.792 90.7474 138.915 91.6491 139.349 92.4136C139.779 93.1858 140.366 94.1896 140.92 94.9751C141.97 96.4619 143.467 96.473 143.467 96.473Z" fill="url(#paint28_linear)"/>
<path d="M141.508 88.7273L143.741 90.6137L144.441 92.4917L142.451 94.6926C142.451 94.6926 141.782 90.9662 141.285 90.1596C140.787 89.3531 141.045 88.9632 141.508 88.7273Z" fill="url(#paint29_linear)"/>
<path d="M202.874 130.524L207.775 118.192C207.775 118.192 219.709 126.275 221.671 136.523C219.416 136.689 215.313 137.274 211.297 139.295C210.414 134.456 202.874 130.524 202.874 130.524Z" fill="url(#paint30_linear)"/>
<path d="M192.446 142.129C192.446 142.129 205.844 149.677 210.365 143.232C211.304 141.893 211.528 140.563 211.297 139.295C215.313 137.274 219.416 136.689 221.671 136.523C222.263 139.613 221.95 142.899 220.129 146.22C212.21 160.66 190.672 145.422 190.672 145.422L192.446 142.129Z" fill="url(#paint31_linear)"/>
<path d="M194.055 151.678L186.743 126.222C186.703 126.081 186.621 125.955 186.509 125.86C186.397 125.764 186.259 125.705 186.113 125.688C184.788 125.533 180.95 125.101 176.517 124.727C171.177 124.277 164.977 123.912 161.272 124.222C161.15 124.232 161.033 124.271 160.93 124.337C160.827 124.402 160.742 124.491 160.682 124.597C160.621 124.703 160.588 124.821 160.584 124.943C160.581 125.064 160.607 125.185 160.661 125.294C162.768 129.543 171.435 146.828 175.775 152.49C175.845 152.583 175.937 152.658 176.041 152.709C176.146 152.76 176.261 152.786 176.378 152.785L193.344 152.628C193.459 152.627 193.572 152.599 193.675 152.547C193.778 152.496 193.867 152.421 193.936 152.329C194.005 152.237 194.051 152.13 194.072 152.018C194.093 151.905 194.087 151.789 194.055 151.678Z" fill="url(#paint32_linear)"/>
<path d="M175.758 122.52L170.456 121.639C170.392 121.629 170.325 121.635 170.264 121.657C170.202 121.679 170.148 121.717 170.105 121.767C170.062 121.816 170.033 121.876 170.021 121.94C170.008 122.004 170.012 122.071 170.032 122.133L170.557 123.718C170.58 123.785 170.621 123.845 170.676 123.891C170.731 123.936 170.797 123.966 170.868 123.975L175.97 124.654C176.031 124.662 176.093 124.656 176.151 124.634C176.209 124.613 176.261 124.579 176.302 124.533C176.344 124.488 176.373 124.433 176.389 124.373C176.404 124.314 176.405 124.252 176.391 124.192L176.066 122.808C176.049 122.735 176.011 122.669 175.956 122.617C175.901 122.566 175.832 122.532 175.758 122.52Z" fill="url(#paint33_linear)"/>
<path d="M179.728 126.994L179.291 124.726C179.27 124.616 179.213 124.515 179.13 124.439C179.046 124.362 178.94 124.315 178.828 124.304L168.12 123.22C168.036 123.212 167.952 123.224 167.873 123.254C167.795 123.285 167.726 123.334 167.67 123.397C167.615 123.46 167.576 123.535 167.556 123.617C167.536 123.698 167.535 123.783 167.555 123.864L168.236 126.69C168.263 126.8 168.324 126.899 168.411 126.971C168.499 127.043 168.607 127.086 168.721 127.091L179.185 127.617C179.264 127.621 179.344 127.607 179.417 127.575C179.49 127.544 179.556 127.497 179.608 127.437C179.66 127.377 179.698 127.306 179.719 127.229C179.74 127.153 179.743 127.072 179.728 126.994Z" fill="url(#paint34_linear)"/>
<path d="M192.289 145.528C192.289 145.528 193.307 141.353 192.897 139.871C192.486 138.39 191.69 136.485 189.036 136.909C186.383 137.332 183.252 138.446 183.252 138.446C183.252 138.446 183.41 140.376 185.427 139.753L184.176 140.718C184.176 140.718 184.355 142.263 186.059 141.437L184.896 142.717C184.896 142.717 185.627 143.986 186.881 143.172C188.134 142.358 188.734 146.031 192.289 145.528Z" fill="url(#paint35_linear)"/>
<path d="M193.843 104.509L197.908 116.228C197.941 116.322 197.94 116.424 197.904 116.517C197.869 116.61 197.802 116.688 197.715 116.736C196.607 117.347 192.614 119.112 187.803 116.072C187.555 115.917 187.344 115.709 187.185 115.464C187.026 115.218 186.924 114.941 186.885 114.652L185.568 104.509H193.843Z" fill="url(#paint36_linear)"/>
<path d="M184.997 93.6562C184.997 93.6562 180.533 102.033 181.105 105.417C181.677 108.8 187.21 108.557 192.041 105.809L195.417 96.7643L184.997 93.6562Z" fill="url(#paint37_linear)"/>
<path d="M191.828 101.367C191.782 101.347 191.74 101.317 191.707 101.28C191.674 101.242 191.649 101.198 191.634 101.15C191.62 101.101 191.616 101.051 191.624 101.001C191.631 100.951 191.649 100.904 191.677 100.862C192.034 100.317 192.705 99.2062 192.919 98.2334C192.919 98.2334 193.721 97.721 190.876 97.0422C188.031 96.3635 183.789 95.3098 182.897 92.8958C182.027 90.5422 184.312 84.6232 187.957 89.3394C187.989 89.3815 188.03 89.4157 188.077 89.4394C188.125 89.463 188.177 89.4755 188.23 89.4759C188.283 89.4763 188.335 89.4645 188.383 89.4415C188.431 89.4184 188.473 89.3848 188.505 89.3431C189.103 88.568 190.674 86.959 192.854 87.9344C194.895 88.8472 195.125 90.338 195.097 91.0894C195.095 91.141 195.105 91.1925 195.125 91.2399C195.146 91.2873 195.177 91.3295 195.216 91.3632C195.255 91.397 195.302 91.4215 195.352 91.4349C195.402 91.4484 195.454 91.4504 195.505 91.4407C196.537 91.2446 199.013 91.076 200.169 93.6081C201.12 95.6937 200.502 96.8744 199.939 97.4517C199.897 97.4941 199.867 97.5465 199.851 97.6038C199.836 97.6612 199.835 97.7216 199.85 97.7792C199.865 97.8367 199.895 97.8895 199.936 97.9322C199.977 97.975 200.029 98.0063 200.086 98.0232C200.765 98.2301 201.64 98.8034 201.552 100.387C201.431 102.577 198.976 102.384 198.276 102.284C198.22 102.275 198.163 102.281 198.109 102.3C198.055 102.319 198.007 102.35 197.969 102.392C197.37 103.054 194.668 105.862 191.745 106.2C191.686 106.206 191.627 106.198 191.573 106.175C191.519 106.152 191.472 106.116 191.435 106.07C191.398 106.024 191.374 105.97 191.364 105.912C191.354 105.855 191.359 105.795 191.378 105.74L192.643 102.074C192.671 101.992 192.668 101.902 192.633 101.823C192.598 101.743 192.535 101.679 192.455 101.644L191.828 101.367Z" fill="url(#paint38_linear)"/>
<path d="M191.319 101.888C191.319 101.888 194.498 99.7136 194.73 101.544C194.962 103.375 191.868 104.196 190.335 103.513L191.319 101.888Z" fill="url(#paint39_linear)"/>
<defs>
<linearGradient id="paint0_linear" x1="-30.9658" y1="317.033" x2="184.545" y2="48.5329" gradientUnits="userSpaceOnUse">
<stop stop-color="#B37CFF"/>
<stop offset="1" stop-color="#F895E7"/>
</linearGradient>
<linearGradient id="paint1_linear" x1="-239463" y1="167746" x2="-51294.1" y2="253759" gradientUnits="userSpaceOnUse">
<stop stop-color="#B37CFF"/>
<stop offset="1" stop-color="#F895E7"/>
</linearGradient>
<linearGradient id="paint2_linear" x1="-233891" y1="86568.3" x2="-170409" y2="168928" gradientUnits="userSpaceOnUse">
<stop stop-color="#B37CFF"/>
<stop offset="1" stop-color="#F895E7"/>
</linearGradient>
<linearGradient id="paint3_linear" x1="-186.987" y1="-165.598" x2="263.916" y2="219.952" gradientUnits="userSpaceOnUse">
<stop stop-color="#CB236D"/>
<stop offset="1" stop-color="#4C246D"/>
</linearGradient>
<linearGradient id="paint4_linear" x1="233740" y1="-44550.6" x2="9671.75" y2="135114" gradientUnits="userSpaceOnUse">
<stop stop-color="#CB236D"/>
<stop offset="1" stop-color="#4C246D"/>
</linearGradient>
<linearGradient id="paint5_linear" x1="11900.8" y1="427299" x2="828669" y2="-219485" gradientUnits="userSpaceOnUse">
<stop stop-color="#CB236D"/>
<stop offset="1" stop-color="#4C246D"/>
</linearGradient>
<linearGradient id="paint6_linear" x1="39522.3" y1="134133" x2="236198" y2="-74799" gradientUnits="userSpaceOnUse">
<stop stop-color="#CB236D"/>
<stop offset="1" stop-color="#4C246D"/>
</linearGradient>
<linearGradient id="paint7_linear" x1="-67763" y1="-40672.4" x2="-57494.3" y2="-24814.1" gradientUnits="userSpaceOnUse">
<stop stop-color="#B37CFF"/>
<stop offset="1" stop-color="#F895E7"/>
</linearGradient>
<linearGradient id="paint8_linear" x1="-3170" y1="763.144" x2="-3151.39" y2="791.892" gradientUnits="userSpaceOnUse">
<stop stop-color="#B37CFF"/>
<stop offset="1" stop-color="#F895E7"/>
</linearGradient>
<linearGradient id="paint9_linear" x1="-3482.16" y1="204.612" x2="-3462.15" y2="235.52" gradientUnits="userSpaceOnUse">
<stop stop-color="#B37CFF"/>
<stop offset="1" stop-color="#F895E7"/>
</linearGradient>
<linearGradient id="paint10_linear" x1="-69967.4" y1="-28166.8" x2="-59769.6" y2="-12418.1" gradientUnits="userSpaceOnUse">
<stop stop-color="#B37CFF"/>
<stop offset="1" stop-color="#F895E7"/>
</linearGradient>
<linearGradient id="paint11_linear" x1="-4462.22" y1="904.838" x2="-4443.19" y2="934.229" gradientUnits="userSpaceOnUse">
<stop stop-color="#B37CFF"/>
<stop offset="1" stop-color="#F895E7"/>
</linearGradient>
<linearGradient id="paint12_linear" x1="348.253" y1="57683" x2="26658.1" y2="-702.819" gradientUnits="userSpaceOnUse">
<stop stop-color="#B37CFF"/>
<stop offset="1" stop-color="#F895E7"/>
</linearGradient>
<linearGradient id="paint13_linear" x1="-3561.53" y1="-586.247" x2="-3551.34" y2="-570.511" gradientUnits="userSpaceOnUse">
<stop stop-color="#B37CFF"/>
<stop offset="1" stop-color="#F895E7"/>
</linearGradient>
<linearGradient id="paint14_linear" x1="-44849.2" y1="-33584.2" x2="-41180.5" y2="-27918.5" gradientUnits="userSpaceOnUse">
<stop stop-color="#B37CFF"/>
<stop offset="1" stop-color="#F895E7"/>
</linearGradient>
<linearGradient id="paint15_linear" x1="-46012.9" y1="-12687.6" x2="-42989.7" y2="-8018.81" gradientUnits="userSpaceOnUse">
<stop stop-color="#B37CFF"/>
<stop offset="1" stop-color="#F895E7"/>
</linearGradient>
<linearGradient id="paint16_linear" x1="-3481.21" y1="878.618" x2="-3472.19" y2="892.542" gradientUnits="userSpaceOnUse">
<stop stop-color="#B37CFF"/>
<stop offset="1" stop-color="#F895E7"/>
</linearGradient>
<linearGradient id="paint17_linear" x1="5897.56" y1="41134.5" x2="23502.4" y2="2066.58" gradientUnits="userSpaceOnUse">
<stop stop-color="#B37CFF"/>
<stop offset="1" stop-color="#F895E7"/>
</linearGradient>
<linearGradient id="paint18_linear" x1="130.767" y1="156.836" x2="-102.083" y2="-234.079" gradientUnits="userSpaceOnUse">
<stop stop-color="#FDF53F"/>
<stop offset="1" stop-color="#D93C65"/>
</linearGradient>
<linearGradient id="paint19_linear" x1="115715" y1="73532.1" x2="179788" y2="-135711" gradientUnits="userSpaceOnUse">
<stop stop-color="#FDF53F"/>
<stop offset="1" stop-color="#D93C65"/>
</linearGradient>
<linearGradient id="paint20_linear" x1="170.101" y1="230.991" x2="224.367" y2="290.205" gradientUnits="userSpaceOnUse">
<stop stop-color="#2B3582"/>
<stop offset="1" stop-color="#150E42"/>
</linearGradient>
<linearGradient id="paint21_linear" x1="187.776" y1="235.376" x2="182.939" y2="235.376" gradientUnits="userSpaceOnUse">
<stop stop-color="#F9B776"/>
<stop offset="1" stop-color="#F47960"/>
</linearGradient>
<linearGradient id="paint22_linear" x1="117810" y1="136440" x2="95878.6" y2="142943" gradientUnits="userSpaceOnUse">
<stop stop-color="#2B3582"/>
<stop offset="1" stop-color="#150E42"/>
</linearGradient>
<linearGradient id="paint23_linear" x1="55813.5" y1="19615.4" x2="51016.8" y2="24831.4" gradientUnits="userSpaceOnUse">
<stop stop-color="#2B3582"/>
<stop offset="1" stop-color="#150E42"/>
</linearGradient>
<linearGradient id="paint24_linear" x1="29047.9" y1="17323.2" x2="29245.8" y2="17323.2" gradientUnits="userSpaceOnUse">
<stop stop-color="#F9B776"/>
<stop offset="1" stop-color="#F47960"/>
</linearGradient>
<linearGradient id="paint25_linear" x1="165042" y1="133807" x2="136112" y2="145763" gradientUnits="userSpaceOnUse">
<stop stop-color="#2B3582"/>
<stop offset="1" stop-color="#150E42"/>
</linearGradient>
<linearGradient id="paint26_linear" x1="28042.1" y1="79867.8" x2="76059.9" y2="7518.92" gradientUnits="userSpaceOnUse">
<stop stop-color="#FDF53F"/>
<stop offset="1" stop-color="#D93C65"/>
</linearGradient>
<linearGradient id="paint27_linear" x1="-87091.2" y1="26574.6" x2="-83938" y2="34269" gradientUnits="userSpaceOnUse">
<stop stop-color="#F9B776"/>
<stop offset="1" stop-color="#F47960"/>
</linearGradient>
<linearGradient id="paint28_linear" x1="-29510.3" y1="13369.6" x2="-27591" y2="16600.3" gradientUnits="userSpaceOnUse">
<stop stop-color="#F9B776"/>
<stop offset="1" stop-color="#F47960"/>
</linearGradient>
<linearGradient id="paint29_linear" x1="-11589.7" y1="6775.81" x2="-12130.6" y2="6149" gradientUnits="userSpaceOnUse">
<stop stop-color="#F9B776"/>
<stop offset="1" stop-color="#F47960"/>
</linearGradient>
<linearGradient id="paint30_linear" x1="8027.65" y1="29165.7" x2="26666.2" y2="562.979" gradientUnits="userSpaceOnUse">
<stop stop-color="#FDF53F"/>
<stop offset="1" stop-color="#D93C65"/>
</linearGradient>
<linearGradient id="paint31_linear" x1="210257" y1="26222.2" x2="221355" y2="26222.2" gradientUnits="userSpaceOnUse">
<stop stop-color="#F9B776"/>
<stop offset="1" stop-color="#F47960"/>
</linearGradient>
<linearGradient id="paint32_linear" x1="-28675.8" y1="34946.5" x2="-24040.7" y2="49712.8" gradientUnits="userSpaceOnUse">
<stop stop-color="#2B3582"/>
<stop offset="1" stop-color="#150E42"/>
</linearGradient>
<linearGradient id="paint33_linear" x1="416.898" y1="760.654" x2="432.433" y2="801.562" gradientUnits="userSpaceOnUse">
<stop stop-color="#53D8FF"/>
<stop offset="1" stop-color="#3840F7"/>
</linearGradient>
<linearGradient id="paint34_linear" x1="55173.6" y1="38205" x2="54857.4" y2="40506" gradientUnits="userSpaceOnUse">
<stop stop-color="#53D8FF"/>
<stop offset="1" stop-color="#3840F7"/>
</linearGradient>
<linearGradient id="paint35_linear" x1="68827.6" y1="14117" x2="69904.7" y2="14117" gradientUnits="userSpaceOnUse">
<stop stop-color="#F9B776"/>
<stop offset="1" stop-color="#F47960"/>
</linearGradient>
<linearGradient id="paint36_linear" x1="86610.4" y1="16851.8" x2="88345.1" y2="16851.8" gradientUnits="userSpaceOnUse">
<stop stop-color="#F9B776"/>
<stop offset="1" stop-color="#F47960"/>
</linearGradient>
<linearGradient id="paint37_linear" x1="-26285.4" y1="34211.2" x2="-24083.4" y2="32860.6" gradientUnits="userSpaceOnUse">
<stop stop-color="#F9B776"/>
<stop offset="1" stop-color="#F47960"/>
</linearGradient>
<linearGradient id="paint38_linear" x1="-29975.1" y1="41178.6" x2="-33689.4" y2="44129.3" gradientUnits="userSpaceOnUse">
<stop stop-color="#2B3582"/>
<stop offset="1" stop-color="#150E42"/>
</linearGradient>
<linearGradient id="paint39_linear" x1="-4895.03" y1="7302.16" x2="-4502.42" y2="7007.84" gradientUnits="userSpaceOnUse">
<stop stop-color="#F9B776"/>
<stop offset="1" stop-color="#F47960"/>
</linearGradient>
</defs>
</svg>
