<svg width="1740" height="495" viewBox="0 0 1740 495" fill="none" xmlns="http://www.w3.org/2000/svg">
<g clip-path="url(#clip0)">
<rect width="1740" height="495" fill="url(#paint0_linear)"/>
<path opacity="0.9" d="M0 189.866C0 189.866 168.906 498.461 309.618 494.839C480.859 490.512 601.074 13.4828 714.369 14.489C877.481 15.8976 1030.04 366.551 1233.71 363.633C1438.6 360.715 1591.16 0 1740 0" stroke="white" stroke-miterlimit="10"/>
<path opacity="0.9" d="M252.71 25C277.186 221.706 473.94 83.4236 541.658 25" stroke="white" stroke-miterlimit="10"/>
<path opacity="0.9" d="M1351 0C1578.37 312.246 1677.91 142.203 1739.92 70.8403" stroke="white" stroke-miterlimit="10"/>
<path d="M2024 492.5C2024 649.625 1896.62 777 1739.5 777C1582.37 777 1455 649.625 1455 492.5C1455 335.375 1582.37 208 1739.5 208C1896.62 208 2024 335.375 2024 492.5ZM1515.7 492.5C1515.7 616.104 1615.9 716.304 1739.5 716.304C1863.1 716.304 1963.3 616.104 1963.3 492.5C1963.3 368.896 1863.1 268.696 1739.5 268.696C1615.9 268.696 1515.7 368.896 1515.7 492.5Z" fill="#F9F9F9" fill-opacity="0.3"/>
<path opacity="0.8" d="M56.9445 467.816C56.5888 467.816 56.2365 467.747 55.9078 467.611C55.5792 467.475 55.2806 467.275 55.0292 467.024C54.7778 466.772 54.5787 466.473 54.4432 466.144C54.3076 465.816 54.2384 465.463 54.2395 465.108C54.2394 464.753 54.3095 464.401 54.4455 464.073C54.5815 463.745 54.7808 463.447 55.032 463.197C55.2833 462.946 55.5815 462.747 55.9097 462.612C56.2378 462.476 56.5895 462.407 56.9445 462.408C57.6599 462.41 58.3454 462.695 58.8513 463.201C59.3572 463.707 59.6423 464.392 59.6444 465.108C59.6431 465.824 59.3585 466.511 58.8527 467.018C58.3468 467.525 57.6609 467.812 56.9445 467.816ZM56.9445 481.585C56.2281 481.584 55.5411 481.3 55.0341 480.793C54.5271 480.287 54.2413 479.601 54.2395 478.885C54.2393 478.529 54.3092 478.177 54.4451 477.849C54.5809 477.521 54.7801 477.222 55.0313 476.971C55.2825 476.719 55.5807 476.52 55.909 476.384C56.2372 476.248 56.5891 476.178 56.9445 476.178C57.6618 476.18 58.3493 476.466 58.8566 476.973C59.364 477.48 59.6501 478.167 59.6525 478.885C59.6472 479.6 59.3599 480.285 58.853 480.791C58.3461 481.296 57.6603 481.581 56.9445 481.585ZM56.9445 495.356C56.5895 495.356 56.2378 495.287 55.9097 495.151C55.5815 495.016 55.2833 494.817 55.032 494.567C54.7808 494.316 54.5815 494.018 54.4455 493.69C54.3095 493.362 54.2394 493.011 54.2395 492.656C54.2393 492.3 54.3093 491.948 54.4453 491.619C54.5813 491.29 54.7808 490.992 55.0323 490.74C55.2837 490.489 55.5823 490.289 55.9109 490.153C56.2395 490.017 56.5918 489.947 56.9475 489.947C57.6632 489.951 58.3483 490.238 58.8538 490.744C59.3594 491.251 59.6446 491.937 59.6475 492.653C59.6467 493.369 59.3616 494.056 58.8549 494.563C58.3481 495.07 57.6611 495.355 56.9445 495.356ZM56.9445 509.122C56.5892 509.123 56.2373 509.054 55.9088 508.918C55.5803 508.783 55.2817 508.584 55.0301 508.334C54.7785 508.083 54.5789 507.785 54.4427 507.457C54.3066 507.129 54.2365 506.777 54.2365 506.422C54.2365 506.067 54.3065 505.715 54.4425 505.387C54.5785 505.059 54.7778 504.761 55.029 504.511C55.2803 504.26 55.5785 504.061 55.9067 503.926C56.2348 503.79 56.5865 503.721 56.9415 503.722C57.6577 503.724 58.3437 504.011 58.8496 504.518C59.3554 505.025 59.6401 505.711 59.6415 506.428C59.6399 507.142 59.3555 507.826 58.8507 508.331C58.3458 508.836 57.6615 509.12 56.9475 509.122H56.9445ZM56.9445 522.896C56.5899 522.897 56.2386 522.829 55.9105 522.694C55.5825 522.56 55.2842 522.362 55.0329 522.112C54.7815 521.862 54.5821 521.565 54.4459 521.237C54.3097 520.91 54.2396 520.559 54.2395 520.205C54.2376 519.848 54.3064 519.495 54.4418 519.166C54.5772 518.837 54.7766 518.537 55.0285 518.286C55.2803 518.034 55.5796 517.834 55.909 517.699C56.2383 517.563 56.5913 517.495 56.9475 517.497C57.3024 517.497 57.6539 517.567 57.9819 517.703C58.3098 517.839 58.6076 518.038 58.8584 518.289C59.1092 518.54 59.308 518.839 59.4434 519.167C59.5788 519.495 59.6481 519.847 59.6475 520.202C59.6459 520.917 59.3603 521.603 58.8535 522.108C58.3466 522.613 57.66 522.896 56.9445 522.896ZM56.9445 536.677C56.5892 536.678 56.2373 536.609 55.9088 536.473C55.5803 536.338 55.2817 536.139 55.0301 535.889C54.7785 535.638 54.5789 535.34 54.4427 535.012C54.3066 534.684 54.2365 534.332 54.2365 533.977C54.2365 533.622 54.3065 533.27 54.4425 532.942C54.5785 532.614 54.7778 532.316 55.029 532.066C55.2803 531.815 55.5785 531.616 55.9067 531.481C56.2348 531.345 56.5865 531.276 56.9415 531.277C57.2966 531.277 57.6483 531.347 57.9763 531.483C58.3044 531.619 58.6023 531.818 58.8531 532.07C59.1039 532.321 59.3027 532.62 59.4379 532.948C59.5732 533.277 59.6424 533.628 59.6415 533.984C59.6362 534.696 59.3507 535.378 58.8466 535.882C58.3424 536.386 57.6602 536.672 56.9475 536.677H56.9445ZM56.9445 550.45C56.228 550.449 55.5409 550.165 55.0338 549.659C54.5267 549.153 54.241 548.466 54.2395 547.75C54.2384 547.394 54.3076 547.042 54.4432 546.713C54.5787 546.384 54.7778 546.085 55.0292 545.833C55.2806 545.582 55.5792 545.382 55.9078 545.246C56.2365 545.111 56.5888 545.041 56.9445 545.042C57.6614 545.043 58.3485 545.329 58.8547 545.837C59.3609 546.345 59.645 547.033 59.6444 547.75C59.6403 548.464 59.3544 549.149 58.849 549.654C58.3436 550.16 57.6592 550.445 56.9445 550.45ZM56.9445 564.217C56.5896 564.218 56.238 564.148 55.91 564.013C55.5819 563.878 55.2838 563.679 55.0329 563.428C54.782 563.177 54.5831 562.879 54.4478 562.551C54.3125 562.223 54.2434 561.871 54.2445 561.517C54.2445 561.161 54.3145 560.81 54.4506 560.482C54.5866 560.154 54.786 559.856 55.0374 559.605C55.2887 559.354 55.5871 559.156 55.9154 559.02C56.2436 558.885 56.5954 558.816 56.9505 558.817C57.6654 558.82 58.35 559.106 58.8556 559.611C59.3611 560.117 59.6468 560.802 59.6505 561.517C59.6505 561.872 59.5804 562.223 59.4444 562.551C59.3083 562.879 59.1089 563.177 58.8575 563.428C58.6062 563.679 58.3078 563.877 57.9795 564.013C57.6513 564.148 57.2995 564.217 56.9445 564.217ZM56.9445 577.987C56.5886 577.988 56.2361 577.918 55.9071 577.783C55.5782 577.647 55.2793 577.448 55.0276 577.196C54.776 576.945 54.5765 576.646 54.4407 576.317C54.305 575.988 54.2355 575.635 54.2365 575.28C54.2365 574.925 54.3065 574.573 54.4425 574.245C54.5785 573.917 54.7778 573.619 55.029 573.369C55.2803 573.118 55.5785 572.919 55.9067 572.784C56.2348 572.648 56.5865 572.579 56.9415 572.58C57.6575 572.582 58.3433 572.869 58.8492 573.375C59.3551 573.882 59.6399 574.568 59.6415 575.285C59.642 576 59.3586 576.686 58.8535 577.193C58.3484 577.7 57.6628 577.985 56.9475 577.987H56.9445ZM56.9445 591.758C56.5892 591.759 56.2373 591.69 55.9088 591.554C55.5803 591.419 55.2817 591.22 55.0301 590.97C54.7785 590.719 54.5789 590.421 54.4427 590.093C54.3066 589.765 54.2365 589.413 54.2365 589.058C54.2373 588.34 54.5228 587.651 55.0305 587.144C55.5382 586.636 56.2266 586.351 56.9445 586.351C57.661 586.355 58.347 586.641 58.8535 587.148C59.36 587.655 59.646 588.341 59.6495 589.058C59.6466 589.773 59.3609 590.458 58.8547 590.964C58.3486 591.47 57.663 591.755 56.9475 591.758H56.9445Z" fill="white"/>
<path opacity="0.8" d="M59.6495 451.343C59.6442 452.058 59.3583 452.742 58.8533 453.248C58.3483 453.755 57.6646 454.042 56.9495 454.05C56.2299 454.042 55.5415 453.755 55.0295 453.25C54.5465 452.729 54.2781 452.045 54.2781 451.335C54.2781 450.624 54.5465 449.94 55.0295 449.42C55.4089 449.041 55.8922 448.783 56.4182 448.679C56.9442 448.575 57.4893 448.629 57.9844 448.835C58.4796 449.04 58.9026 449.388 59.1999 449.835C59.4971 450.281 59.6554 450.805 59.6545 451.342L59.6495 451.343Z" fill="white"/>
<path opacity="0.8" d="M71.3635 467.815C70.6465 467.812 69.9599 467.526 69.4531 467.018C68.9463 466.511 68.6603 465.824 68.6574 465.108C68.6574 464.752 68.7275 464.401 68.8635 464.073C68.9996 463.745 69.199 463.447 69.4504 463.196C69.7017 462.945 70.0001 462.747 70.3284 462.611C70.6566 462.476 71.0084 462.407 71.3635 462.408C71.719 462.407 72.0711 462.476 72.3996 462.612C72.7282 462.748 73.0267 462.947 73.278 463.199C73.5293 463.45 73.7285 463.749 73.8642 464.077C73.9998 464.406 74.0693 464.758 74.0685 465.114C74.0674 465.83 73.782 466.517 73.2748 467.024C72.7677 467.531 72.0803 467.815 71.3635 467.815ZM71.3635 481.586C70.6468 481.583 69.9604 481.297 69.4536 480.79C68.9468 480.283 68.6606 479.597 68.6574 478.881C68.6598 478.163 68.9459 477.476 69.4533 476.969C69.9606 476.461 70.6481 476.176 71.3655 476.174C72.0832 476.174 72.7712 476.46 73.2787 476.967C73.7862 477.475 74.0717 478.163 74.0725 478.881C74.0711 479.598 73.7852 480.286 73.2773 480.793C72.7694 481.3 72.0812 481.585 71.3635 481.586ZM71.3635 495.354C71.0083 495.354 70.6566 495.284 70.3286 495.148C70.0006 495.012 69.7026 494.813 69.4518 494.561C69.201 494.31 69.0022 494.011 68.867 493.683C68.7317 493.355 68.6625 493.003 68.6635 492.648C68.665 491.932 68.95 491.246 69.456 490.74C69.962 490.234 70.6479 489.949 71.3635 489.948C71.719 489.947 72.0711 490.016 72.3996 490.152C72.7282 490.288 73.0267 490.487 73.278 490.739C73.5293 490.99 73.7285 491.289 73.8642 491.617C73.9998 491.946 74.0693 492.298 74.0685 492.654C74.0697 493.009 74.0005 493.361 73.8651 493.689C73.7296 494.017 73.5306 494.316 73.2793 494.567C73.028 494.818 72.7296 495.017 72.4011 495.152C72.0726 495.287 71.7207 495.356 71.3655 495.354H71.3635ZM71.3635 509.122C71.0084 509.122 70.6566 509.053 70.3284 508.918C70.0001 508.782 69.7017 508.584 69.4504 508.333C69.199 508.082 68.9996 507.784 68.8635 507.456C68.7275 507.128 68.6574 506.777 68.6574 506.422C68.6593 505.704 68.945 505.017 69.4521 504.51C69.9591 504.003 70.6464 503.717 71.3635 503.715C71.7184 503.715 72.0701 503.784 72.3982 503.92C72.7264 504.055 73.0246 504.254 73.2759 504.505C73.5271 504.755 73.7265 505.053 73.8625 505.381C73.9985 505.709 74.0685 506.061 74.0685 506.416C74.0709 506.771 74.0025 507.124 73.8674 507.454C73.7324 507.783 73.5332 508.082 73.2816 508.334C73.0299 508.586 72.7308 508.785 72.4015 508.92C72.0722 509.055 71.7194 509.124 71.3635 509.122ZM71.3635 522.907C70.6472 522.905 69.9606 522.62 69.4536 522.115C68.9466 521.609 68.6604 520.923 68.6574 520.207C68.6568 519.851 68.7263 519.499 68.8621 519.17C68.9979 518.842 69.1972 518.543 69.4486 518.292C69.7 518.041 69.9986 517.841 70.3272 517.706C70.6558 517.57 71.008 517.501 71.3635 517.502C71.7189 517.501 72.0709 517.57 72.3994 517.706C72.7279 517.842 73.0263 518.041 73.2776 518.292C73.529 518.544 73.7282 518.842 73.8639 519.171C73.9996 519.499 74.0691 519.851 74.0685 520.207C74.0685 520.561 73.9985 520.913 73.8625 521.241C73.7265 521.569 73.5271 521.867 73.2759 522.117C73.0246 522.368 72.7264 522.567 72.3982 522.702C72.0701 522.838 71.7184 522.907 71.3635 522.907ZM71.3635 536.677C70.6473 536.675 69.9608 536.39 69.4539 535.884C68.9469 535.378 68.6606 534.693 68.6574 533.977C68.6573 533.621 68.7273 533.269 68.8633 532.94C68.9994 532.612 69.1989 532.313 69.4504 532.062C69.7019 531.81 70.0005 531.611 70.3291 531.475C70.6577 531.339 71.0098 531.269 71.3655 531.27C72.0815 531.27 72.7683 531.554 73.2747 532.06C73.781 532.567 74.0655 533.253 74.0655 533.97C74.0664 534.325 73.9971 534.677 73.8617 535.005C73.7263 535.334 73.5274 535.632 73.2764 535.884C73.0254 536.135 72.7272 536.335 72.3989 536.471C72.0707 536.607 71.7188 536.677 71.3635 536.677ZM71.3635 550.45C70.6475 550.447 69.9615 550.162 69.4548 549.656C68.948 549.151 68.6614 548.465 68.6574 547.75C68.6565 547.394 68.726 547.041 68.8617 546.712C68.9975 546.383 69.197 546.085 69.4486 545.833C69.7003 545.581 69.9992 545.382 70.3281 545.246C70.6571 545.111 71.0096 545.041 71.3655 545.043C71.7212 545.042 72.0736 545.111 72.4025 545.247C72.7313 545.382 73.0301 545.582 73.2817 545.833C73.5332 546.085 73.7326 546.384 73.8683 546.712C74.004 547.041 74.0734 547.394 74.0725 547.75C74.0693 548.466 73.7826 549.152 73.275 549.658C72.7674 550.164 72.0801 550.449 71.3635 550.45ZM71.3635 564.217C70.6477 564.214 69.962 563.928 69.4553 563.423C68.9487 562.917 68.6619 562.232 68.6574 561.517C68.6596 560.799 68.9456 560.112 69.453 559.604C69.9604 559.097 70.648 558.811 71.3655 558.81C72.0818 558.811 72.7685 559.095 73.2757 559.601C73.7828 560.107 74.0693 560.793 74.0725 561.51C74.0725 561.865 74.0024 562.217 73.8662 562.546C73.73 562.874 73.5305 563.173 73.2789 563.424C73.0273 563.676 72.7286 563.875 72.4 564.011C72.0713 564.147 71.7191 564.217 71.3635 564.217ZM71.3635 577.987C71.0084 577.987 70.6566 577.918 70.3284 577.783C70.0001 577.647 69.7017 577.449 69.4504 577.198C69.199 576.947 68.9996 576.649 68.8635 576.321C68.7275 575.993 68.6574 575.642 68.6574 575.287C68.6603 574.57 68.9463 573.883 69.4532 573.376C69.96 572.869 70.6466 572.583 71.3635 572.58C72.0813 572.581 72.7694 572.866 73.2771 573.373C73.7849 573.881 74.0709 574.569 74.0725 575.287C74.0725 575.642 74.0023 575.994 73.8661 576.322C73.7298 576.65 73.5301 576.948 73.2785 577.199C73.0268 577.45 72.7281 577.648 72.3995 577.784C72.0709 577.919 71.7188 577.988 71.3635 577.987ZM71.3635 591.76C70.6461 591.758 69.9584 591.473 69.4512 590.966C68.944 590.459 68.6585 589.771 68.6574 589.054C68.6606 588.337 68.9472 587.651 69.4546 587.145C69.962 586.639 70.649 586.355 71.3655 586.354C71.7206 586.353 72.0725 586.422 72.4009 586.557C72.7292 586.692 73.0277 586.891 73.2792 587.142C73.5306 587.393 73.7301 587.691 73.8663 588.019C74.0024 588.347 74.0725 588.698 74.0725 589.054C74.0733 589.409 74.0037 589.762 73.8678 590.091C73.7319 590.42 73.5323 590.718 73.2806 590.97C73.0288 591.221 72.7299 591.42 72.4009 591.556C72.0718 591.692 71.7193 591.761 71.3635 591.76Z" fill="white"/>
<path opacity="0.8" d="M74.0725 451.343C74.0686 452.057 73.7867 452.741 73.2865 453.251C72.7729 453.756 72.0837 454.042 71.3635 454.051C70.6474 454.043 69.9627 453.756 69.4555 453.251C68.9729 452.73 68.7048 452.046 68.7048 451.336C68.7048 450.625 68.9729 449.942 69.4555 449.421C69.9658 448.918 70.6533 448.636 71.3695 448.636C72.0857 448.636 72.7731 448.918 73.2835 449.421C73.7852 449.935 74.068 450.624 74.0725 451.343Z" fill="white"/>
<path opacity="0.8" d="M86.2565 467.815C85.5396 467.813 84.8527 467.527 84.3465 467.02C83.8403 466.512 83.5562 465.824 83.5565 465.107C83.5565 464.391 83.8409 463.704 84.3473 463.198C84.8536 462.692 85.5404 462.407 86.2565 462.407C86.9731 462.407 87.6605 462.692 88.1678 463.198C88.6751 463.704 88.9609 464.391 88.9625 465.107C88.9601 465.824 88.6743 466.512 88.1674 467.019C87.6605 467.526 86.9736 467.812 86.2565 467.815ZM86.2565 481.584C85.9017 481.585 85.5502 481.516 85.2223 481.38C84.8943 481.245 84.5964 481.046 84.3455 480.795C84.0946 480.544 83.8958 480.246 83.7604 479.919C83.625 479.591 83.5557 479.239 83.5565 478.884C83.5559 478.167 83.84 477.48 84.3463 476.972C84.8525 476.465 85.5396 476.179 86.2565 476.177C86.973 476.18 87.6595 476.466 88.1655 476.973C88.6715 477.481 88.9559 478.168 88.9565 478.884C88.9565 479.239 88.8866 479.59 88.7508 479.918C88.6149 480.246 88.4159 480.543 88.165 480.794C87.914 481.045 87.6161 481.244 87.2883 481.379C86.9605 481.515 86.6092 481.585 86.2545 481.584H86.2565ZM86.2565 495.355C85.5404 495.355 84.8536 495.071 84.3473 494.565C83.8409 494.058 83.5565 493.371 83.5565 492.655C83.5557 492.3 83.6249 491.949 83.7603 491.62C83.8956 491.292 84.0944 490.994 84.3452 490.742C84.596 490.491 84.8939 490.292 85.2218 490.155C85.5498 490.019 85.9014 489.949 86.2565 489.949C86.973 489.951 87.6596 490.237 88.1657 490.744C88.6719 491.252 88.9562 491.939 88.9565 492.655C88.9565 493.371 88.672 494.058 88.1657 494.565C87.6593 495.071 86.9726 495.355 86.2565 495.355ZM86.2565 509.125C85.9014 509.125 85.5498 509.055 85.2218 508.919C84.8939 508.783 84.596 508.584 84.3452 508.332C84.0944 508.081 83.8956 507.783 83.7603 507.454C83.6249 507.126 83.5557 506.774 83.5565 506.419C83.5557 506.064 83.6249 505.713 83.7603 505.384C83.8956 505.056 84.0944 504.758 84.3452 504.506C84.596 504.255 84.8939 504.056 85.2218 503.919C85.5498 503.783 85.9014 503.713 86.2565 503.713C86.9733 503.716 87.6601 504.002 88.167 504.509C88.6739 505.016 88.9598 505.702 88.9625 506.419C88.9617 507.137 88.6763 507.825 88.169 508.332C87.6617 508.839 86.9739 509.125 86.2565 509.125ZM86.2565 522.908C85.5404 522.908 84.8536 522.624 84.3473 522.118C83.8409 521.611 83.5565 520.924 83.5565 520.208C83.5549 519.852 83.6235 519.5 83.7584 519.17C83.8933 518.841 84.0918 518.541 84.3426 518.289C84.5933 518.036 84.8914 517.835 85.2198 517.698C85.5482 517.561 85.9005 517.489 86.2565 517.488C86.9755 517.492 87.6639 517.78 88.171 518.29C88.6782 518.799 88.9627 519.489 88.9625 520.208C88.9577 520.924 88.6709 521.609 88.1643 522.114C87.6577 522.62 86.9721 522.905 86.2565 522.908ZM86.2565 536.676C85.5404 536.676 84.8536 536.392 84.3473 535.886C83.8409 535.379 83.5565 534.692 83.5565 533.976C83.5557 533.621 83.6249 533.27 83.7603 532.941C83.8956 532.613 84.0944 532.315 84.3452 532.063C84.596 531.812 84.8939 531.612 85.2218 531.476C85.5498 531.34 85.9014 531.27 86.2565 531.27C86.973 531.271 87.6602 531.555 88.1675 532.061C88.6747 532.567 88.9606 533.254 88.9625 533.97C88.9606 534.688 88.6747 535.375 88.1672 535.882C87.6596 536.39 86.9719 536.675 86.2545 536.676H86.2565ZM86.2565 550.446C85.5404 550.446 84.8536 550.162 84.3473 549.656C83.8409 549.149 83.5565 548.462 83.5565 547.746C83.5554 547.39 83.6248 547.038 83.7606 546.709C83.8963 546.379 84.0958 546.08 84.3476 545.829C84.5994 545.577 84.8985 545.378 85.2276 545.242C85.5567 545.106 85.9095 545.037 86.2655 545.038C86.9811 545.04 87.6669 545.325 88.1729 545.831C88.6789 546.337 88.9639 547.023 88.9655 547.738C88.9626 548.455 88.6761 549.142 88.1685 549.649C87.661 550.156 86.9736 550.441 86.2565 550.442V550.446ZM86.2565 564.218C85.9007 564.219 85.5483 564.15 85.2194 564.015C84.8905 563.879 84.5916 563.68 84.34 563.428C84.0883 563.177 83.8889 562.878 83.753 562.549C83.6172 562.22 83.5477 561.868 83.5485 561.512C83.549 560.795 83.8342 560.107 84.3416 559.599C84.8489 559.092 85.5369 558.806 86.2545 558.805C86.9719 558.807 87.6595 559.093 88.1669 559.6C88.6743 560.107 88.9604 560.795 88.9625 561.512C88.9626 561.868 88.8927 562.22 88.7568 562.548C88.6208 562.876 88.4215 563.175 88.1702 563.426C87.9189 563.677 87.6205 563.877 87.2922 564.013C86.9638 564.149 86.6119 564.218 86.2565 564.218ZM86.2565 577.986C85.9017 577.987 85.5502 577.918 85.2223 577.782C84.8943 577.647 84.5964 577.448 84.3455 577.197C84.0946 576.946 83.8958 576.648 83.7604 576.321C83.625 575.993 83.5557 575.641 83.5565 575.286C83.5558 574.931 83.6252 574.58 83.7606 574.252C83.8959 573.923 84.0947 573.625 84.3455 573.374C84.5963 573.123 84.8942 572.923 85.2221 572.787C85.55 572.651 85.9015 572.581 86.2565 572.581C86.9718 572.584 87.657 572.869 88.1627 573.375C88.6685 573.881 88.9538 574.566 88.9565 575.281C88.9571 575.636 88.8877 575.988 88.7522 576.317C88.6167 576.645 88.4177 576.943 88.1667 577.194C87.9157 577.446 87.6176 577.645 87.2895 577.781C86.9613 577.917 86.6096 577.987 86.2545 577.986H86.2565ZM86.2565 591.756C85.9017 591.757 85.5502 591.688 85.2223 591.552C84.8943 591.417 84.5964 591.218 84.3455 590.967C84.0946 590.716 83.8958 590.418 83.7604 590.091C83.625 589.763 83.5557 589.411 83.5565 589.056C83.5565 588.34 83.8409 587.654 84.3473 587.147C84.8536 586.641 85.5404 586.356 86.2565 586.356C86.9722 586.358 87.6581 586.643 88.1642 587.149C88.6703 587.655 88.9552 588.341 88.9565 589.056C88.9565 589.411 88.8866 589.762 88.7509 590.09C88.6152 590.417 88.4164 590.715 88.1657 590.966C87.9149 591.216 87.6173 591.415 87.2897 591.551C86.9621 591.687 86.611 591.756 86.2565 591.756Z" fill="white"/>
<path opacity="0.8" d="M88.9625 451.343C88.959 452.057 88.6771 452.742 88.1765 453.252C87.6626 453.754 86.9753 454.041 86.2565 454.052C85.5397 454.045 84.8541 453.757 84.3465 453.252C83.9668 452.873 83.7079 452.391 83.6025 451.866C83.4972 451.34 83.5502 450.795 83.7547 450.3C83.9592 449.805 84.3061 449.382 84.7515 449.084C85.1968 448.786 85.7206 448.627 86.2565 448.627C86.975 448.63 87.6629 448.918 88.17 449.427C88.677 449.936 88.9619 450.625 88.9625 451.344V451.343Z" fill="white"/>
<path opacity="0.8" d="M99.7674 467.815C99.0511 467.812 98.3653 467.525 97.8595 467.018C97.3537 466.51 97.069 465.824 97.0674 465.107C97.0674 464.391 97.3519 463.704 97.8583 463.198C98.3646 462.692 99.0514 462.407 99.7674 462.407C100.123 462.407 100.474 462.476 100.803 462.611C101.131 462.746 101.429 462.945 101.681 463.196C101.932 463.447 102.131 463.745 102.267 464.073C102.403 464.401 102.473 464.752 102.473 465.107C102.475 465.463 102.405 465.816 102.27 466.144C102.134 466.473 101.935 466.772 101.683 467.024C101.432 467.275 101.133 467.475 100.804 467.611C100.476 467.747 100.123 467.816 99.7674 467.815ZM99.7674 481.584C99.0518 481.583 98.3658 481.298 97.8597 480.792C97.3537 480.286 97.0688 479.6 97.0674 478.884C97.0677 478.168 97.352 477.48 97.8581 476.973C98.3642 476.466 99.0508 476.179 99.7674 476.177C100.123 476.177 100.475 476.246 100.804 476.382C101.133 476.518 101.432 476.717 101.683 476.968C101.934 477.22 102.134 477.519 102.269 477.848C102.405 478.176 102.474 478.529 102.473 478.884C102.473 479.239 102.403 479.591 102.267 479.919C102.131 480.247 101.932 480.545 101.681 480.796C101.429 481.046 101.131 481.245 100.803 481.381C100.474 481.516 100.123 481.585 99.7674 481.584ZM99.7674 495.357C99.0507 495.355 98.364 495.069 97.8578 494.562C97.3517 494.055 97.0674 493.367 97.0674 492.65C97.069 491.933 97.3549 491.245 97.8625 490.738C98.37 490.231 99.0579 489.945 99.7755 489.944C100.131 489.944 100.482 490.014 100.81 490.15C101.138 490.286 101.436 490.486 101.687 490.737C101.938 490.989 102.136 491.287 102.272 491.615C102.407 491.944 102.476 492.295 102.475 492.65C102.476 493.006 102.407 493.359 102.271 493.688C102.135 494.016 101.936 494.315 101.684 494.567C101.433 494.818 101.134 495.018 100.805 495.153C100.476 495.289 100.123 495.358 99.7674 495.357ZM99.7674 509.125C99.0514 509.125 98.3646 508.841 97.8583 508.335C97.3519 507.828 97.0674 507.141 97.0674 506.425C97.0693 505.708 97.3552 505.02 97.8627 504.513C98.3702 504.006 99.0579 503.72 99.7755 503.718C100.492 503.719 101.179 504.004 101.686 504.51C102.193 505.016 102.479 505.702 102.481 506.418C102.482 506.775 102.413 507.128 102.277 507.457C102.14 507.786 101.94 508.085 101.688 508.337C101.436 508.589 101.136 508.788 100.807 508.923C100.477 509.058 100.124 509.127 99.7674 509.125ZM99.7674 522.908C99.0482 522.906 98.3593 522.619 97.8517 522.109C97.3441 521.6 97.0592 520.91 97.0594 520.19C97.0626 519.474 97.3494 518.789 97.8569 518.284C98.3645 517.779 99.0515 517.496 99.7674 517.496C100.123 517.496 100.474 517.565 100.803 517.7C101.131 517.835 101.429 518.034 101.681 518.285C101.932 518.536 102.131 518.834 102.267 519.162C102.403 519.49 102.473 519.841 102.473 520.196C102.474 520.914 102.19 521.603 101.683 522.112C101.176 522.62 100.488 522.907 99.7704 522.908H99.7674ZM99.7674 536.679C99.0501 536.676 98.363 536.39 97.8558 535.883C97.3486 535.376 97.0623 534.689 97.0594 533.971C97.0613 533.255 97.3461 532.569 97.8519 532.062C98.3576 531.555 99.0433 531.268 99.7594 531.264C100.115 531.264 100.468 531.333 100.797 531.469C101.125 531.605 101.424 531.805 101.676 532.056C101.927 532.308 102.127 532.607 102.263 532.935C102.399 533.264 102.469 533.617 102.468 533.972C102.467 534.688 102.182 535.375 101.677 535.882C101.172 536.389 100.486 536.675 99.7704 536.679H99.7674ZM99.7674 550.446C99.0505 550.445 98.3634 550.159 97.8565 549.652C97.3495 549.145 97.064 548.458 97.0625 547.741C97.0625 547.025 97.3469 546.338 97.8533 545.832C98.3596 545.326 99.0464 545.041 99.7625 545.041C100.118 545.041 100.471 545.11 100.799 545.246C101.128 545.382 101.427 545.581 101.678 545.833C101.93 546.084 102.129 546.383 102.265 546.712C102.4 547.041 102.47 547.394 102.468 547.749C102.467 548.464 102.182 549.149 101.676 549.653C101.17 550.158 100.485 550.442 99.7704 550.442L99.7674 550.446ZM99.7674 564.216C99.0518 564.215 98.366 563.93 97.86 563.424C97.354 562.918 97.069 562.232 97.0674 561.516C97.0706 560.799 97.357 560.112 97.8642 559.605C98.3713 559.098 99.0583 558.812 99.7755 558.809C100.492 558.809 101.178 559.094 101.685 559.6C102.191 560.106 102.475 560.793 102.475 561.509C102.477 561.865 102.409 562.218 102.273 562.548C102.138 562.877 101.939 563.176 101.687 563.428C101.435 563.68 101.135 563.879 100.806 564.015C100.477 564.15 100.124 564.218 99.7674 564.216ZM99.7674 577.986C99.0514 577.986 98.3646 577.702 97.8583 577.196C97.3519 576.689 97.0674 576.002 97.0674 575.286C97.0688 574.569 97.3542 573.882 97.8612 573.375C98.3682 572.868 99.0554 572.583 99.7724 572.581C100.127 572.581 100.479 572.651 100.807 572.787C101.135 572.923 101.433 573.123 101.683 573.374C101.934 573.625 102.133 573.923 102.268 574.252C102.404 574.58 102.473 574.931 102.472 575.286C102.472 575.641 102.402 575.993 102.266 576.321C102.13 576.649 101.931 576.947 101.68 577.197C101.429 577.448 101.13 577.647 100.802 577.782C100.474 577.918 100.122 577.987 99.7674 577.986ZM99.7674 591.756C99.0517 591.758 98.3644 591.476 97.8566 590.972C97.3488 590.467 97.0621 589.782 97.0594 589.066C97.0589 588.348 97.3426 587.66 97.8486 587.15C98.3545 586.641 99.0415 586.353 99.7594 586.348C100.116 586.348 100.469 586.419 100.798 586.556C101.127 586.693 101.426 586.893 101.677 587.146C101.929 587.398 102.128 587.698 102.263 588.028C102.398 588.358 102.467 588.711 102.465 589.067C102.466 589.421 102.396 589.771 102.26 590.098C102.125 590.425 101.926 590.721 101.676 590.971C101.426 591.221 101.128 591.419 100.801 591.554C100.474 591.688 100.124 591.757 99.7704 591.756H99.7674Z" fill="white"/>
<path opacity="0.8" d="M102.473 451.327C102.475 452.045 102.194 452.735 101.69 453.247C101.178 453.753 100.49 454.04 99.7704 454.047C99.0543 454.042 98.3691 453.755 97.8634 453.247C97.3783 452.728 97.1084 452.043 97.1084 451.332C97.1084 450.621 97.3783 449.937 97.8634 449.417C98.2409 449.038 98.7224 448.78 99.2469 448.675C99.7713 448.57 100.315 448.623 100.809 448.828C101.304 449.033 101.726 449.379 102.023 449.824C102.319 450.269 102.477 450.792 102.476 451.327H102.473Z" fill="white"/>
<path opacity="0.8" d="M11.7734 467.815C11.4177 467.815 11.0654 467.746 10.7367 467.609C10.4079 467.473 10.1092 467.274 9.85758 467.023C9.60594 466.771 9.40628 466.473 9.27002 466.144C9.13376 465.815 9.06356 465.463 9.06342 465.107C9.06342 464.752 9.13349 464.4 9.26962 464.072C9.40574 463.744 9.60525 463.446 9.85671 463.196C10.1082 462.945 10.4066 462.746 10.735 462.611C11.0634 462.476 11.4153 462.406 11.7704 462.407C12.4873 462.407 13.1751 462.691 13.6827 463.197C14.1904 463.704 14.4766 464.39 14.4784 465.107C14.4771 465.825 14.1918 466.512 13.6849 467.02C13.178 467.527 12.4907 467.813 11.7734 467.815ZM11.7734 481.584C11.4183 481.585 11.0666 481.516 10.7383 481.381C10.4101 481.245 10.1117 481.046 9.86036 480.796C9.60901 480.545 9.40959 480.247 9.27352 479.919C9.13746 479.591 9.06742 479.239 9.06742 478.884C9.0665 478.529 9.13586 478.176 9.27151 477.848C9.40716 477.519 9.60643 477.22 9.85787 476.968C10.1093 476.717 10.408 476.518 10.7367 476.382C11.0654 476.246 11.4178 476.177 11.7734 476.177C12.4899 476.18 13.1762 476.466 13.6822 476.974C14.1881 477.481 14.4726 478.168 14.4734 478.884C14.47 479.599 14.1844 480.284 13.6788 480.79C13.1732 481.295 12.4885 481.581 11.7734 481.584ZM11.7734 495.357C11.4177 495.358 11.0653 495.289 10.7364 495.153C10.4076 495.017 10.1088 494.818 9.85723 494.567C9.60567 494.315 9.40631 494.016 9.2706 493.687C9.13489 493.358 9.0655 493.006 9.06642 492.65C9.06695 491.932 9.35226 491.244 9.85975 490.736C10.3672 490.228 11.0555 489.942 11.7734 489.941C12.4908 489.944 13.1779 490.231 13.6851 490.738C14.1923 491.246 14.4785 491.933 14.4814 492.65C14.4813 493.006 14.4111 493.358 14.2747 493.687C14.1384 494.016 13.9386 494.314 13.6869 494.566C13.4351 494.817 13.1363 495.016 12.8074 495.152C12.4786 495.288 12.1262 495.358 11.7704 495.357H11.7734ZM11.7734 509.121C11.418 509.123 11.0656 509.055 10.7368 508.92C10.4079 508.785 10.109 508.586 9.85735 508.335C9.60567 508.084 9.40621 507.786 9.27046 507.457C9.13471 507.129 9.06536 506.777 9.06642 506.421C9.06655 506.066 9.13677 505.714 9.27306 505.385C9.40934 505.057 9.60903 504.758 9.8607 504.507C10.1124 504.255 10.4111 504.056 10.7398 503.92C11.0685 503.785 11.4208 503.715 11.7764 503.715C12.4919 503.717 13.1776 504.002 13.6836 504.508C14.1895 505.014 14.4746 505.7 14.4764 506.415C14.4772 506.771 14.4078 507.123 14.2721 507.452C14.1363 507.78 13.937 508.079 13.6856 508.331C13.4342 508.582 13.1356 508.781 12.8069 508.917C12.4782 509.053 12.126 509.122 11.7704 509.121H11.7734ZM11.7734 522.895C11.0577 522.897 10.3705 522.615 9.86289 522.11C9.35528 521.606 9.06881 520.92 9.06642 520.204C9.06524 519.848 9.13446 519.494 9.2701 519.164C9.40575 518.834 9.60517 518.535 9.85692 518.282C10.1087 518.029 10.4078 517.829 10.7372 517.692C11.0666 517.555 11.4197 517.484 11.7764 517.484C12.4948 517.489 13.1821 517.778 13.6881 518.288C14.194 518.797 14.4775 519.487 14.4764 520.205C14.4738 520.921 14.1873 521.606 13.68 522.11C13.1726 522.615 12.4858 522.897 11.7704 522.895H11.7734ZM11.7734 536.676C11.4183 536.677 11.0664 536.608 10.738 536.473C10.4096 536.338 10.1112 536.139 9.85971 535.888C9.60825 535.637 9.40874 535.339 9.27262 535.011C9.13649 534.683 9.06642 534.331 9.06642 533.976C9.0655 533.62 9.13498 533.268 9.27088 532.939C9.40678 532.61 9.60641 532.311 9.85829 532.059C10.1102 531.807 10.4093 531.608 10.7385 531.473C11.0677 531.337 11.4204 531.268 11.7764 531.269C12.4925 531.269 13.1793 531.554 13.6856 532.06C14.192 532.566 14.4764 533.253 14.4764 533.969C14.4762 534.687 14.191 535.375 13.6836 535.883C13.1762 536.39 12.4881 536.676 11.7704 536.676H11.7734ZM11.7734 550.446C11.4178 550.447 11.0655 550.378 10.7367 550.242C10.408 550.106 10.1092 549.907 9.85747 549.656C9.60576 549.405 9.40606 549.106 9.26981 548.778C9.13356 548.449 9.06342 548.097 9.06342 547.741C9.06342 547.386 9.13349 547.035 9.26962 546.706C9.40574 546.378 9.60525 546.08 9.85671 545.83C10.1082 545.579 10.4066 545.38 10.735 545.245C11.0634 545.11 11.4153 545.04 11.7704 545.041C12.4886 545.042 13.1772 545.327 13.685 545.835C14.1928 546.343 14.4782 547.031 14.4784 547.749C14.4726 548.464 14.1854 549.147 13.679 549.651C13.1727 550.156 12.488 550.44 11.7734 550.442V550.446ZM11.7734 564.216C11.0569 564.216 10.3697 563.931 9.86234 563.425C9.35499 562.919 9.0688 562.233 9.06642 561.516C9.06775 560.798 9.35379 560.11 9.86181 559.603C10.3698 559.095 11.0584 558.81 11.7764 558.809C12.4914 558.813 13.176 559.099 13.6816 559.604C14.1871 560.11 14.4727 560.794 14.4764 561.509C14.4738 562.226 14.1879 562.913 13.681 563.42C13.1741 563.927 12.4874 564.213 11.7704 564.216H11.7734ZM11.7734 577.986C11.4186 577.987 11.0671 577.918 10.7391 577.783C10.4111 577.647 10.1131 577.448 9.86218 577.198C9.61127 576.947 9.41243 576.649 9.27707 576.321C9.14171 575.993 9.0725 575.641 9.07343 575.286C9.07277 574.931 9.14232 574.579 9.27809 574.25C9.41385 573.922 9.61317 573.623 9.86459 573.372C10.116 573.12 10.4146 572.921 10.7432 572.786C11.0718 572.65 11.4239 572.581 11.7794 572.581C12.4946 572.584 13.1797 572.87 13.6854 573.375C14.1911 573.881 14.4765 574.566 14.4794 575.281C14.4784 575.999 14.1925 576.687 13.6846 577.194C13.1766 577.701 12.4882 577.986 11.7704 577.986H11.7734ZM11.7734 591.756C11.4174 591.758 11.0647 591.689 10.7355 591.553C10.4063 591.417 10.1072 591.218 9.85529 590.967C9.60342 590.715 9.40378 590.416 9.26788 590.087C9.13199 589.758 9.0625 589.405 9.06342 589.049C9.06342 588.694 9.13349 588.343 9.26962 588.014C9.40574 587.686 9.60525 587.388 9.85671 587.138C10.1082 586.887 10.4066 586.688 10.735 586.553C11.0634 586.418 11.4153 586.348 11.7704 586.349C12.4878 586.352 13.1751 586.638 13.6824 587.145C14.1896 587.653 14.4758 588.34 14.4784 589.057C14.4783 589.412 14.4082 589.764 14.2721 590.091C14.1361 590.419 13.9367 590.717 13.6855 590.968C13.4343 591.218 13.1361 591.417 12.808 591.552C12.4799 591.688 12.1283 591.757 11.7734 591.756Z" fill="white"/>
<path opacity="0.8" d="M14.4785 451.343C14.4785 451.698 14.4078 452.05 14.2705 452.377C14.1331 452.705 13.9319 453.002 13.6785 453.251C13.4299 453.504 13.1335 453.705 12.8064 453.842C12.4793 453.979 12.1282 454.05 11.7735 454.05C11.4188 454.05 11.0676 453.979 10.7405 453.842C10.4135 453.705 10.117 453.504 9.86847 453.251C9.48597 452.874 9.22421 452.393 9.11659 451.867C9.00897 451.342 9.06037 450.796 9.26424 450.3C9.46811 449.803 9.81519 449.379 10.2612 449.081C10.7072 448.783 11.232 448.624 11.7685 448.626C12.4842 448.632 13.1688 448.919 13.6745 449.426C13.9295 449.675 14.1321 449.974 14.2701 450.303C14.4082 450.632 14.4791 450.986 14.4785 451.343Z" fill="white"/>
<path opacity="0.8" d="M26.6625 467.817C25.9451 467.816 25.2578 467.529 24.7515 467.021C24.2452 466.513 23.9614 465.825 23.9625 465.107C23.9625 464.391 24.2469 463.704 24.7533 463.198C25.2596 462.692 25.9464 462.407 26.6625 462.407C27.3793 462.407 28.0669 462.691 28.5744 463.197C29.0819 463.704 29.3679 464.391 29.3695 465.107C29.3666 465.825 29.0805 466.512 28.5736 467.019C28.0666 467.527 27.3798 467.814 26.6625 467.817ZM26.6625 481.579C25.9464 481.579 25.2596 481.295 24.7533 480.789C24.2469 480.282 23.9625 479.595 23.9625 478.879C23.9619 478.162 24.246 477.475 24.7523 476.967C25.2585 476.46 25.9456 476.174 26.6625 476.172C27.3785 476.176 28.0641 476.463 28.5698 476.97C29.0755 477.477 29.3604 478.163 29.3625 478.879C29.3625 479.595 29.078 480.282 28.5717 480.789C28.0653 481.295 27.3786 481.579 26.6625 481.579ZM26.6625 495.355C25.9464 495.355 25.2596 495.071 24.7533 494.565C24.2469 494.058 23.9625 493.371 23.9625 492.655C23.9617 492.3 24.0309 491.949 24.1663 491.62C24.3016 491.292 24.5004 490.994 24.7512 490.742C25.002 490.491 25.2999 490.291 25.6278 490.155C25.9558 490.019 26.3074 489.949 26.6625 489.949C27.3797 489.951 28.067 490.237 28.5742 490.744C29.0814 491.251 29.3674 491.938 29.3695 492.655C29.3674 493.372 29.0812 494.059 28.5738 494.565C28.0664 495.071 27.3791 495.355 26.6625 495.355ZM26.6625 509.125C26.3074 509.125 25.9558 509.055 25.6278 508.919C25.2999 508.783 25.002 508.584 24.7512 508.332C24.5004 508.081 24.3016 507.783 24.1663 507.454C24.0309 507.126 23.9617 506.774 23.9625 506.419C23.9625 505.703 24.2467 505.015 24.7529 504.508C25.2591 504.001 25.9458 503.715 26.6625 503.713C27.3794 503.716 28.0663 504.002 28.5733 504.509C29.0804 505.016 29.3666 505.702 29.3695 506.419C29.3692 507.137 29.0839 507.825 28.5763 508.333C28.0686 508.84 27.3802 509.125 26.6625 509.125ZM26.6625 522.891C26.3086 522.893 25.9579 522.824 25.6305 522.69C25.3031 522.556 25.0055 522.358 24.7547 522.108C24.5038 521.859 24.3047 521.562 24.1688 521.235C24.0328 520.909 23.9627 520.558 23.9625 520.204C23.9614 519.849 24.0305 519.497 24.1657 519.169C24.3009 518.84 24.4996 518.542 24.7504 518.29C25.0013 518.038 25.2993 517.839 25.6274 517.703C25.9555 517.566 26.3072 517.496 26.6625 517.496C27.018 517.495 27.3703 517.565 27.699 517.7C28.0277 517.836 28.3264 518.035 28.578 518.286C28.8295 518.538 29.0289 518.836 29.1647 519.165C29.3005 519.494 29.3701 519.846 29.3695 520.201C29.3668 520.917 29.0802 521.602 28.5727 522.107C28.0651 522.611 27.378 522.893 26.6625 522.891ZM26.6625 536.676C25.9464 536.676 25.2596 536.392 24.7533 535.886C24.2469 535.379 23.9625 534.692 23.9625 533.976C23.9625 533.26 24.2469 532.573 24.7533 532.067C25.2596 531.561 25.9464 531.276 26.6625 531.276C27.3792 531.276 28.0667 531.561 28.5741 532.067C29.0816 532.573 29.3676 533.26 29.3695 533.976C29.3668 534.693 29.0806 535.379 28.5733 535.885C28.066 536.391 27.379 536.676 26.6625 536.676ZM26.6625 550.446C25.9464 550.446 25.2596 550.162 24.7533 549.656C24.2469 549.149 23.9625 548.462 23.9625 547.746C23.9614 547.39 24.0308 547.038 24.1665 546.709C24.3023 546.379 24.5018 546.08 24.7536 545.829C25.0054 545.577 25.3045 545.378 25.6336 545.242C25.9627 545.106 26.3155 545.037 26.6715 545.038C27.387 545.04 28.0727 545.325 28.5786 545.831C29.0846 546.337 29.3696 547.023 29.3715 547.738C29.3694 548.456 29.0831 549.143 28.5754 549.65C28.0677 550.157 27.3798 550.442 26.6625 550.442V550.446ZM26.6625 564.216C26.3063 564.218 25.9532 564.15 25.6237 564.015C25.2942 563.879 24.9948 563.68 24.7429 563.428C24.4909 563.177 24.2914 562.877 24.1559 562.548C24.0204 562.219 23.9516 561.866 23.9535 561.509C23.9535 560.793 24.2379 560.106 24.7443 559.6C25.2506 559.094 25.9374 558.809 26.6535 558.809C27.3708 558.811 28.0581 559.097 28.5653 559.605C29.0725 560.112 29.3584 560.799 29.3605 561.516C29.3605 562.231 29.077 562.917 28.5721 563.423C28.0673 563.929 27.3823 564.214 26.6675 564.216H26.6625ZM26.6625 577.986C26.3068 577.989 25.9543 577.92 25.6252 577.786C25.2961 577.651 24.997 577.452 24.7451 577.201C24.4932 576.95 24.2936 576.652 24.1577 576.323C24.0218 575.994 23.9524 575.642 23.9535 575.286C23.9528 574.931 24.0222 574.58 24.1576 574.252C24.293 573.923 24.4917 573.625 24.7425 573.374C24.9933 573.123 25.2912 572.923 25.6191 572.787C25.947 572.651 26.2985 572.581 26.6535 572.581C27.3707 572.583 28.0581 572.868 28.5654 573.375C29.0728 573.882 29.3586 574.569 29.3605 575.286C29.3605 576.001 29.077 576.687 28.5721 577.193C28.0673 577.699 27.3823 577.984 26.6675 577.986H26.6625ZM26.6625 591.756C26.3077 591.757 25.9562 591.688 25.6283 591.552C25.3004 591.417 25.0024 591.218 24.7515 590.967C24.5006 590.716 24.3018 590.418 24.1664 590.091C24.031 589.763 23.9617 589.411 23.9625 589.056C23.9625 588.34 24.2469 587.653 24.7533 587.147C25.2596 586.641 25.9464 586.356 26.6625 586.356C27.3786 586.358 28.065 586.643 28.5721 587.149C29.0792 587.655 29.3658 588.34 29.3695 589.056C29.3695 589.411 29.2994 589.763 29.1633 590.091C29.0272 590.419 28.8276 590.717 28.5762 590.968C28.3247 591.219 28.0263 591.418 27.6979 591.553C27.3695 591.688 27.0176 591.757 26.6625 591.756Z" fill="white"/>
<path opacity="0.8" d="M29.3665 451.342C29.3628 452.058 29.0773 452.743 28.572 453.25C28.0666 453.756 27.382 454.043 26.6665 454.048C25.9472 454.041 25.2592 453.754 24.7475 453.248C24.2637 452.728 23.9948 452.045 23.9948 451.334C23.9948 450.624 24.2637 449.94 24.7475 449.42C24.9979 449.167 25.2961 448.967 25.6246 448.83C25.9531 448.693 26.3055 448.622 26.6615 448.622C27.0174 448.622 27.3698 448.693 27.6983 448.83C28.0269 448.967 28.325 449.167 28.5755 449.42C29.0821 449.932 29.3664 450.622 29.3665 451.342Z" fill="white"/>
<path opacity="0.8" d="M41.0825 467.816C40.365 467.814 39.6775 467.528 39.1704 467.02C38.6632 466.513 38.3778 465.825 38.3765 465.108C38.3765 464.752 38.4465 464.401 38.5826 464.073C38.7186 463.745 38.918 463.447 39.1694 463.196C39.4208 462.945 39.7191 462.747 40.0474 462.611C40.3757 462.476 40.7274 462.407 41.0825 462.408C41.4378 462.406 41.7899 462.474 42.1185 462.609C42.4471 462.745 42.7458 462.943 42.9973 463.194C43.2487 463.445 43.448 463.744 43.5836 464.072C43.7193 464.4 43.7885 464.752 43.7875 465.108C43.7877 465.463 43.718 465.815 43.5822 466.143C43.4464 466.472 43.2472 466.77 42.996 467.022C42.7448 467.273 42.4465 467.473 42.1182 467.609C41.7899 467.745 41.4379 467.815 41.0825 467.816ZM41.0825 481.586C40.3655 481.584 39.6785 481.298 39.1714 480.791C38.6644 480.284 38.3786 479.597 38.3765 478.881C38.3786 478.163 38.6643 477.476 39.1713 476.969C39.6783 476.462 40.3654 476.176 41.0825 476.174C41.8005 476.174 42.4891 476.459 42.997 476.967C43.5049 477.474 43.7907 478.163 43.7915 478.881C43.7891 479.598 43.5028 480.285 42.9952 480.792C42.4875 481.299 41.7998 481.584 41.0825 481.586ZM41.0825 495.358C40.3649 495.357 39.6769 495.071 39.1696 494.564C38.6622 494.056 38.377 493.368 38.3765 492.651C38.3794 491.934 38.6653 491.247 39.1721 490.739C39.6788 490.232 40.3654 489.945 41.0825 489.942C41.8005 489.943 42.4886 490.229 42.9963 490.737C43.504 491.244 43.7899 491.933 43.7915 492.651C43.7924 493.006 43.7229 493.359 43.5871 493.688C43.4513 494.017 43.2517 494.316 43 494.567C42.7482 494.819 42.4492 495.018 42.1201 495.154C41.791 495.29 41.4384 495.359 41.0825 495.358ZM41.0825 509.122C40.7274 509.122 40.3757 509.053 40.0474 508.918C39.7191 508.782 39.4208 508.584 39.1694 508.333C38.918 508.082 38.7186 507.784 38.5826 507.456C38.4465 507.128 38.3765 506.777 38.3765 506.422C38.3794 505.705 38.6656 505.019 39.1726 504.513C39.6796 504.008 40.3662 503.723 41.0825 503.722C41.438 503.721 41.7901 503.79 42.1186 503.926C42.4472 504.062 42.7457 504.261 42.997 504.513C43.2483 504.764 43.4476 505.063 43.5832 505.391C43.7188 505.72 43.7883 506.072 43.7875 506.428C43.7879 506.782 43.7181 507.134 43.5822 507.462C43.4462 507.789 43.2468 508.087 42.9954 508.337C42.744 508.588 42.4456 508.786 42.1173 508.92C41.789 509.055 41.4373 509.123 41.0825 509.122ZM41.0825 522.909C40.3665 522.906 39.6803 522.622 39.1735 522.116C38.6666 521.61 38.3802 520.925 38.3765 520.209C38.3762 519.853 38.446 519.501 38.5819 519.172C38.7177 518.844 38.917 518.545 39.1683 518.294C39.4196 518.042 39.718 517.843 40.0465 517.707C40.3749 517.571 40.7269 517.501 41.0825 517.501C41.4381 517.499 41.7905 517.568 42.1194 517.704C42.4482 517.839 42.747 518.038 42.9984 518.29C43.2499 518.541 43.4491 518.84 43.5845 519.169C43.72 519.498 43.7889 519.85 43.7875 520.206C43.7869 520.923 43.5017 521.61 42.9945 522.117C42.4873 522.624 41.7995 522.909 41.0825 522.909ZM41.0825 536.677C40.3662 536.675 39.6796 536.391 39.1726 535.885C38.6656 535.379 38.3794 534.693 38.3765 533.977C38.3766 533.621 38.4468 533.269 38.5831 532.94C38.7194 532.612 38.9191 532.313 39.1708 532.062C39.4224 531.811 39.7212 531.611 40.0499 531.476C40.3786 531.34 40.7308 531.27 41.0865 531.271C41.8026 531.271 42.4893 531.555 42.9957 532.061C43.502 532.568 43.7865 533.254 43.7865 533.971C43.7849 534.687 43.4996 535.374 42.9929 535.882C42.4862 536.389 41.7993 536.674 41.0825 536.677ZM41.0825 550.447C40.3664 550.445 39.6801 550.16 39.1732 549.654C38.6663 549.148 38.3799 548.463 38.3765 547.747C38.3754 547.391 38.4447 547.038 38.5803 546.709C38.7159 546.381 38.9151 546.082 39.1666 545.83C39.418 545.578 39.7167 545.379 40.0455 545.243C40.3743 545.107 40.7267 545.038 41.0825 545.039C41.4375 545.038 41.7891 545.107 42.1173 545.243C42.4454 545.378 42.7437 545.577 42.9949 545.828C43.2461 546.078 43.4455 546.376 43.5815 546.704C43.7175 547.032 43.7875 547.384 43.7875 547.739C43.788 548.094 43.7184 548.446 43.5826 548.774C43.4469 549.103 43.2476 549.401 42.9963 549.652C42.745 549.903 42.4466 550.102 42.1182 550.238C41.7898 550.374 41.4378 550.443 41.0825 550.443V550.447ZM41.0825 564.217C40.3663 564.215 39.6799 563.93 39.1729 563.424C38.6659 562.919 38.3796 562.233 38.3765 561.517C38.3794 560.8 38.6656 560.114 39.1726 559.608C39.6796 559.103 40.3662 558.818 41.0825 558.817C41.4375 558.816 41.7891 558.885 42.1173 559.021C42.4454 559.156 42.7437 559.355 42.9949 559.606C43.2461 559.856 43.4455 560.154 43.5815 560.482C43.7175 560.81 43.7875 561.162 43.7875 561.517C43.7875 561.872 43.7175 562.223 43.5815 562.551C43.4455 562.879 43.2461 563.177 42.9949 563.428C42.7437 563.678 42.4454 563.877 42.1173 564.012C41.7891 564.148 41.4375 564.217 41.0825 564.217ZM41.0825 577.987C40.7268 577.987 40.3745 577.918 40.0458 577.782C39.717 577.646 39.4184 577.447 39.1669 577.195C38.9155 576.944 38.7162 576.645 38.5806 576.316C38.4449 575.988 38.3756 575.635 38.3765 575.28C38.3796 574.564 38.6651 573.88 39.1708 573.374C39.6764 572.868 40.3614 572.583 41.0765 572.58C41.4323 572.579 41.7847 572.649 42.1135 572.785C42.4423 572.921 42.741 573.121 42.9926 573.372C43.2441 573.624 43.4435 573.923 43.5794 574.251C43.7153 574.58 43.785 574.933 43.7845 575.289C43.7853 575.643 43.7159 575.995 43.5803 576.323C43.4448 576.651 43.2457 576.949 42.9946 577.2C42.7435 577.45 42.4453 577.649 42.1171 577.784C41.789 577.919 41.4373 577.988 41.0825 577.987ZM41.0825 591.758C40.7274 591.758 40.3757 591.689 40.0474 591.554C39.7191 591.418 39.4208 591.22 39.1694 590.969C38.918 590.718 38.7186 590.42 38.5826 590.092C38.4465 589.764 38.3765 589.413 38.3765 589.058C38.3799 588.341 38.6661 587.654 39.1728 587.148C39.6795 586.641 40.3658 586.354 41.0825 586.351C41.8001 586.352 42.4879 586.638 42.9956 587.145C43.5032 587.652 43.7894 588.34 43.7915 589.058C43.7901 589.775 43.504 590.462 42.996 590.968C42.488 591.475 41.7997 591.759 41.0825 591.758Z" fill="white"/>
<path opacity="0.8" d="M43.7874 451.343C43.7856 452.056 43.505 452.741 43.0054 453.251C42.492 453.756 41.8027 454.043 41.0824 454.051C40.3666 454.044 39.682 453.756 39.1754 453.251C38.6915 452.731 38.4224 452.047 38.4224 451.337C38.4224 450.626 38.6915 449.942 39.1754 449.423C39.6858 448.919 40.3738 448.637 41.0904 448.637C41.8071 448.637 42.495 448.919 43.0054 449.423C43.5059 449.936 43.7864 450.625 43.7874 451.343Z" fill="white"/>
<path opacity="0.8" d="M59.7115 437.035C59.7023 437.75 59.4155 438.434 58.9115 438.942C58.4009 439.443 57.7138 439.724 56.998 439.724C56.2822 439.724 55.595 439.443 55.0845 438.942C54.6015 438.422 54.3331 437.738 54.3331 437.029C54.3331 436.319 54.6015 435.635 55.0845 435.116C55.4646 434.738 55.9478 434.482 56.4732 434.379C56.9986 434.275 57.5429 434.329 58.0376 434.535C58.5323 434.74 58.9553 435.086 59.2535 435.531C59.5517 435.976 59.7117 436.499 59.7135 437.035H59.7115Z" fill="white"/>
<path opacity="0.8" d="M57.0044 302.014C56.6492 302.014 56.2975 301.943 55.9694 301.807C55.6413 301.671 55.3433 301.471 55.0924 301.22C54.8416 300.968 54.6429 300.67 54.5077 300.341C54.3725 300.013 54.3034 299.661 54.3045 299.306C54.3045 298.589 54.5889 297.903 55.0953 297.396C55.6016 296.89 56.2884 296.606 57.0044 296.606C57.72 296.607 58.4056 296.892 58.9116 297.398C59.4175 297.904 59.7026 298.59 59.7045 299.306C59.7037 300.022 59.4192 300.709 58.9133 301.217C58.4073 301.724 57.721 302.011 57.0044 302.014ZM57.0044 315.783C56.2889 315.781 55.603 315.496 55.097 314.99C54.591 314.484 54.306 313.798 54.3045 313.083C54.3042 312.366 54.5883 311.678 55.0946 311.171C55.6008 310.663 56.2876 310.377 57.0044 310.376C57.722 310.377 58.4097 310.663 58.9173 311.17C59.4248 311.678 59.7111 312.365 59.7134 313.083C59.7082 313.799 59.4208 314.484 58.9137 314.989C58.4065 315.495 57.7205 315.78 57.0044 315.783ZM57.0044 329.554C56.6495 329.554 56.298 329.484 55.9701 329.348C55.6421 329.212 55.3443 329.012 55.0935 328.761C54.8427 328.51 54.6439 328.211 54.5085 327.883C54.3731 327.555 54.3038 327.204 54.3045 326.849C54.3047 326.131 54.59 325.443 55.0977 324.935C55.6053 324.428 56.2937 324.143 57.0115 324.143C57.7273 324.147 58.4125 324.433 58.9181 324.94C59.4237 325.447 59.7088 326.133 59.7114 326.849C59.7121 327.204 59.6425 327.556 59.5067 327.885C59.3709 328.214 59.1715 328.512 58.9199 328.763C58.6684 329.015 58.3697 329.214 58.041 329.35C57.7123 329.485 57.36 329.554 57.0044 329.554ZM57.0044 343.32C56.6493 343.32 56.2975 343.251 55.9691 343.116C55.6407 342.981 55.3422 342.782 55.0907 342.531C54.8393 342.28 54.6398 341.982 54.5037 341.654C54.3675 341.326 54.2974 340.975 54.2974 340.62C54.2974 339.903 54.5819 339.217 55.0883 338.71C55.5946 338.204 56.2814 337.92 56.9975 337.92C57.7139 337.922 58.4002 338.208 58.9062 338.716C59.4122 339.223 59.6967 339.91 59.6975 340.627C59.6956 341.339 59.4123 342.022 58.9091 342.526C58.406 343.031 57.7239 343.316 57.0115 343.32H57.0044ZM57.0044 357.094C56.6503 357.095 56.2995 357.026 55.972 356.891C55.6446 356.756 55.3469 356.558 55.0961 356.308C54.8453 356.058 54.6463 355.761 54.5104 355.434C54.3746 355.107 54.3046 354.757 54.3045 354.403C54.3034 354.047 54.3727 353.694 54.5083 353.365C54.644 353.036 54.8433 352.737 55.0949 352.486C55.3465 352.234 55.6453 352.035 55.9742 351.899C56.3031 351.763 56.6556 351.694 57.0115 351.695C57.3664 351.695 57.718 351.765 58.0459 351.901C58.3738 352.037 58.6716 352.236 58.9224 352.487C59.1732 352.738 59.372 353.037 59.5074 353.365C59.6428 353.693 59.7121 354.045 59.7114 354.4C59.7107 354.754 59.64 355.105 59.5035 355.433C59.3671 355.76 59.1674 356.057 58.9161 356.307C58.6647 356.558 58.3665 356.756 58.0385 356.891C57.7105 357.025 57.3591 357.094 57.0044 357.094ZM57.0044 370.875C56.6493 370.875 56.2975 370.806 55.9691 370.671C55.6407 370.536 55.3422 370.337 55.0907 370.086C54.8393 369.835 54.6398 369.537 54.5037 369.209C54.3675 368.881 54.2974 368.53 54.2974 368.175C54.2974 367.458 54.5819 366.772 55.0883 366.265C55.5946 365.759 56.2814 365.475 56.9975 365.475C57.3527 365.475 57.7045 365.545 58.0326 365.681C58.3607 365.817 58.6587 366.017 58.9095 366.268C59.1603 366.52 59.359 366.818 59.4942 367.147C59.6294 367.475 59.6985 367.827 59.6975 368.183C59.6922 368.894 59.4078 369.575 58.9053 370.078C58.4029 370.582 57.7228 370.868 57.0115 370.875H57.0044ZM57.0044 384.649C56.2879 384.647 55.6013 384.361 55.0952 383.854C54.5891 383.346 54.3047 382.659 54.3045 381.943C54.3034 381.587 54.3725 381.235 54.5077 380.907C54.6429 380.578 54.8416 380.28 55.0924 380.028C55.3433 379.777 55.6413 379.577 55.9694 379.441C56.2975 379.305 56.6492 379.235 57.0044 379.235C57.7214 379.236 58.4085 379.522 58.9147 380.03C59.4209 380.538 59.705 381.226 59.7045 381.943C59.7016 382.658 59.4164 383.344 58.9108 383.851C58.4053 384.357 57.7202 384.644 57.0044 384.649ZM57.0044 398.416C56.6496 398.416 56.2981 398.347 55.9701 398.212C55.6421 398.077 55.3441 397.878 55.0932 397.627C54.8423 397.376 54.6435 397.078 54.5081 396.75C54.3727 396.422 54.3035 396.07 54.3045 395.716C54.3038 395.361 54.3731 395.009 54.5085 394.681C54.6439 394.353 54.8427 394.054 55.0935 393.803C55.3443 393.552 55.6421 393.353 55.9701 393.217C56.298 393.081 56.6495 393.011 57.0044 393.011C57.7203 393.014 58.4059 393.3 58.9116 393.807C59.4174 394.314 59.7024 395 59.7045 395.716C59.7045 396.432 59.42 397.118 58.9136 397.625C58.4073 398.131 57.7205 398.416 57.0044 398.416ZM57.0044 412.186C56.6487 412.186 56.2963 412.117 55.9674 411.981C55.6386 411.846 55.3398 411.646 55.0883 411.395C54.8367 411.143 54.6373 410.844 54.5016 410.516C54.3659 410.187 54.2965 409.834 54.2974 409.479C54.2974 408.762 54.5819 408.076 55.0883 407.569C55.5946 407.063 56.2814 406.779 56.9975 406.779C57.7138 406.781 58.3999 407.067 58.9058 407.574C59.4118 408.081 59.6964 408.768 59.6975 409.485C59.6977 410.198 59.4153 410.883 58.9119 411.389C58.4086 411.896 57.7253 412.182 57.0115 412.186H57.0044ZM57.0044 425.956C56.6486 425.957 56.296 425.888 55.967 425.753C55.6379 425.618 55.3389 425.419 55.0872 425.167C54.8355 424.916 54.6361 424.617 54.5006 424.288C54.365 423.959 54.296 423.606 54.2974 423.251C54.2974 422.894 54.3677 422.542 54.5042 422.213C54.6406 421.884 54.8406 421.585 55.0927 421.334C55.3448 421.082 55.6441 420.883 55.9733 420.747C56.3025 420.611 56.6553 420.542 57.0115 420.543C57.728 420.546 58.4141 420.832 58.9208 421.339C59.4275 421.846 59.7138 422.532 59.7175 423.249C59.7161 423.966 59.4306 424.654 58.9235 425.161C58.4163 425.668 57.7288 425.954 57.0115 425.956H57.0044Z" fill="white"/>
<path opacity="0.8" d="M59.7115 285.538C59.7063 286.253 59.4204 286.937 58.9154 287.444C58.4104 287.95 57.7267 288.238 57.0115 288.246C56.292 288.238 55.6037 287.951 55.0915 287.446C54.6085 286.925 54.3401 286.241 54.3401 285.531C54.3401 284.82 54.6085 284.136 55.0915 283.616C55.4709 283.237 55.9542 282.979 56.4802 282.875C57.0062 282.771 57.5513 282.825 58.0464 283.031C58.5416 283.236 58.9646 283.584 59.2619 284.031C59.5592 284.477 59.7174 285.001 59.7165 285.538H59.7115Z" fill="white"/>
<path opacity="0.8" d="M74.1294 437.018C74.1348 437.555 73.9799 438.081 73.6847 438.529C73.3894 438.976 72.9672 439.326 72.4721 439.533C71.977 439.739 71.4315 439.793 70.9055 439.688C70.3795 439.582 69.8969 439.323 69.5194 438.941C69.0365 438.421 68.7681 437.738 68.7681 437.028C68.7681 436.319 69.0365 435.635 69.5194 435.115C70.0274 434.612 70.7134 434.33 71.4285 434.329C71.7829 434.327 72.1343 434.394 72.4624 434.528C72.7905 434.662 73.0888 434.86 73.3399 435.11C73.5911 435.36 73.7901 435.658 73.9254 435.985C74.0608 436.313 74.1298 436.664 74.1284 437.018H74.1294Z" fill="white"/>
<path opacity="0.8" d="M71.4235 302.013C70.7074 302.009 70.0222 301.722 69.5167 301.215C69.0111 300.708 68.7261 300.021 68.7235 299.305C68.7235 298.589 69.0079 297.903 69.5143 297.396C70.0206 296.89 70.7074 296.605 71.4235 296.605C71.779 296.605 72.1313 296.674 72.4599 296.81C72.7886 296.946 73.0872 297.145 73.3386 297.396C73.5901 297.648 73.7894 297.946 73.9251 298.275C74.0608 298.604 74.1302 298.956 74.1294 299.311C74.1284 300.028 73.8428 300.716 73.3355 301.222C72.8281 301.729 72.1404 302.013 71.4235 302.013ZM71.4235 315.783C70.7087 315.779 70.0244 315.493 69.5189 314.988C69.0135 314.483 68.7277 313.798 68.7235 313.083C68.7256 312.366 69.0115 311.679 69.5187 311.172C70.0259 310.664 70.7132 310.379 71.4305 310.376C72.1482 310.377 72.8362 310.663 73.3437 311.17C73.8512 311.678 74.1367 312.366 74.1375 313.083C74.1353 313.801 73.8483 314.489 73.3393 314.995C72.8304 315.502 72.1413 315.785 71.4235 315.783ZM71.4235 329.552C71.0683 329.552 70.7166 329.482 70.3886 329.346C70.0606 329.21 69.7626 329.011 69.5118 328.759C69.261 328.508 69.0622 328.209 68.927 327.881C68.7917 327.552 68.7225 327.201 68.7235 326.845C68.7256 326.13 69.0107 325.444 69.5166 324.939C70.0225 324.433 70.708 324.148 71.4235 324.145C71.779 324.145 72.1313 324.214 72.4599 324.35C72.7886 324.486 73.0872 324.685 73.3386 324.936C73.5901 325.188 73.7894 325.486 73.9251 325.815C74.0608 326.144 74.1302 326.496 74.1294 326.851C74.1305 327.207 74.0613 327.559 73.9257 327.887C73.7902 328.215 73.591 328.514 73.3397 328.765C73.0883 329.016 72.7898 329.215 72.4613 329.35C72.1327 329.485 71.7807 329.554 71.4255 329.552H71.4235ZM71.4235 343.319C70.7074 343.319 70.0206 343.035 69.5143 342.529C69.0079 342.022 68.7235 341.336 68.7235 340.619C68.725 339.903 69.0098 339.217 69.5156 338.71C70.0214 338.202 70.7072 337.916 71.4235 337.912C71.7785 337.912 72.1303 337.981 72.4586 338.116C72.7868 338.252 73.0852 338.45 73.3365 338.701C73.5879 338.952 73.7873 339.25 73.9234 339.578C74.0594 339.906 74.1295 340.257 74.1294 340.612C74.1317 340.968 74.0633 341.321 73.9281 341.651C73.7929 341.98 73.5937 342.279 73.342 342.531C73.0903 342.783 72.7911 342.982 72.4617 343.118C72.1324 343.253 71.7795 343.322 71.4235 343.319ZM71.4235 357.104C70.7074 357.102 70.0216 356.815 69.5157 356.309C69.0098 355.802 68.725 355.116 68.7235 354.399C68.7228 354.044 68.7922 353.693 68.9275 353.365C69.0629 353.037 69.2617 352.738 69.5125 352.487C69.7633 352.236 70.0611 352.036 70.389 351.9C70.717 351.764 71.0685 351.694 71.4235 351.694C71.779 351.694 72.1311 351.763 72.4597 351.899C72.7883 352.034 73.0869 352.234 73.3383 352.485C73.5897 352.736 73.789 353.035 73.9248 353.363C74.0606 353.692 74.1301 354.044 74.1294 354.399C74.1301 354.755 74.0606 355.107 73.9248 355.436C73.789 355.764 73.5897 356.063 73.3383 356.314C73.0869 356.565 72.7883 356.765 72.4597 356.9C72.1311 357.036 71.779 357.105 71.4235 357.104ZM71.4235 370.874C70.7083 370.872 70.0232 370.586 69.5175 370.08C69.0117 369.575 68.7264 368.89 68.7235 368.174C68.7232 367.819 68.793 367.467 68.929 367.138C69.0649 366.809 69.2643 366.511 69.5157 366.259C69.7671 366.008 70.0656 365.808 70.3941 365.672C70.7227 365.536 71.0749 365.466 71.4305 365.466C72.1465 365.466 72.8333 365.751 73.3396 366.257C73.846 366.764 74.1305 367.45 74.1305 368.166C74.1315 368.522 74.0622 368.875 73.9266 369.204C73.7909 369.533 73.5916 369.832 73.34 370.083C73.0884 370.335 72.7896 370.534 72.4607 370.67C72.1318 370.806 71.7793 370.875 71.4235 370.874ZM71.4235 384.648C70.7076 384.644 70.0224 384.358 69.5168 383.851C69.0112 383.344 68.7261 382.658 68.7235 381.942C68.7227 381.587 68.7922 381.234 68.9279 380.906C69.0637 380.577 69.2631 380.278 69.5146 380.027C69.7662 379.775 70.0649 379.576 70.3937 379.441C70.7225 379.305 71.0748 379.236 71.4305 379.236C71.7861 379.236 72.1385 379.305 72.4672 379.441C72.796 379.576 73.0948 379.775 73.3463 380.027C73.5978 380.278 73.7972 380.577 73.933 380.906C74.0688 381.234 74.1383 381.587 74.1375 381.942C74.1356 382.661 73.8488 383.349 73.34 383.857C72.8312 384.364 72.142 384.649 71.4235 384.648ZM71.4235 398.415C70.7087 398.411 70.0246 398.125 69.5192 397.62C69.0138 397.114 68.7279 396.43 68.7235 395.715C68.7253 394.998 69.0111 394.31 69.5183 393.803C70.0255 393.296 70.713 393.01 71.4305 393.007C72.1469 393.008 72.834 393.293 73.3413 393.799C73.8485 394.305 74.1348 394.991 74.1375 395.707C74.1375 396.064 74.0672 396.416 73.9307 396.745C73.7943 397.074 73.5943 397.373 73.3422 397.624C73.0901 397.876 72.7908 398.075 72.4616 398.211C72.1324 398.347 71.7796 398.416 71.4235 398.415ZM71.4235 412.185C70.7074 412.185 70.0206 411.901 69.5143 411.395C69.0079 410.888 68.7235 410.202 68.7235 409.485C68.7258 408.769 69.0108 408.083 69.5165 407.576C70.0221 407.069 70.7075 406.783 71.4235 406.778C72.1414 406.779 72.8299 407.064 73.3377 407.572C73.8456 408.079 74.1314 408.767 74.1325 409.485C74.1325 409.841 74.0623 410.193 73.9261 410.521C73.7898 410.849 73.5901 411.147 73.3385 411.398C73.0868 411.649 72.7881 411.847 72.4595 411.983C72.1308 412.118 71.7788 412.187 71.4235 412.185ZM71.4235 425.958C70.7071 425.956 70.0209 425.669 69.515 425.162C69.0091 424.655 68.7245 423.968 68.7235 423.251C68.7266 422.535 69.0131 421.849 69.5202 421.343C70.0274 420.837 70.7141 420.553 71.4305 420.551C71.7856 420.551 72.1375 420.62 72.4658 420.755C72.7942 420.89 73.0927 421.089 73.3442 421.34C73.5956 421.591 73.7951 421.889 73.9313 422.217C74.0674 422.545 74.1375 422.896 74.1375 423.251C74.1384 423.608 74.0688 423.961 73.9326 424.29C73.7965 424.619 73.5965 424.919 73.3442 425.17C73.0919 425.422 72.7923 425.621 72.4626 425.756C72.133 425.892 71.7798 425.96 71.4235 425.958Z" fill="white"/>
<path opacity="0.8" d="M74.1325 285.538C74.1293 286.252 73.8473 286.936 73.3465 287.446C72.833 287.951 72.1438 288.238 71.4235 288.246C70.7078 288.238 70.0235 287.951 69.5165 287.446C69.0335 286.925 68.7651 286.241 68.7651 285.531C68.7651 284.82 69.0335 284.136 69.5165 283.616C70.0266 283.113 70.7139 282.832 71.43 282.832C72.146 282.832 72.8333 283.113 73.3435 283.616C73.846 284.13 74.1289 284.819 74.1325 285.538Z" fill="white"/>
<path opacity="0.8" d="M89.0235 437.018C89.0251 437.464 88.9167 437.904 88.7078 438.298C88.4989 438.692 88.196 439.028 87.8259 439.277C87.4559 439.525 87.0302 439.679 86.5865 439.724C86.1429 439.769 85.695 439.703 85.2827 439.533C84.8705 439.364 84.5064 439.095 84.223 438.75C83.9396 438.406 83.7456 437.997 83.6581 437.56C83.5706 437.123 83.5924 436.671 83.7216 436.244C83.8507 435.817 84.0832 435.429 84.3985 435.113C84.9105 434.61 85.5997 434.329 86.3174 434.329C87.0327 434.328 87.7193 434.61 88.2266 435.114C88.734 435.618 89.0205 436.303 89.0235 437.018Z" fill="white"/>
<path opacity="0.8" d="M86.3175 302.014C85.962 302.013 85.6101 301.943 85.2818 301.807C84.9534 301.671 84.6552 301.471 84.404 301.22C84.1528 300.968 83.9536 300.67 83.8178 300.341C83.682 300.013 83.6122 299.661 83.6125 299.306C83.6125 298.951 83.6825 298.599 83.8185 298.271C83.9545 297.943 84.1538 297.645 84.405 297.395C84.6563 297.144 84.9545 296.945 85.2827 296.81C85.6108 296.674 85.9625 296.605 86.3175 296.606C87.0341 296.606 87.7215 296.89 88.2288 297.396C88.7361 297.902 89.0219 298.589 89.0235 299.306C89.0211 300.023 88.7353 300.71 88.2284 301.217C87.7215 301.724 87.0346 302.011 86.3175 302.014ZM86.3175 315.783C85.9627 315.783 85.6112 315.714 85.2833 315.579C84.9553 315.443 84.6574 315.244 84.4065 314.994C84.1556 314.743 83.9568 314.445 83.8214 314.117C83.686 313.789 83.6167 313.437 83.6175 313.083C83.6172 312.727 83.687 312.375 83.8228 312.047C83.9586 311.718 84.1578 311.42 84.409 311.169C84.6602 310.917 84.9585 310.718 85.2868 310.582C85.6152 310.446 85.9671 310.376 86.3225 310.376C87.039 310.378 87.7255 310.664 88.2315 311.171C88.7375 311.679 89.0219 312.366 89.0225 313.083C89.0225 313.438 88.9523 313.79 88.8159 314.118C88.6795 314.447 88.4797 314.745 88.2278 314.996C87.9759 315.247 87.6769 315.445 87.3481 315.58C87.0192 315.715 86.667 315.784 86.3115 315.783H86.3175ZM86.3175 329.554C85.962 329.554 85.61 329.485 85.2815 329.349C84.953 329.213 84.6546 329.014 84.4033 328.763C84.152 328.511 83.9527 328.213 83.817 327.884C83.6813 327.556 83.6118 327.204 83.6125 326.849C83.6117 326.494 83.6809 326.142 83.8162 325.814C83.9514 325.485 84.1501 325.187 84.4008 324.936C84.6515 324.684 84.9493 324.485 85.2771 324.349C85.605 324.213 85.9565 324.143 86.3115 324.143C87.029 324.143 87.717 324.428 88.2242 324.935C88.7315 325.443 89.0165 326.131 89.0165 326.849C89.0171 327.203 88.9478 327.555 88.8125 327.883C88.6771 328.211 88.4784 328.509 88.2278 328.761C87.9771 329.012 87.6794 329.211 87.3516 329.347C87.0238 329.483 86.6724 329.553 86.3175 329.554ZM86.3175 343.324C85.962 343.324 85.6098 343.255 85.2813 343.119C84.9527 342.983 84.6542 342.784 84.4029 342.532C84.1516 342.281 83.9524 341.982 83.8167 341.654C83.6811 341.325 83.6117 340.973 83.6125 340.618C83.6117 340.262 83.6811 339.91 83.8167 339.581C83.9524 339.253 84.1516 338.954 84.4029 338.703C84.6542 338.451 84.9527 338.252 85.2813 338.116C85.6098 337.98 85.962 337.911 86.3175 337.912C87.0342 337.915 87.7206 338.201 88.2274 338.708C88.7342 339.214 89.0203 339.901 89.0235 340.618C89.0224 341.335 88.737 342.023 88.2297 342.53C87.7225 343.037 87.0348 343.322 86.3175 343.324ZM86.3175 357.107C85.9625 357.107 85.6108 357.038 85.2827 356.902C84.9545 356.767 84.6563 356.568 84.405 356.318C84.1538 356.067 83.9545 355.769 83.8185 355.441C83.6825 355.113 83.6125 354.762 83.6125 354.407C83.6109 354.05 83.6797 353.697 83.8148 353.367C83.95 353.038 84.149 352.738 84.4003 352.485C84.6516 352.232 84.9503 352.032 85.2793 351.895C85.6083 351.758 85.9611 351.687 86.3175 351.687C87.0364 351.69 87.7247 351.978 88.2318 352.488C88.7388 352.998 89.0235 353.688 89.0235 354.407C89.0187 355.122 88.7319 355.807 88.2253 356.313C87.7187 356.818 87.0331 357.103 86.3175 357.107ZM86.3175 370.875C85.6014 370.875 84.9146 370.59 84.4083 370.084C83.9019 369.577 83.6175 368.891 83.6175 368.175C83.6167 367.819 83.6861 367.467 83.8217 367.138C83.9574 366.81 84.1566 366.511 84.4079 366.26C84.6592 366.008 84.9578 365.809 85.2863 365.673C85.6148 365.537 85.967 365.468 86.3225 365.469C87.04 365.469 87.7279 365.754 88.2353 366.262C88.7427 366.769 89.0279 367.457 89.0285 368.175C89.025 368.893 88.7371 369.58 88.2278 370.086C87.7186 370.592 87.0294 370.876 86.3115 370.875H86.3175ZM86.3175 384.645C85.9625 384.645 85.6108 384.576 85.2827 384.44C84.9545 384.305 84.6563 384.106 84.405 383.856C84.1538 383.605 83.9545 383.307 83.8185 382.979C83.6825 382.651 83.6125 382.3 83.6125 381.945C83.6114 381.589 83.6807 381.236 83.8165 380.907C83.9522 380.578 84.1516 380.279 84.4033 380.027C84.6549 379.776 84.9539 379.576 85.2829 379.441C85.6119 379.305 85.9645 379.235 86.3205 379.237C87.0359 379.239 87.7214 379.524 88.2273 380.03C88.7332 380.536 89.0184 381.221 89.0205 381.937C89.0181 382.653 88.7326 383.339 88.2263 383.846C87.72 384.353 87.0339 384.639 86.3175 384.643V384.645ZM86.3175 398.417C85.9622 398.418 85.6103 398.349 85.2818 398.213C84.9533 398.078 84.6547 397.879 84.4031 397.629C84.1515 397.378 83.9519 397.08 83.8158 396.752C83.6796 396.424 83.6095 396.072 83.6095 395.717C83.6097 395 83.894 394.312 84.4001 393.805C84.9061 393.297 85.5927 393.011 86.3095 393.009C87.0272 393.01 87.715 393.296 88.2226 393.804C88.7302 394.311 89.0164 394.999 89.0185 395.717C89.0171 396.432 88.7321 397.119 88.2258 397.625C87.7196 398.131 87.0333 398.415 86.3175 398.417ZM86.3175 412.185C85.9627 412.185 85.6112 412.116 85.2833 411.981C84.9553 411.845 84.6574 411.646 84.4065 411.396C84.1556 411.145 83.9568 410.847 83.8214 410.519C83.686 410.191 83.6167 409.839 83.6175 409.485C83.6167 409.129 83.6861 408.777 83.8217 408.448C83.9574 408.12 84.1566 407.821 84.4079 407.57C84.6592 407.318 84.9578 407.119 85.2863 406.983C85.6148 406.847 85.967 406.778 86.3225 406.779C87.0379 406.781 87.7234 407.066 88.2293 407.572C88.7352 408.078 89.0204 408.763 89.0225 409.479C89.0233 409.835 88.9536 410.187 88.8176 410.516C88.6816 410.845 88.4819 411.144 88.2299 411.396C87.9779 411.647 87.6787 411.846 87.3495 411.982C87.0202 412.117 86.6675 412.186 86.3115 412.185H86.3175ZM86.3175 425.956C85.9618 425.957 85.6094 425.888 85.2806 425.753C84.9517 425.617 84.653 425.418 84.4015 425.167C84.15 424.915 83.9508 424.616 83.8154 424.287C83.68 423.959 83.611 423.606 83.6125 423.251C83.6114 422.895 83.6804 422.544 83.8156 422.215C83.9508 421.887 84.1494 421.588 84.4001 421.337C84.6508 421.085 84.9487 420.885 85.2767 420.749C85.6047 420.613 85.9563 420.543 86.3115 420.543C87.028 420.543 87.7153 420.827 88.2224 421.333C88.7296 421.839 89.0151 422.526 89.0165 423.243C89.0182 423.598 88.9496 423.951 88.8148 424.28C88.6799 424.609 88.4814 424.908 88.2306 425.16C87.9798 425.412 87.6817 425.612 87.3534 425.748C87.0251 425.885 86.673 425.955 86.3175 425.956Z" fill="white"/>
<path opacity="0.8" d="M89.0235 285.538C89.0197 286.252 88.7378 286.937 88.2374 287.448C87.7232 287.95 87.0362 288.236 86.3175 288.248C85.6007 288.241 84.915 287.954 84.4074 287.448C84.0278 287.069 83.7689 286.587 83.6635 286.062C83.5582 285.536 83.6111 284.992 83.8157 284.496C84.0202 284.001 84.3671 283.578 84.8125 283.28C85.2579 282.982 85.7816 282.823 86.3175 282.823C87.0358 282.827 87.7235 283.114 88.2304 283.623C88.7373 284.132 89.0224 284.821 89.0235 285.54V285.538Z" fill="white"/>
<path opacity="0.8" d="M102.533 437.033C102.533 437.747 102.251 438.432 101.75 438.942C101.236 439.442 100.548 439.724 99.8304 439.728C99.117 439.724 98.4332 439.442 97.9245 438.942C97.4385 438.423 97.1681 437.738 97.1681 437.028C97.1681 436.317 97.4385 435.632 97.9245 435.114C98.4303 434.612 99.1124 434.329 99.8244 434.326C100.543 434.329 101.233 434.613 101.746 435.116C102.25 435.626 102.533 436.315 102.533 437.033Z" fill="white"/>
<path opacity="0.8" d="M99.8285 302.014C99.1121 302.01 98.4261 301.723 97.9202 301.216C97.4144 300.709 97.1298 300.022 97.1285 299.306C97.1285 298.589 97.4129 297.903 97.9193 297.396C98.4256 296.89 99.1124 296.606 99.8285 296.606C100.184 296.604 100.536 296.673 100.864 296.808C101.193 296.943 101.492 297.142 101.743 297.393C101.994 297.643 102.194 297.942 102.329 298.27C102.465 298.598 102.534 298.95 102.533 299.306C102.535 299.661 102.465 300.014 102.33 300.342C102.194 300.671 101.995 300.97 101.744 301.222C101.492 301.473 101.194 301.673 100.865 301.809C100.536 301.945 100.184 302.014 99.8285 302.014ZM99.8285 315.783C99.1124 315.783 98.4256 315.498 97.9193 314.992C97.4129 314.485 97.1285 313.799 97.1285 313.083C97.1287 312.366 97.4131 311.679 97.9191 311.171C98.4252 310.664 99.1118 310.378 99.8285 310.376C100.184 310.375 100.536 310.444 100.865 310.58C101.193 310.716 101.492 310.916 101.743 311.167C101.995 311.419 102.194 311.717 102.329 312.046C102.465 312.375 102.534 312.727 102.533 313.083C102.533 313.438 102.463 313.789 102.327 314.117C102.191 314.445 101.992 314.743 101.741 314.994C101.49 315.244 101.191 315.443 100.863 315.578C100.535 315.714 100.183 315.783 99.8285 315.783ZM99.8285 329.556C99.1117 329.554 98.425 329.268 97.9189 328.76C97.4127 328.253 97.1285 327.565 97.1285 326.849C97.1298 326.131 97.4155 325.443 97.9229 324.936C98.4303 324.429 99.118 324.144 99.8355 324.143C100.191 324.143 100.542 324.213 100.87 324.349C101.198 324.485 101.496 324.684 101.747 324.936C101.998 325.187 102.196 325.485 102.332 325.813C102.467 326.142 102.536 326.493 102.535 326.849C102.536 327.204 102.467 327.557 102.331 327.886C102.196 328.214 101.996 328.513 101.745 328.765C101.493 329.016 101.194 329.216 100.865 329.351C100.537 329.487 100.184 329.556 99.8285 329.556ZM99.8285 343.324C99.1124 343.324 98.4256 343.039 97.9193 342.533C97.4129 342.026 97.1285 341.34 97.1285 340.624C97.13 339.906 97.4157 339.218 97.923 338.711C98.4303 338.203 99.1179 337.917 99.8355 337.916C100.552 337.917 101.239 338.201 101.746 338.707C102.253 339.213 102.54 339.899 102.542 340.616C102.544 340.972 102.474 341.325 102.338 341.654C102.202 341.984 102.002 342.283 101.75 342.535C101.497 342.787 101.198 342.986 100.868 343.121C100.538 343.257 100.185 343.325 99.8285 343.324ZM99.8285 357.107C99.1095 357.104 98.4209 356.817 97.9134 356.308C97.406 355.798 97.1212 355.109 97.1215 354.39C97.1231 353.673 97.409 352.986 97.9165 352.48C98.424 351.973 99.1117 351.689 99.8285 351.69C100.184 351.689 100.535 351.758 100.864 351.893C101.192 352.028 101.491 352.227 101.742 352.478C101.994 352.729 102.193 353.027 102.329 353.355C102.465 353.683 102.535 354.034 102.535 354.39C102.536 354.746 102.467 355.098 102.332 355.428C102.196 355.757 101.997 356.056 101.746 356.309C101.495 356.561 101.196 356.761 100.868 356.898C100.539 357.035 100.187 357.106 99.8305 357.107H99.8285ZM99.8285 370.878C99.1114 370.875 98.4246 370.589 97.9175 370.082C97.4105 369.574 97.1244 368.888 97.1215 368.171C97.1228 367.454 97.4074 366.768 97.9133 366.26C98.4192 365.753 99.1051 365.467 99.8215 365.464C100.177 365.462 100.53 365.532 100.859 365.667C101.188 365.803 101.487 366.002 101.739 366.254C101.991 366.505 102.19 366.804 102.326 367.133C102.462 367.462 102.531 367.815 102.53 368.171C102.529 368.887 102.244 369.573 101.738 370.08C101.233 370.588 100.547 370.874 99.8305 370.878H99.8285ZM99.8285 384.645C99.1123 384.642 98.4263 384.356 97.9204 383.849C97.4145 383.342 97.1298 382.656 97.1285 381.94C97.1285 381.223 97.4129 380.537 97.9193 380.03C98.4256 379.524 99.1124 379.24 99.8285 379.24C100.184 379.239 100.536 379.309 100.865 379.444C101.194 379.58 101.492 379.78 101.744 380.031C101.995 380.283 102.194 380.582 102.33 380.911C102.465 381.24 102.535 381.592 102.533 381.948C102.532 382.663 102.247 383.349 101.74 383.855C101.233 384.36 100.546 384.643 99.8305 384.643L99.8285 384.645ZM99.8285 398.416C99.1129 398.414 98.4273 398.129 97.9213 397.623C97.4154 397.117 97.1303 396.431 97.1285 395.716C97.1311 394.998 97.4171 394.311 97.9242 393.804C98.4312 393.297 99.1182 393.01 99.8355 393.008C100.552 393.008 101.238 393.292 101.745 393.798C102.251 394.305 102.535 394.991 102.535 395.708C102.538 396.064 102.469 396.417 102.334 396.746C102.199 397.076 102 397.375 101.748 397.627C101.496 397.879 101.197 398.078 100.867 398.214C100.538 398.349 100.185 398.418 99.8285 398.416ZM99.8285 412.186C99.1124 412.186 98.4256 411.901 97.9193 411.395C97.4129 410.888 97.1285 410.202 97.1285 409.486C97.1293 408.769 97.4138 408.082 97.9198 407.575C98.4258 407.068 99.1121 406.782 99.8285 406.78C100.184 406.78 100.535 406.85 100.863 406.986C101.191 407.122 101.489 407.321 101.74 407.572C101.991 407.824 102.189 408.122 102.325 408.45C102.46 408.779 102.529 409.13 102.528 409.486C102.528 410.202 102.244 410.888 101.738 411.395C101.231 411.901 100.545 412.186 99.8285 412.186ZM99.8285 425.956C99.1129 425.957 98.4259 425.675 97.9183 425.171C97.4107 424.666 97.1241 423.981 97.1215 423.266C97.1207 422.547 97.4043 421.858 97.9102 421.349C98.4162 420.839 99.1034 420.551 99.8215 420.547C100.178 420.547 100.531 420.617 100.86 420.754C101.189 420.891 101.488 421.091 101.739 421.344C101.991 421.596 102.189 421.896 102.325 422.226C102.46 422.556 102.528 422.909 102.526 423.266C102.527 423.619 102.457 423.97 102.322 424.297C102.186 424.624 101.988 424.92 101.737 425.17C101.487 425.42 101.189 425.618 100.862 425.753C100.535 425.888 100.184 425.957 99.8305 425.956H99.8285Z" fill="white"/>
<path opacity="0.8" d="M102.533 285.526C102.535 286.244 102.254 286.934 101.75 287.446C101.239 287.952 100.55 288.239 99.8304 288.246C99.1145 288.241 98.4294 287.953 97.9245 287.446C97.439 286.926 97.169 286.242 97.169 285.531C97.169 284.82 97.439 284.135 97.9245 283.616C98.302 283.237 98.7834 282.979 99.3077 282.874C99.832 282.77 100.376 282.823 100.87 283.027C101.364 283.232 101.786 283.579 102.082 284.023C102.379 284.468 102.537 284.991 102.536 285.526H102.533Z" fill="white"/>
<path opacity="0.8" d="M14.5394 437.032C14.5364 437.566 14.376 438.086 14.0785 438.528C13.781 438.971 13.3595 439.315 12.867 439.519C12.3744 439.723 11.8326 439.777 11.3095 439.674C10.7864 439.571 10.3053 439.316 9.92644 438.941C9.54376 438.566 9.28198 438.084 9.17463 437.559C9.06728 437.033 9.11924 436.487 9.32385 435.992C9.52847 435.496 9.87643 435.072 10.3232 434.776C10.7699 434.479 11.2951 434.322 11.8314 434.325C12.5454 434.329 13.2297 434.611 13.7374 435.113C13.9923 435.364 14.1945 435.662 14.3323 435.992C14.47 436.322 14.5404 436.675 14.5394 437.032Z" fill="white"/>
<path opacity="0.8" d="M11.8335 302.014C11.4778 302.014 11.1255 301.944 10.7968 301.808C10.4682 301.672 10.1695 301.472 9.91796 301.221C9.6664 300.969 9.46683 300.671 9.33068 300.342C9.19453 300.013 9.12446 299.661 9.12446 299.306C9.12446 298.95 9.19453 298.599 9.33065 298.271C9.46678 297.943 9.66628 297.645 9.91774 297.394C10.1692 297.143 10.4677 296.944 10.7961 296.809C11.1244 296.674 11.4763 296.605 11.8315 296.606C12.5483 296.606 13.2359 296.89 13.7435 297.396C14.2511 297.902 14.5373 298.589 14.5395 299.306C14.5381 300.023 14.2527 300.711 13.7456 301.218C13.2384 301.726 12.5509 302.012 11.8335 302.014ZM11.8335 315.783C11.4784 315.783 11.1266 315.714 10.7984 315.579C10.4701 315.443 10.1717 315.245 9.92039 314.994C9.66903 314.743 9.46961 314.445 9.33355 314.117C9.19749 313.789 9.12746 313.438 9.12746 313.083C9.12654 312.727 9.19589 312.375 9.33154 312.046C9.46719 311.717 9.66646 311.418 9.91791 311.167C10.1694 310.915 10.468 310.716 10.7967 310.58C11.1255 310.444 11.4778 310.375 11.8335 310.376C12.5507 310.377 13.2381 310.663 13.7452 311.171C14.2523 311.678 14.5379 312.365 14.5395 313.083C14.536 313.799 14.2496 314.484 13.7427 314.99C13.2358 315.496 12.5495 315.781 11.8335 315.783ZM11.8335 329.556C11.4777 329.556 11.1253 329.487 10.7964 329.351C10.4676 329.216 10.1688 329.016 9.91726 328.765C9.66571 328.513 9.46635 328.214 9.33064 327.886C9.19492 327.557 9.12554 327.204 9.12646 326.849C9.12699 326.131 9.41229 325.442 9.91978 324.934C10.4273 324.426 11.1155 324.141 11.8335 324.14C12.5508 324.143 13.2377 324.43 13.7449 324.937C14.252 325.444 14.5383 326.131 14.5415 326.849C14.5409 327.567 14.2551 328.256 13.7469 328.763C13.2388 329.271 12.5498 329.556 11.8315 329.556H11.8335ZM11.8335 343.32C11.478 343.322 11.1257 343.253 10.7968 343.118C10.4679 342.983 10.169 342.785 9.91738 342.534C9.6657 342.283 9.46624 341.984 9.33049 341.656C9.19474 341.327 9.1254 340.975 9.12646 340.62C9.12646 340.264 9.19654 339.912 9.3327 339.583C9.46887 339.255 9.66844 338.956 9.92002 338.705C10.1716 338.453 10.4703 338.254 10.7989 338.118C11.1276 337.982 11.4798 337.912 11.8355 337.913C12.5511 337.914 13.2369 338.199 13.7429 338.705C14.2489 339.211 14.5339 339.897 14.5355 340.613C14.5364 340.968 14.4671 341.32 14.3316 341.649C14.196 341.978 13.9969 342.276 13.7457 342.528C13.4945 342.779 13.196 342.979 12.8675 343.115C12.539 343.25 12.1869 343.32 11.8315 343.32H11.8335ZM11.8335 357.094C11.1177 357.095 10.4305 356.813 9.92292 356.308C9.41532 355.804 9.12884 355.118 9.12646 354.403C9.12527 354.046 9.19446 353.693 9.33004 353.363C9.46563 353.033 9.66495 352.733 9.9166 352.48C10.1682 352.228 10.4673 352.027 10.7965 351.89C11.1258 351.753 11.4789 351.683 11.8355 351.683C12.5548 351.686 13.2435 351.974 13.7507 352.484C14.2579 352.994 14.5423 353.684 14.5415 354.404C14.5401 354.758 14.469 355.109 14.3321 355.436C14.1952 355.763 13.9952 356.06 13.7436 356.31C13.4919 356.56 13.1935 356.757 12.8655 356.892C12.5374 357.026 12.186 357.095 11.8315 357.094H11.8335ZM11.8335 370.875C11.4783 370.875 11.1264 370.806 10.7981 370.671C10.4697 370.536 10.1712 370.337 9.91974 370.086C9.66828 369.835 9.46878 369.537 9.33265 369.209C9.19653 368.881 9.12646 368.53 9.12646 368.175C9.1254 367.819 9.19476 367.466 9.33054 367.137C9.46632 366.808 9.66583 366.509 9.91761 366.257C10.1694 366.005 10.4685 365.806 10.7976 365.67C11.1267 365.535 11.4795 365.465 11.8355 365.467C12.5515 365.467 13.2383 365.751 13.7446 366.257C14.251 366.764 14.5355 367.45 14.5355 368.167C14.5357 368.884 14.2511 369.572 13.744 370.08C13.237 370.588 12.549 370.874 11.8315 370.875H11.8335ZM11.8335 384.646C11.4779 384.646 11.1257 384.576 10.7972 384.44C10.4686 384.304 10.1699 384.105 9.91838 383.854C9.66682 383.602 9.46722 383.304 9.331 382.976C9.19477 382.647 9.12459 382.295 9.12446 381.94C9.12446 381.584 9.19453 381.233 9.33065 380.905C9.46678 380.577 9.66628 380.279 9.91774 380.028C10.1692 379.777 10.4677 379.578 10.7961 379.443C11.1244 379.308 11.4763 379.239 11.8315 379.24C12.5495 379.24 13.238 379.526 13.7457 380.033C14.2534 380.541 14.5389 381.23 14.5395 381.948C14.5339 382.663 14.2467 383.346 13.7401 383.851C13.2335 384.356 12.5484 384.64 11.8335 384.643V384.646ZM11.8335 398.416C11.1169 398.415 10.4297 398.131 9.92237 397.625C9.41503 397.119 9.12884 396.432 9.12646 395.716C9.12752 394.998 9.4133 394.309 9.92114 393.802C10.429 393.294 11.1174 393.008 11.8355 393.008C12.5514 393.01 13.2374 393.295 13.7442 393.801C14.2509 394.306 14.5375 394.992 14.5415 395.708C14.5388 396.425 14.2524 397.113 13.7447 397.62C13.237 398.128 12.5492 398.413 11.8315 398.416H11.8335ZM11.8335 412.186C11.4787 412.186 11.1272 412.117 10.7993 411.982C10.4713 411.846 10.1734 411.647 9.9225 411.397C9.67163 411.146 9.47278 410.848 9.33737 410.52C9.20197 410.192 9.13266 409.84 9.13345 409.486C9.13266 409.13 9.20211 408.778 9.33782 408.449C9.47353 408.12 9.67283 407.822 9.92426 407.57C10.1757 407.319 10.4743 407.12 10.803 406.984C11.1316 406.848 11.4839 406.779 11.8395 406.78C12.5556 406.781 13.2421 407.066 13.749 407.572C14.256 408.078 14.5423 408.763 14.5455 409.48C14.5449 409.835 14.4743 410.188 14.3376 410.516C14.201 410.845 14.0009 411.143 13.7489 411.395C13.4969 411.646 13.1978 411.845 12.8688 411.981C12.5398 412.117 12.1873 412.186 11.8315 412.186H11.8335ZM11.8335 425.956C11.4775 425.957 11.1249 425.888 10.7958 425.752C10.4667 425.616 10.1677 425.417 9.91596 425.165C9.6642 424.914 9.46466 424.615 9.32882 424.286C9.19298 423.957 9.12354 423.604 9.12446 423.249C9.12446 422.893 9.19453 422.542 9.33065 422.214C9.46678 421.886 9.66628 421.588 9.91774 421.337C10.1692 421.086 10.4677 420.887 10.7961 420.752C11.1244 420.617 11.4763 420.548 11.8315 420.549C12.5487 420.551 13.2358 420.837 13.743 421.344C14.2503 421.851 14.5366 422.538 14.5395 423.256C14.5395 423.611 14.4694 423.962 14.3334 424.29C14.1973 424.618 13.9979 424.916 13.7465 425.167C13.4952 425.418 13.1968 425.616 12.8685 425.752C12.5403 425.887 12.1885 425.956 11.8335 425.956Z" fill="white"/>
<path opacity="0.8" d="M14.5394 285.537C14.5396 285.893 14.469 286.244 14.3316 286.572C14.1942 286.9 13.9929 287.197 13.7394 287.445C13.4909 287.699 13.1944 287.9 12.8673 288.037C12.5401 288.175 12.1888 288.246 11.8339 288.246C11.4791 288.246 11.1278 288.175 10.8006 288.037C10.4734 287.9 10.1769 287.699 9.92842 287.445C9.5456 287.069 9.28374 286.587 9.17628 286.061C9.06881 285.535 9.12064 284.989 9.32513 284.492C9.52961 283.996 9.87748 283.571 10.3243 283.274C10.7711 282.976 11.2965 282.818 11.8334 282.82C12.5491 282.827 13.2336 283.114 13.7394 283.62C13.9938 283.871 14.1956 284.169 14.3329 284.498C14.4703 284.827 14.5405 285.181 14.5394 285.537Z" fill="white"/>
<path opacity="0.8" d="M29.4264 437.032C29.4227 437.566 29.2616 438.087 28.9633 438.53C28.6649 438.973 28.2426 439.318 27.7492 439.521C27.2557 439.725 26.7131 439.779 26.1893 439.676C25.6655 439.573 25.1837 439.317 24.8044 438.941C24.322 438.421 24.054 437.737 24.054 437.027C24.054 436.318 24.322 435.634 24.8044 435.113C25.1836 434.735 25.6664 434.478 26.1918 434.374C26.7172 434.27 27.2616 434.324 27.7562 434.53C28.2508 434.735 28.6735 435.082 28.9707 435.528C29.268 435.973 29.4266 436.497 29.4264 437.032Z" fill="white"/>
<path opacity="0.8" d="M26.7234 302.016C26.3682 302.015 26.0166 301.944 25.6886 301.808C25.3607 301.671 25.0629 301.471 24.8122 301.22C24.5614 300.968 24.3627 300.67 24.2274 300.341C24.0921 300.013 24.0228 299.661 24.0234 299.306C24.0226 298.951 24.0919 298.599 24.2273 298.271C24.3627 297.943 24.5616 297.645 24.8125 297.395C25.0633 297.144 25.3613 296.945 25.6892 296.809C26.0172 296.674 26.3686 296.605 26.7234 296.606C27.4402 296.605 28.1279 296.889 28.6354 297.396C29.1429 297.902 29.4288 298.589 29.4304 299.306C29.4278 300.023 29.1418 300.71 28.6348 301.218C28.1278 301.725 27.4408 302.012 26.7234 302.016ZM26.7234 315.778C26.0073 315.778 25.3206 315.493 24.8142 314.987C24.3079 314.48 24.0234 313.794 24.0234 313.078C24.0225 312.722 24.0917 312.371 24.2269 312.042C24.3622 311.714 24.5609 311.415 24.8118 311.164C25.0626 310.912 25.3605 310.713 25.6886 310.577C26.0166 310.441 26.3683 310.371 26.7234 310.371C27.4395 310.375 28.125 310.661 28.6307 311.168C29.1364 311.675 29.4213 312.361 29.4234 313.078C29.4234 313.794 29.139 314.48 28.6326 314.987C28.1263 315.493 27.4395 315.778 26.7234 315.778ZM26.7234 329.554C26.3684 329.554 26.0169 329.484 25.689 329.348C25.3611 329.212 25.0632 329.012 24.8125 328.761C24.5617 328.51 24.3629 328.212 24.2275 327.883C24.0921 327.555 24.0228 327.204 24.0234 326.849C24.0226 326.493 24.0919 326.142 24.2272 325.813C24.3626 325.485 24.5613 325.187 24.8121 324.936C25.0629 324.684 25.3608 324.485 25.6888 324.349C26.0168 324.213 26.3683 324.143 26.7234 324.143C27.4406 324.144 28.1279 324.43 28.6352 324.937C29.1424 325.444 29.4283 326.131 29.4304 326.849C29.4294 327.566 29.1437 328.254 28.6363 328.761C28.1288 329.268 27.4408 329.553 26.7234 329.554ZM26.7234 343.324C26.3681 343.324 26.0162 343.255 25.6878 343.119C25.3595 342.983 25.0613 342.784 24.8103 342.532C24.5594 342.281 24.3607 341.982 24.2256 341.654C24.0905 341.325 24.0218 340.973 24.0234 340.618C24.0226 340.263 24.0919 339.911 24.2272 339.582C24.3626 339.254 24.5613 338.956 24.8121 338.704C25.0629 338.453 25.3608 338.254 25.6888 338.118C26.0168 337.982 26.3683 337.912 26.7234 337.912C27.4404 337.914 28.1272 338.2 28.6343 338.707C29.1414 339.214 29.4275 339.901 29.4304 340.618C29.4302 341.335 29.1448 342.024 28.6372 342.531C28.1296 343.039 27.4412 343.324 26.7234 343.324ZM26.7234 357.09C26.3695 357.091 26.0187 357.023 25.6913 356.888C25.3639 356.754 25.0662 356.557 24.8153 356.307C24.5644 356.057 24.3654 355.76 24.2295 355.434C24.0936 355.107 24.0235 354.756 24.0234 354.403C24.0224 354.047 24.0914 353.695 24.2266 353.367C24.3619 353.038 24.5606 352.74 24.8114 352.488C25.0622 352.237 25.3602 352.037 25.6883 351.901C26.0164 351.765 26.3682 351.695 26.7234 351.695C27.0788 351.694 27.4308 351.764 27.7592 351.9C28.0876 352.036 28.386 352.235 28.6374 352.486C28.8888 352.737 29.0883 353.036 29.2243 353.364C29.3604 353.692 29.4304 354.044 29.4304 354.4C29.4278 355.115 29.1412 355.8 28.6336 356.305C28.126 356.809 27.439 357.091 26.7234 357.09ZM26.7234 370.875C26.0073 370.875 25.3206 370.59 24.8142 370.084C24.3079 369.577 24.0234 368.891 24.0234 368.175C24.0226 367.819 24.0919 367.468 24.2272 367.139C24.3626 366.811 24.5613 366.513 24.8121 366.261C25.0629 366.01 25.3608 365.811 25.6888 365.675C26.0168 365.539 26.3683 365.469 26.7234 365.469C27.4412 365.469 28.1296 365.754 28.6372 366.261C29.1448 366.769 29.4302 367.457 29.4304 368.175C29.4275 368.891 29.1411 369.577 28.6339 370.083C28.1267 370.589 27.4398 370.874 26.7234 370.875ZM26.7234 384.645C26.0073 384.645 25.3206 384.36 24.8142 383.854C24.3079 383.347 24.0234 382.661 24.0234 381.945C24.0224 381.589 24.0917 381.236 24.2274 380.907C24.3631 380.578 24.5625 380.279 24.8142 380.027C25.0659 379.776 25.3648 379.576 25.6939 379.441C26.0229 379.305 26.3755 379.236 26.7314 379.237C27.4468 379.239 28.1324 379.524 28.6383 380.03C29.1442 380.536 29.4293 381.221 29.4314 381.937C29.4301 382.654 29.1443 383.342 28.6367 383.849C28.1291 384.356 27.441 384.642 26.7234 384.643V384.645ZM26.7234 398.416C26.3673 398.417 26.0143 398.349 25.6849 398.213C25.3555 398.078 25.0563 397.878 24.8044 397.627C24.5526 397.375 24.3532 397.075 24.2178 396.746C24.0823 396.417 24.0136 396.064 24.0154 395.708C24.0154 394.991 24.2999 394.305 24.8062 393.798C25.3126 393.292 25.9993 393.008 26.7154 393.008C27.4328 393.01 28.1201 393.296 28.6273 393.803C29.1345 394.311 29.4203 394.998 29.4224 395.716C29.4224 396.431 29.1386 397.117 28.6334 397.623C28.1281 398.129 27.4426 398.414 26.7274 398.416H26.7234ZM26.7234 412.186C26.3679 412.188 26.0155 412.119 25.6866 411.984C25.3577 411.849 25.0587 411.651 24.807 411.4C24.5552 411.149 24.3557 410.85 24.2198 410.522C24.084 410.193 24.0145 409.841 24.0154 409.486C24.0146 409.13 24.0839 408.779 24.2192 408.45C24.3545 408.122 24.5533 407.824 24.8041 407.573C25.0549 407.321 25.3528 407.122 25.6808 406.986C26.0088 406.85 26.3603 406.78 26.7154 406.78C27.4327 406.781 28.1202 407.067 28.6274 407.574C29.1347 408.081 29.4206 408.768 29.4224 409.486C29.4224 410.201 29.1386 410.887 28.6334 411.393C28.1281 411.899 27.4426 412.184 26.7274 412.186H26.7234ZM26.7234 425.956C26.3684 425.956 26.0169 425.886 25.689 425.75C25.3611 425.614 25.0632 425.414 24.8125 425.163C24.5617 424.912 24.3629 424.614 24.2275 424.285C24.0921 423.957 24.0228 423.606 24.0234 423.251C24.0234 422.534 24.3079 421.848 24.8142 421.341C25.3206 420.835 26.0073 420.551 26.7234 420.551C27.4396 420.552 28.126 420.837 28.6331 421.343C29.1401 421.849 29.4267 422.534 29.4304 423.251C29.4311 423.606 29.3615 423.958 29.2257 424.287C29.0898 424.616 28.8904 424.914 28.6389 425.165C28.3874 425.417 28.0887 425.616 27.76 425.752C27.4313 425.887 27.079 425.956 26.7234 425.956Z" fill="white"/>
<path opacity="0.8" d="M29.4265 285.537C29.4228 286.253 29.1373 286.938 28.632 287.445C28.1266 287.951 27.442 288.238 26.7265 288.243C26.0071 288.236 25.3188 287.949 24.8075 287.443C24.3237 286.923 24.0548 286.24 24.0548 285.529C24.0548 284.819 24.3237 284.135 24.8075 283.615C25.0579 283.363 25.3559 283.162 25.6843 283.025C26.0128 282.888 26.3651 282.817 26.721 282.817C27.0768 282.817 27.4291 282.888 27.7576 283.025C28.086 283.162 28.3841 283.363 28.6345 283.615C29.1421 284.126 29.4269 284.817 29.4265 285.537Z" fill="white"/>
<path opacity="0.8" d="M43.8485 437.019C43.8516 437.555 43.6953 438.08 43.3994 438.526C43.1036 438.973 42.6816 439.321 42.1871 439.527C41.6926 439.733 41.1481 439.788 40.6226 439.683C40.0972 439.579 39.6147 439.321 39.2365 438.941C38.7529 438.422 38.484 437.738 38.484 437.028C38.484 436.319 38.7529 435.635 39.2365 435.115C39.6135 434.738 40.0938 434.482 40.6166 434.377C41.1395 434.273 41.6816 434.325 42.1745 434.529C42.6675 434.732 43.0892 435.076 43.3866 435.519C43.6839 435.962 43.8436 436.482 43.8455 437.015L43.8485 437.019Z" fill="white"/>
<path opacity="0.8" d="M41.1434 302.014C40.426 302.012 39.7385 301.726 39.2313 301.218C38.7242 300.711 38.4388 300.023 38.4374 299.306C38.4388 298.589 38.7245 297.902 39.2318 297.396C39.7392 296.889 40.4267 296.605 41.1434 296.606C41.4987 296.604 41.8507 296.673 42.1793 296.808C42.5079 296.943 42.8065 297.142 43.0579 297.393C43.3094 297.643 43.5087 297.942 43.6443 298.27C43.78 298.598 43.8494 298.95 43.8484 299.306C43.8495 299.661 43.7803 300.014 43.6447 300.342C43.5092 300.671 43.31 300.97 43.0587 301.222C42.8073 301.473 42.5088 301.673 42.1801 301.809C41.8514 301.945 41.4991 302.014 41.1434 302.014ZM41.1434 315.784C40.4273 315.782 39.7408 315.497 39.2339 314.991C38.7269 314.486 38.4406 313.8 38.4374 313.084C38.4396 312.366 38.7253 311.679 39.2323 311.172C39.7393 310.665 40.4263 310.379 41.1434 310.377C41.8615 310.377 42.5501 310.662 43.058 311.17C43.5659 311.677 43.8516 312.366 43.8524 313.084C43.849 313.8 43.5622 314.486 43.0547 314.992C42.5471 315.498 41.86 315.783 41.1434 315.784ZM41.1434 329.556C40.4258 329.555 39.7379 329.269 39.2305 328.762C38.7232 328.254 38.438 327.566 38.4374 326.849C38.4403 326.131 38.7263 325.445 39.233 324.937C39.7398 324.43 40.4264 324.143 41.1434 324.14C41.8614 324.141 42.5496 324.427 43.0572 324.935C43.5649 325.442 43.8509 326.131 43.8524 326.849C43.8534 327.204 43.7839 327.557 43.6481 327.886C43.5122 328.215 43.3127 328.514 43.0609 328.765C42.8092 329.017 42.5101 329.216 42.1811 329.352C41.852 329.488 41.4994 329.557 41.1434 329.556ZM41.1434 343.32C40.7884 343.32 40.4366 343.251 40.1083 343.116C39.7801 342.98 39.4817 342.782 39.2304 342.531C38.979 342.28 38.7796 341.982 38.6435 341.654C38.5075 341.326 38.4374 340.975 38.4374 340.62C38.4404 339.903 38.7266 339.217 39.2336 338.711C39.7406 338.206 40.4272 337.921 41.1434 337.92C41.499 337.919 41.8512 337.988 42.1798 338.124C42.5085 338.26 42.807 338.46 43.0583 338.711C43.3097 338.963 43.5089 339.261 43.6444 339.59C43.78 339.919 43.8494 340.271 43.8484 340.627C43.8488 340.981 43.7791 341.333 43.6431 341.66C43.5072 341.988 43.3077 342.286 43.0563 342.536C42.8049 342.786 42.5065 342.984 42.1782 343.119C41.8499 343.253 41.4982 343.322 41.1434 343.32ZM41.1434 357.107C40.4274 357.104 39.7413 356.82 39.2344 356.314C38.7276 355.808 38.4411 355.123 38.4374 354.407C38.4372 354.051 38.507 353.699 38.6428 353.37C38.7787 353.042 38.978 352.743 39.2293 352.492C39.4806 352.24 39.779 352.041 40.1074 351.905C40.4359 351.769 40.7879 351.699 41.1434 351.699C41.4991 351.697 41.8515 351.766 42.1803 351.902C42.5092 352.037 42.8079 352.236 43.0594 352.488C43.3109 352.739 43.5101 353.038 43.6455 353.367C43.7809 353.696 43.8499 354.048 43.8484 354.404C43.8479 355.121 43.5627 355.808 43.0555 356.315C42.5482 356.822 41.8605 357.107 41.1434 357.107ZM41.1434 370.875C40.4272 370.873 39.7406 370.589 39.2336 370.083C38.7266 369.577 38.4404 368.891 38.4374 368.175C38.4376 367.819 38.5078 367.467 38.6441 367.138C38.7804 366.81 38.98 366.511 39.2317 366.26C39.4834 366.009 39.7821 365.809 40.1108 365.674C40.4395 365.538 40.7918 365.468 41.1474 365.469C41.5025 365.469 41.8541 365.539 42.1821 365.675C42.51 365.811 42.808 366.01 43.0588 366.261C43.3096 366.513 43.5083 366.811 43.6436 367.139C43.779 367.468 43.8482 367.819 43.8474 368.175C43.8443 368.89 43.5582 369.576 43.0517 370.082C42.5452 370.587 41.8592 370.872 41.1434 370.875ZM41.1434 384.646C40.4274 384.643 39.7413 384.359 39.2344 383.853C38.7276 383.347 38.4411 382.662 38.4374 381.946C38.4371 381.59 38.5068 381.238 38.6426 380.909C38.7784 380.581 38.9777 380.282 39.229 380.031C39.4803 379.779 39.7788 379.58 40.1073 379.443C40.4358 379.307 40.7879 379.237 41.1434 379.238C41.4984 379.237 41.8501 379.306 42.1782 379.442C42.5064 379.577 42.8046 379.776 43.0559 380.027C43.3071 380.277 43.5064 380.575 43.6424 380.903C43.7784 381.231 43.8484 381.583 43.8484 381.938C43.8491 382.293 43.7796 382.645 43.6439 382.973C43.5082 383.302 43.309 383.6 43.0576 383.852C42.8063 384.103 42.5079 384.302 42.1794 384.438C41.8509 384.574 41.4989 384.643 41.1434 384.643V384.646ZM41.1434 398.416C40.4274 398.414 39.7411 398.129 39.2342 397.623C38.7273 397.117 38.4409 396.432 38.4374 395.716C38.439 394.998 38.7247 394.311 39.2318 393.804C39.739 393.297 40.4263 393.012 41.1434 393.011C41.4989 393.01 41.8509 393.079 42.1794 393.215C42.5079 393.351 42.8063 393.55 43.0576 393.801C43.309 394.053 43.5082 394.351 43.6439 394.68C43.7796 395.008 43.8491 395.36 43.8484 395.716C43.8484 396.071 43.7784 396.422 43.6424 396.75C43.5064 397.078 43.3071 397.376 43.0559 397.627C42.8046 397.877 42.5064 398.076 42.1782 398.211C41.8501 398.347 41.4984 398.416 41.1434 398.416ZM41.1434 412.186C40.7878 412.186 40.4355 412.117 40.1067 411.981C39.778 411.845 39.4793 411.646 39.2279 411.394C38.9764 411.143 38.7772 410.844 38.6415 410.515C38.5059 410.187 38.4365 409.834 38.4374 409.479C38.4406 408.763 38.7261 408.079 39.2317 407.573C39.7374 407.067 40.4223 406.782 41.1374 406.779C41.4933 406.778 41.8458 406.848 42.1748 406.984C42.5037 407.12 42.8025 407.319 43.0542 407.571C43.3058 407.822 43.5054 408.121 43.6413 408.45C43.7773 408.779 43.847 409.132 43.8464 409.488C43.8471 409.842 43.7776 410.194 43.6419 410.522C43.5063 410.85 43.3071 411.148 43.0559 411.399C42.8047 411.649 42.5064 411.848 42.1782 411.983C41.85 412.118 41.4984 412.187 41.1434 412.186ZM41.1434 425.956C40.7879 425.956 40.4358 425.887 40.1072 425.751C39.7786 425.616 39.48 425.416 39.2286 425.165C38.9772 424.914 38.7779 424.615 38.6421 424.287C38.5063 423.958 38.4368 423.606 38.4374 423.251C38.4403 422.534 38.7263 421.847 39.2331 421.34C39.7399 420.832 40.4265 420.546 41.1434 420.543C41.861 420.544 42.5488 420.829 43.0565 421.336C43.5641 421.843 43.8503 422.531 43.8524 423.249C43.8534 423.604 43.7839 423.957 43.6481 424.286C43.5122 424.615 43.3127 424.914 43.0609 425.165C42.8092 425.417 42.5101 425.616 42.1811 425.752C41.852 425.888 41.4994 425.957 41.1434 425.956Z" fill="white"/>
<path opacity="0.8" d="M43.8484 285.538C43.8466 286.251 43.5656 286.936 43.0654 287.446C42.5521 287.951 41.8634 288.237 41.1434 288.246C40.4276 288.239 39.743 287.951 39.2364 287.446C38.7525 286.926 38.4834 286.242 38.4834 285.532C38.4834 284.821 38.7525 284.137 39.2364 283.618C39.7467 283.115 40.4344 282.833 41.1509 282.833C41.8674 282.833 42.5552 283.115 43.0654 283.618C43.5664 284.131 43.8473 284.82 43.8484 285.538Z" fill="white"/>
<path d="M1740 0H0L1740 86V0Z" fill="white"/>
</g>
<defs>
<linearGradient id="paint0_linear" x1="870" y1="-95.3757" x2="870" y2="689.5" gradientUnits="userSpaceOnUse">
<stop stop-color="#FEF7FF"/>
<stop offset="1" stop-color="#EBBFF8"/>
</linearGradient>
<clipPath id="clip0">
<rect width="1740" height="495" fill="white"/>
</clipPath>
</defs>
</svg>
